SplineFontDB: 3.2
FontName: EBGaramondSC08-Regular
FullName: EB Garamond SmallCaps 08 Regular
FamilyName: EB Garamond SC 08
Weight: Book
Copyright: Created by Georg Duffner with FontForge\nBased on Guillaume Vauthier's French One Galliarde, v.1.00 June 6, 2012, initial release
Version: 0.016 ; ttfautohint (v0.97) -l 8 -r 50 -G 200 -x 0 -f dflt -w gGD
ItalicAngle: 0
UnderlinePosition: -136
UnderlineWidth: 70
Ascent: 726
Descent: 274
InvalidEm: 0
sfntRevision: 0x00010000
LayerCount: 2
Layer: 0 1 "Back" 1
Layer: 1 1 "Fore" 0
XUID: [1021 950 1894044646 11756458]
StyleMap: 0x0040
FSType: 0
OS2Version: 3
OS2_WeightWidthSlopeOnly: 0
OS2_UseTypoMetrics: 0
CreationTime: 1339019456
ModificationTime: 1719799440
PfmFamily: 17
TTFWeight: 400
TTFWidth: 5
LineGap: 0
VLineGap: 0
Panose: 2 2 5 2 6 2 6 2 4 3
OS2TypoAscent: 726
OS2TypoAOffset: 0
OS2TypoDescent: -274
OS2TypoDOffset: 0
OS2TypoLinegap: 0
OS2WinAscent: 890
OS2WinAOffset: 0
OS2WinDescent: 274
OS2WinDOffset: 0
HheadAscent: 726
HheadAOffset: 0
HheadDescent: -274
HheadDOffset: 0
OS2SubXSize: 688
OS2SubYSize: 638
OS2SubXOff: 0
OS2SubYOff: 136
OS2SupXSize: 688
OS2SupYSize: 638
OS2SupXOff: 0
OS2SupYOff: 468
OS2StrikeYSize: 48
OS2StrikeYPos: 254
OS2CapHeight: 658
OS2XHeight: 405
OS2FamilyClass: 258
OS2Vendor: 'PfEd'
OS2CodePages: 20000111.41000000
OS2UnicodeRanges: 800000a7.5000004a.00000000.00000000
Lookup: 1 0 0 "'locl' Localized Forms in Latin lookup 0" { "'locl' Localized Forms in Latin lookup 0 subtable"  } ['locl' ('latn' <'DEU ' > ) ]
Lookup: 1 0 0 "'locl' Localized Forms in Latin lookup 1" { "'locl' Localized Forms in Latin lookup 1 subtable"  } ['locl' ('latn' <'AZE ' 'CRT ' 'TRK ' > ) ]
Lookup: 1 0 0 "'locl' Localized Forms in Latin lookup 2" { "'locl' Localized Forms in Latin lookup 2 subtable"  } ['locl' ('latn' <'CAT ' > ) ]
Lookup: 1 0 0 "'locl' Localized Forms in Cyrillic lookup 3" { "'locl' Localized Forms in Cyrillic lookup 3 subtable"  } ['locl' ('cyrl' <'MKD ' 'SRB ' > ) ]

StartChar: .notdef
Encoding: 65536 -1 0
Width: 416
Flags: W
LayerCount: 2
Fore
SplineSet
368 -73 m 1,0,-1
 48 -73 l 1,1,-1
 48 466 l 1,2,-1
 368 466 l 1,3,-1
 368 -73 l 1,0,-1
90 -31 m 1,4,-1
 326 -31 l 1,5,-1
 326 424 l 1,6,-1
 90 424 l 1,7,-1
 90 -31 l 1,4,-1
EndSplineSet
Validated: 1
EndChar

StartChar: exclam
Encoding: 33 33 4
Width: 207
GlyphClass: 2
Flags: W
LayerCount: 2
Fore
SplineSet
97 115 m 0,0,1
 120 115 120 115 137.5 100.5 c 128,-1,2
 155 86 155 86 155 65 c 0,3,4
 155 39 155 39 138 18.5 c 128,-1,5
 121 -2 121 -2 96 -2 c 0,6,7
 74 -2 74 -2 58 13 c 128,-1,8
 42 28 42 28 42 50 c 0,9,10
 42 76 42 76 57.5 95.5 c 128,-1,11
 73 115 73 115 97 115 c 0,0,1
111 603 m 0,12,13
 156 603 156 603 156 558 c 0,14,15
 156 419 156 419 140 341 c 0,16,17
 121 240 121 240 103 240 c 128,-1,18
 85 240 85 240 79 278 c 0,19,20
 56 444 56 444 56 548 c 0,21,22
 56 570 56 570 72.5 586.5 c 128,-1,23
 89 603 89 603 111 603 c 0,12,13
EndSplineSet
Validated: 1
Substitution2: "'sups' Superscript lookup 25 subtable" exclam.sups
Substitution2: "'sinf' Scientific Inferiors lookup 24 subtable" exclam.sinf
Substitution2: "'ordn' Ordinals lookup 23 subtable" exclam.ordn
Substitution2: "'subs' Subscript lookup 22 subtable" exclam.subs
EndChar

StartChar: quotedbl
Encoding: 34 34 5
Width: 309
GlyphClass: 2
Flags: W
LayerCount: 2
Fore
SplineSet
52 620 m 2,0,1
 52 638 52 638 71 655 c 0,2,3
 97 676 97 676 123 676 c 0,4,5
 137 676 137 676 137 644 c 0,6,7
 137 595 137 595 81 469 c 0,8,9
 71 444 71 444 62 444 c 0,10,11
 55 444 55 444 55 467 c 2,12,-1
 55 524 l 2,13,14
 55 534 55 534 54.5 547.5 c 128,-1,15
 54 561 54 561 54 573 c 128,-1,16
 54 585 54 585 53.5 596 c 128,-1,17
 53 607 53 607 52 614 c 2,18,-1
 52 620 l 2,0,1
183 620 m 2,19,20
 183 638 183 638 202 655 c 0,21,22
 228 676 228 676 254 676 c 0,23,24
 268 676 268 676 268 644 c 0,25,26
 268 595 268 595 212 469 c 0,27,28
 202 444 202 444 193 444 c 0,29,30
 186 444 186 444 186 467 c 2,31,-1
 186 524 l 2,32,33
 186 534 186 534 185.5 547.5 c 128,-1,34
 185 561 185 561 184.5 573 c 128,-1,35
 184 585 184 585 184 596 c 128,-1,36
 184 607 184 607 184 614 c 2,37,-1
 183 620 l 2,19,20
EndSplineSet
Validated: 1
Substitution2: "'sups' Superscript lookup 25 subtable" quotedbl.sups
Substitution2: "'sinf' Scientific Inferiors lookup 24 subtable" quotedbl.sinf
Substitution2: "'ordn' Ordinals lookup 23 subtable" quotedbl.ordn
Substitution2: "'subs' Subscript lookup 22 subtable" quotedbl.subs
EndChar

StartChar: numbersign
Encoding: 35 35 6
Width: 728
GlyphClass: 2
Flags: W
LayerCount: 2
Fore
SplineSet
309 389 m 1,0,-1
 252 237 l 1,1,-1
 411 237 l 1,2,-1
 468 389 l 1,3,-1
 309 389 l 1,0,-1
312 563 m 2,4,5
 336 626 336 626 370 626 c 0,6,7
 394 626 394 626 383 587 c 0,8,9
 380 576 380 576 360 524 c 2,10,-1
 334 454 l 1,11,-1
 493 454 l 1,12,-1
 534 563 l 2,13,14
 558 626 558 626 583 626 c 0,15,16
 594 626 594 626 599 619 c 128,-1,17
 604 612 604 612 603 598 c 128,-1,18
 602 584 602 584 597 566.5 c 128,-1,19
 592 549 592 549 582 524 c 2,20,-1
 556 454 l 1,21,-1
 632 454 l 2,22,23
 654 454 654 454 677.5 445 c 128,-1,24
 701 436 701 436 701 420 c 0,25,26
 701 408 701 408 678.5 398.5 c 128,-1,27
 656 389 656 389 617 389 c 2,28,-1
 531 389 l 1,29,-1
 474 237 l 1,30,-1
 563 237 l 2,31,32
 585 237 585 237 608.5 228 c 128,-1,33
 632 219 632 219 632 203 c 0,34,35
 632 191 632 191 609.5 181.5 c 128,-1,36
 587 172 587 172 548 172 c 2,37,-1
 449 172 l 1,38,-1
 408 62 l 2,39,40
 384 0 384 0 348 0 c 0,41,42
 322 0 322 0 360 101 c 2,43,-1
 387 172 l 1,44,-1
 227 172 l 1,45,-1
 186 62 l 2,46,47
 162 0 162 0 135 0 c 0,48,49
 126 0 126 0 122 10 c 128,-1,50
 118 20 118 20 121.5 43.5 c 128,-1,51
 125 67 125 67 138 101 c 2,52,-1
 165 172 l 1,53,-1
 112 172 l 2,54,55
 86 172 86 172 64 181.5 c 128,-1,56
 42 191 42 191 42 208 c 0,57,58
 42 220 42 220 64 228.5 c 128,-1,59
 86 237 86 237 126 237 c 2,60,-1
 189 237 l 1,61,-1
 246 389 l 1,62,-1
 181 389 l 2,63,64
 155 389 155 389 133 398.5 c 128,-1,65
 111 408 111 408 111 425 c 0,66,67
 111 437 111 437 133 445.5 c 128,-1,68
 155 454 155 454 195 454 c 2,69,-1
 271 454 l 1,70,-1
 312 563 l 2,4,5
EndSplineSet
Validated: 33
Substitution2: "'sups' Superscript lookup 25 subtable" numbersign.sups
Substitution2: "'sinf' Scientific Inferiors lookup 24 subtable" numbersign.sinf
Substitution2: "'ordn' Ordinals lookup 23 subtable" numbersign.ordn
Substitution2: "'subs' Subscript lookup 22 subtable" numbersign.subs
EndChar

StartChar: dollar
Encoding: 36 36 7
Width: 409
GlyphClass: 2
Flags: W
LayerCount: 2
Fore
SplineSet
200 378 m 1,0,-1
 215 543 l 1,1,2
 184 538 184 538 165 512.5 c 128,-1,3
 146 487 146 487 146 453 c 0,4,5
 146 446 146 446 147 440 c 128,-1,6
 148 434 148 434 151 428.5 c 128,-1,7
 154 423 154 423 156.5 419 c 128,-1,8
 159 415 159 415 165 409 c 128,-1,9
 171 403 171 403 174 400.5 c 128,-1,10
 177 398 177 398 185.5 391 c 128,-1,11
 194 384 194 384 197 381 c 2,12,-1
 200 378 l 1,0,-1
233 216 m 1,13,-1
 216 29 l 1,14,15
 249 36 249 36 268.5 67 c 128,-1,16
 288 98 288 98 288 138 c 0,17,18
 288 171 288 171 248 204 c 2,19,-1
 233 216 l 1,13,-1
220 601 m 1,20,-1
 226 673 l 2,21,22
 227 688 227 688 238.5 698.5 c 128,-1,23
 250 709 250 709 263 709 c 0,24,25
 277 709 277 709 273 673 c 2,26,-1
 266 597 l 1,27,28
 307 589 307 589 333 574 c 0,29,30
 355 561 355 561 361 541.5 c 128,-1,31
 367 522 367 522 367 489 c 0,32,33
 367 462 367 462 347 462 c 0,34,35
 339 462 339 462 331.5 471 c 128,-1,36
 324 480 324 480 312 499 c 0,37,38
 311 501 311 501 310.5 502 c 128,-1,39
 310 503 310 503 309 505 c 128,-1,40
 308 507 308 507 307 508 c 0,41,42
 291 534 291 534 261 541 c 1,43,-1
 244 341 l 1,44,-1
 338 262 l 2,45,46
 386 222 386 222 386 160 c 0,47,48
 386 93 386 93 335.5 46.5 c 128,-1,49
 285 0 285 0 213 -9 c 1,50,-1
 206 -89 l 2,51,52
 205 -101 205 -101 194 -110 c 128,-1,53
 183 -119 183 -119 171 -119 c 0,54,55
 158 -119 158 -119 159 -91 c 2,56,-1
 166 -10 l 1,57,58
 115 -5 115 -5 80 11 c 0,59,60
 52 24 52 24 43 35.5 c 128,-1,61
 34 47 34 47 34 71 c 0,62,63
 34 138 34 138 61 138 c 0,64,65
 80 138 80 138 93 93 c 0,66,67
 109 43 109 43 170 31 c 1,68,-1
 189 252 l 1,69,-1
 98 327 l 2,70,71
 54 362 54 362 54 417 c 0,72,73
 54 488 54 488 102.5 542 c 128,-1,74
 151 596 151 596 220 601 c 1,20,-1
EndSplineSet
Validated: 33
Substitution2: "'sups' Superscript lookup 25 subtable" dollar.sups
Substitution2: "'sinf' Scientific Inferiors lookup 24 subtable" dollar.sinf
Substitution2: "'ordn' Ordinals lookup 23 subtable" dollar.ordn
Substitution2: "'subs' Subscript lookup 22 subtable" dollar.subs
EndChar

StartChar: percent
Encoding: 37 37 8
Width: 763
GlyphClass: 2
Flags: W
LayerCount: 2
Fore
SplineSet
98 483 m 0,0,1
 98 448 98 448 123 423.5 c 128,-1,2
 148 399 148 399 183 399 c 0,3,4
 219 399 219 399 243.5 426.5 c 128,-1,5
 268 454 268 454 268 492 c 0,6,7
 268 525 268 525 241 546 c 128,-1,8
 214 567 214 567 178 567 c 0,9,10
 145 567 145 567 121.5 542 c 128,-1,11
 98 517 98 517 98 483 c 0,0,1
178 620 m 0,12,13
 236 620 236 620 279.5 587 c 128,-1,14
 323 554 323 554 323 502 c 0,15,16
 323 439 323 439 281 393 c 128,-1,17
 239 347 239 347 178 347 c 0,18,19
 120 347 120 347 80.5 389.5 c 128,-1,20
 41 432 41 432 41 491 c 0,21,22
 41 545 41 545 81.5 582.5 c 128,-1,23
 122 620 122 620 178 620 c 0,12,13
506 135 m 0,24,25
 506 100 506 100 531 75.5 c 128,-1,26
 556 51 556 51 591 51 c 0,27,28
 627 51 627 51 651.5 78.5 c 128,-1,29
 676 106 676 106 676 144 c 0,30,31
 676 177 676 177 649 198 c 128,-1,32
 622 219 622 219 586 219 c 0,33,34
 553 219 553 219 529.5 194 c 128,-1,35
 506 169 506 169 506 135 c 0,24,25
586 272 m 0,36,37
 644 272 644 272 687.5 239 c 128,-1,38
 731 206 731 206 731 154 c 0,39,40
 731 91 731 91 689 45 c 128,-1,41
 647 -1 647 -1 586 -1 c 0,42,43
 528 -1 528 -1 488.5 41.5 c 128,-1,44
 449 84 449 84 449 143 c 0,45,46
 449 197 449 197 489.5 234.5 c 128,-1,47
 530 272 530 272 586 272 c 0,36,37
606 570 m 2,48,-1
 184 10 l 2,49,50
 163 -18 163 -18 139 -18 c 0,51,52
 129 -18 129 -18 127.5 0 c 128,-1,53
 126 18 126 18 136 31 c 2,54,-1
 530 551 l 2,55,56
 543 568 543 568 551 577 c 128,-1,57
 559 586 559 586 571.5 595 c 128,-1,58
 584 604 584 604 596 604 c 128,-1,59
 608 604 608 604 611.5 592 c 128,-1,60
 615 580 615 580 606 570 c 2,48,-1
EndSplineSet
Validated: 33
Substitution2: "'sups' Superscript lookup 25 subtable" percent.sups
Substitution2: "'sinf' Scientific Inferiors lookup 24 subtable" percent.sinf
Substitution2: "'ordn' Ordinals lookup 23 subtable" percent.ordn
Substitution2: "'subs' Subscript lookup 22 subtable" percent.subs
EndChar

StartChar: ampersand
Encoding: 38 38 9
Width: 783
GlyphClass: 2
Flags: W
LayerCount: 2
Fore
SplineSet
291 455 m 1,0,-1
 308 468 l 2,1,2
 318 476 318 476 328.5 494 c 128,-1,3
 339 512 339 512 339 526 c 0,4,5
 339 553 339 553 321.5 569.5 c 128,-1,6
 304 586 304 586 278 586 c 0,7,8
 261 586 261 586 239.5 571.5 c 128,-1,9
 218 557 218 557 218 542 c 0,10,11
 218 533 218 533 240 506 c 128,-1,12
 262 479 262 479 273 471 c 2,13,-1
 291 455 l 1,0,-1
244 369 m 1,14,-1
 151 291 l 2,15,16
 131 274 131 274 131 239 c 0,17,18
 131 176 131 176 164.5 125.5 c 128,-1,19
 198 75 198 75 250 75 c 0,20,21
 293 75 293 75 326 97 c 128,-1,22
 359 119 359 119 396 161 c 2,23,-1
 419 187 l 2,24,25
 418 189 418 189 415.5 191 c 128,-1,26
 413 193 413 193 412 195 c 0,27,28
 322 298 322 298 253 361 c 2,29,-1
 244 369 l 1,14,-1
671 -4 m 0,30,31
 615 -4 615 -4 577.5 7.5 c 128,-1,32
 540 19 540 19 514 54 c 0,33,34
 483 103 483 103 448 150 c 1,35,-1
 382 77 l 2,36,37
 344 34 344 34 309 11 c 128,-1,38
 274 -12 274 -12 230 -12 c 0,39,40
 148 -12 148 -12 95 45.5 c 128,-1,41
 42 103 42 103 42 195 c 0,42,43
 42 226 42 226 64.5 264.5 c 128,-1,44
 87 303 87 303 123 330 c 2,45,-1
 212 397 l 1,46,-1
 195 412 l 2,47,48
 138 461 138 461 138 524 c 0,49,50
 138 576 138 576 184.5 604.5 c 128,-1,51
 231 633 231 633 292 633 c 0,52,53
 343 633 343 633 381 613 c 128,-1,54
 419 593 419 593 419 552 c 0,55,56
 419 515 419 515 374 477 c 2,57,-1
 319 431 l 1,58,-1
 326 425 l 2,59,60
 391 368 391 368 471 273 c 0,61,62
 473 271 473 271 477 266 c 128,-1,63
 481 261 481 261 483 259 c 1,64,-1
 549 334 l 2,65,66
 563 351 563 351 563 362 c 0,67,68
 563 369 563 369 557 374 c 128,-1,69
 551 379 551 379 546 380 c 0,70,71
 522 385 522 385 522 397 c 0,72,73
 522 405 522 405 529 411 c 128,-1,74
 536 417 536 417 547 417 c 2,75,-1
 626 417 l 2,76,77
 634 417 634 417 656 420 c 128,-1,78
 678 423 678 423 686 423 c 0,79,80
 710 423 710 423 710 403 c 0,81,82
 710 391 710 391 676 380 c 0,83,84
 666 376 666 376 642.5 359 c 128,-1,85
 619 342 619 342 602 323 c 2,86,-1
 512 223 l 1,87,-1
 612 96 l 2,88,89
 630 73 630 73 648.5 62 c 128,-1,90
 667 51 667 51 681.5 48.5 c 128,-1,91
 696 46 696 46 731 43 c 0,92,93
 748 41 748 41 748 26 c 0,94,95
 748 13 748 13 722 4.5 c 128,-1,96
 696 -4 696 -4 671 -4 c 0,30,31
EndSplineSet
Validated: 1
Substitution2: "'sups' Superscript lookup 25 subtable" ampersand.sups
Substitution2: "'sinf' Scientific Inferiors lookup 24 subtable" ampersand.sinf
Substitution2: "'ordn' Ordinals lookup 23 subtable" ampersand.ordn
Substitution2: "'subs' Subscript lookup 22 subtable" ampersand.subs
EndChar

StartChar: quotesingle
Encoding: 39 39 10
Width: 178
GlyphClass: 2
Flags: W
LayerCount: 2
Fore
SplineSet
52 620 m 2,0,1
 52 638 52 638 71 655 c 0,2,3
 97 676 97 676 124 676 c 0,4,5
 138 676 138 676 138 644 c 0,6,7
 138 597 138 597 81 469 c 0,8,9
 71 444 71 444 62 444 c 0,10,11
 55 444 55 444 55 467 c 0,12,13
 56 488 56 488 56 524 c 0,14,15
 56 534 56 534 55.5 547.5 c 128,-1,16
 55 561 55 561 54.5 573 c 128,-1,17
 54 585 54 585 53.5 596 c 128,-1,18
 53 607 53 607 52 614 c 2,19,-1
 52 620 l 2,0,1
EndSplineSet
Validated: 1
Substitution2: "'sups' Superscript lookup 25 subtable" quotesingle.sups
Substitution2: "'sinf' Scientific Inferiors lookup 24 subtable" quotesingle.sinf
Substitution2: "'ordn' Ordinals lookup 23 subtable" quotesingle.ordn
Substitution2: "'subs' Subscript lookup 22 subtable" quotesingle.subs
EndChar

StartChar: parenleft
Encoding: 40 40 11
Width: 291
GlyphClass: 2
Flags: W
LayerCount: 2
Fore
SplineSet
264 723 m 0,0,1
 293 723 293 723 293 704 c 0,2,3
 293 699 293 699 288.5 693.5 c 128,-1,4
 284 688 284 688 273.5 677.5 c 128,-1,5
 263 667 263 667 256 658 c 0,6,7
 175 552 175 552 135.5 447 c 128,-1,8
 96 342 96 342 96 190 c 0,9,10
 96 93 96 93 139 -3.5 c 128,-1,11
 182 -100 182 -100 243 -165 c 0,12,13
 252 -175 252 -175 264 -186 c 128,-1,14
 276 -197 276 -197 281 -201.5 c 128,-1,15
 286 -206 286 -206 289.5 -215 c 128,-1,16
 293 -224 293 -224 293 -236 c 0,17,18
 293 -249 293 -249 277 -249 c 0,19,20
 264 -249 264 -249 245 -234 c 128,-1,21
 226 -219 226 -219 212.5 -204 c 128,-1,22
 199 -189 199 -189 177 -162 c 0,23,24
 45 1 45 1 45 216 c 0,25,26
 45 362 45 362 88.5 470.5 c 128,-1,27
 132 579 132 579 213 684 c 0,28,29
 243 723 243 723 264 723 c 0,0,1
EndSplineSet
Validated: 1
Substitution2: "'sups' Superscript lookup 25 subtable" parenleft.sups
Substitution2: "'sinf' Scientific Inferiors lookup 24 subtable" parenleft.sinf
Substitution2: "'ordn' Ordinals lookup 23 subtable" parenleft.ordn
Substitution2: "'subs' Subscript lookup 22 subtable" parenleft.subs
EndChar

StartChar: parenright
Encoding: 41 41 12
Width: 291
GlyphClass: 2
Flags: W
LayerCount: 2
Fore
SplineSet
29 -249 m 0,0,1
 0 -249 0 -249 0 -230 c 0,2,3
 0 -225 0 -225 4.5 -219.5 c 128,-1,4
 9 -214 9 -214 19.5 -203.5 c 128,-1,5
 30 -193 30 -193 37 -184 c 0,6,7
 118 -78 118 -78 157.5 27 c 128,-1,8
 197 132 197 132 197 284 c 0,9,10
 197 381 197 381 154 477.5 c 128,-1,11
 111 574 111 574 50 639 c 0,12,13
 41 649 41 649 29 660 c 128,-1,14
 17 671 17 671 12 675.5 c 128,-1,15
 7 680 7 680 3.5 689 c 128,-1,16
 0 698 0 698 0 710 c 0,17,18
 0 723 0 723 16 723 c 0,19,20
 29 723 29 723 48 708 c 128,-1,21
 67 693 67 693 80.5 678 c 128,-1,22
 94 663 94 663 116 636 c 0,23,24
 248 473 248 473 248 258 c 0,25,26
 248 112 248 112 204.5 3.5 c 128,-1,27
 161 -105 161 -105 80 -210 c 0,28,29
 50 -249 50 -249 29 -249 c 0,0,1
EndSplineSet
Validated: 1
Substitution2: "'sups' Superscript lookup 25 subtable" parenright.sups
Substitution2: "'sinf' Scientific Inferiors lookup 24 subtable" parenright.sinf
Substitution2: "'ordn' Ordinals lookup 23 subtable" parenright.ordn
Substitution2: "'subs' Subscript lookup 22 subtable" parenright.subs
EndChar

StartChar: asterisk
Encoding: 42 42 13
Width: 395
GlyphClass: 2
Flags: W
LayerCount: 2
Fore
SplineSet
235 602 m 0,0,1
 235 583 235 583 225 536 c 0,2,3
 222 516 222 516 222 510 c 0,4,5
 222 501 222 501 246 501 c 0,6,7
 274 501 274 501 328 499 c 0,8,9
 372 497 372 497 372 478 c 0,10,11
 372 455 372 455 281 447 c 0,12,13
 250 444 250 444 239.5 437.5 c 128,-1,14
 229 431 229 431 234 419 c 0,15,16
 264 345 264 345 264 318 c 0,17,18
 264 308 264 308 259 299.5 c 128,-1,19
 254 291 254 291 246 291 c 0,20,21
 233 291 233 291 222 305.5 c 128,-1,22
 211 320 211 320 195.5 352.5 c 128,-1,23
 180 385 180 385 174 396 c 0,24,25
 173 398 173 398 171 401.5 c 128,-1,26
 169 405 169 405 168 406.5 c 128,-1,27
 167 408 167 408 165.5 409.5 c 128,-1,28
 164 411 164 411 162 409.5 c 128,-1,29
 160 408 160 408 157 405 c 0,30,31
 155 403 155 403 150 398.5 c 128,-1,32
 145 394 145 394 136.5 386.5 c 128,-1,33
 128 379 128 379 120 370 c 0,34,35
 85 333 85 333 61 333 c 128,-1,36
 37 333 37 333 37 356 c 0,37,38
 37 370 37 370 76 404 c 0,39,40
 114 438 114 438 114 456 c 0,41,42
 114 467 114 467 85 484 c 0,43,44
 24 520 24 520 24 545 c 0,45,46
 24 560 24 560 44 560 c 0,47,48
 62 560 62 560 110 537 c 0,49,50
 143 519 143 519 151 519 c 0,51,52
 152 519 152 519 153.5 520 c 128,-1,53
 155 521 155 521 156.5 523.5 c 128,-1,54
 158 526 158 526 159 528.5 c 128,-1,55
 160 531 160 531 161.5 535.5 c 128,-1,56
 163 540 163 540 164 544.5 c 128,-1,57
 165 549 165 549 167 556 c 128,-1,58
 169 563 169 563 171 569 c 0,59,60
 190 633 190 633 213 633 c 0,61,62
 224 633 224 633 229.5 622 c 128,-1,63
 235 611 235 611 235 602 c 0,0,1
EndSplineSet
Validated: 1
Substitution2: "'sups' Superscript lookup 25 subtable" asterisk.sups
Substitution2: "'sinf' Scientific Inferiors lookup 24 subtable" asterisk.sinf
Substitution2: "'ordn' Ordinals lookup 23 subtable" asterisk.ordn
Substitution2: "'subs' Subscript lookup 22 subtable" asterisk.subs
EndChar

StartChar: plus
Encoding: 43 43 14
Width: 459
GlyphClass: 2
Flags: W
LayerCount: 2
Fore
SplineSet
200 172 m 1,0,-1
 95 172 l 2,1,2
 42 172 42 172 42 202 c 0,3,4
 42 216 42 216 57 227 c 128,-1,5
 72 238 72 238 95 238 c 2,6,-1
 200 238 l 1,7,-1
 200 343 l 2,8,9
 200 368 200 368 209.5 382 c 128,-1,10
 219 396 219 396 232 396 c 128,-1,11
 245 396 245 396 255 386 c 128,-1,12
 265 376 265 376 265 354 c 2,13,-1
 265 238 l 1,14,-1
 380 238 l 2,15,16
 398 238 398 238 410 230 c 128,-1,17
 422 222 422 222 422 210 c 0,18,19
 422 197 422 197 411 185 c 128,-1,20
 400 173 400 173 379 173 c 2,21,-1
 265 173 l 1,22,-1
 265 56 l 2,23,24
 265 16 265 16 233 16 c 0,25,26
 200 16 200 16 200 54 c 2,27,-1
 200 172 l 1,0,-1
EndSplineSet
Validated: 1
Substitution2: "'sups' Superscript lookup 25 subtable" plus.sups
Substitution2: "'sinf' Scientific Inferiors lookup 24 subtable" plus.sinf
Substitution2: "'ordn' Ordinals lookup 23 subtable" plus.ordn
Substitution2: "'subs' Subscript lookup 22 subtable" plus.subs
EndChar

StartChar: comma
Encoding: 44 44 15
Width: 250
GlyphClass: 2
Flags: W
LayerCount: 2
Fore
SplineSet
97 115 m 0,0,1
 144 115 144 115 177.5 82.5 c 128,-1,2
 211 50 211 50 211 5 c 0,3,4
 211 -46 211 -46 164.5 -110 c 128,-1,5
 118 -174 118 -174 75 -174 c 0,6,7
 61 -174 61 -174 61 -161 c 0,8,9
 61 -156 61 -156 97.5 -117 c 128,-1,10
 134 -78 134 -78 134 -50 c 0,11,12
 134 -42 134 -42 132.5 -35.5 c 128,-1,13
 131 -29 131 -29 127.5 -23.5 c 128,-1,14
 124 -18 124 -18 121.5 -14.5 c 128,-1,15
 119 -11 119 -11 112 -6.5 c 128,-1,16
 105 -2 105 -2 102.5 0 c 128,-1,17
 100 2 100 2 91 7 c 128,-1,18
 82 12 82 12 80 13 c 0,19,20
 41 34 41 34 41 63 c 0,21,22
 41 86 41 86 57.5 100.5 c 128,-1,23
 74 115 74 115 97 115 c 0,0,1
EndSplineSet
Validated: 1
Substitution2: "'sups' Superscript lookup 25 subtable" comma.sups
Substitution2: "'sinf' Scientific Inferiors lookup 24 subtable" comma.sinf
Substitution2: "'ordn' Ordinals lookup 23 subtable" comma.ordn
Substitution2: "'subs' Subscript lookup 22 subtable" comma.subs
EndChar

StartChar: hyphen
Encoding: 45 45 16
Width: 386
GlyphClass: 2
Flags: W
LayerCount: 2
Fore
SplineSet
320 271 m 2,0,1
 351 273 351 273 351 243 c 0,2,3
 351 224 351 224 342.5 209.5 c 128,-1,4
 334 195 334 195 318 194 c 2,5,-1
 99 176 l 2,6,7
 45 171 45 171 45 195 c 0,8,9
 45 213 45 213 54.5 231.5 c 128,-1,10
 64 250 64 250 82 252 c 2,11,-1
 320 271 l 2,0,1
EndSplineSet
Validated: 33
Substitution2: "'sups' Superscript lookup 25 subtable" hyphen.sups
Substitution2: "'sinf' Scientific Inferiors lookup 24 subtable" hyphen.sinf
Substitution2: "'ordn' Ordinals lookup 23 subtable" hyphen.ordn
Substitution2: "'subs' Subscript lookup 22 subtable" hyphen.subs
Substitution2: "'case' Case-Sensitive Forms lookup 6 subtable" hyphen.cap
EndChar

StartChar: period
Encoding: 46 46 17
Width: 206
GlyphClass: 2
Flags: W
LayerCount: 2
Fore
SplineSet
114 116 m 0,0,1
 135 116 135 116 150.5 99 c 128,-1,2
 166 82 166 82 166 62 c 0,3,4
 166 37 166 37 147.5 16.5 c 128,-1,5
 129 -4 129 -4 105 -4 c 0,6,7
 77 -4 77 -4 59.5 13 c 128,-1,8
 42 30 42 30 42 58 c 0,9,10
 42 84 42 84 63.5 100 c 128,-1,11
 85 116 85 116 114 116 c 0,0,1
EndSplineSet
Validated: 1
Substitution2: "'sups' Superscript lookup 25 subtable" period.sups
Substitution2: "'sinf' Scientific Inferiors lookup 24 subtable" period.sinf
Substitution2: "'ordn' Ordinals lookup 23 subtable" period.ordn
Substitution2: "'subs' Subscript lookup 22 subtable" period.subs
EndChar

StartChar: slash
Encoding: 47 47 18
Width: 237
GlyphClass: 2
Flags: W
LayerCount: 2
Fore
SplineSet
342 667 m 2,0,-1
 43 -18 l 2,1,2
 31 -46 31 -46 7 -46 c 0,3,4
 -18 -46 -18 -46 4 3 c 2,5,-1
 282 648 l 2,6,7
 296 681 296 681 304.5 691 c 128,-1,8
 313 701 313 701 330 701 c 0,9,10
 342 701 342 701 345 690 c 128,-1,11
 348 679 348 679 342 667 c 2,0,-1
EndSplineSet
Validated: 33
Substitution2: "'frac' Diagonal Fractions lookup 26 subtable" fraction
Substitution2: "'sups' Superscript lookup 25 subtable" slash.sups
Substitution2: "'sinf' Scientific Inferiors lookup 24 subtable" slash.sinf
Substitution2: "'ordn' Ordinals lookup 23 subtable" slash.ordn
Substitution2: "'subs' Subscript lookup 22 subtable" slash.subs
EndChar

StartChar: zero
Encoding: 48 48 19
Width: 510
GlyphClass: 2
Flags: W
LayerCount: 2
Fore
SplineSet
103 212 m 0,0,1
 103 153 103 153 149.5 107.5 c 128,-1,2
 196 62 196 62 256 62 c 0,3,4
 317 62 317 62 362.5 113 c 128,-1,5
 408 164 408 164 408 228 c 0,6,7
 408 285 408 285 357 330 c 128,-1,8
 306 375 306 375 246 375 c 0,9,10
 190 375 190 375 146.5 323.5 c 128,-1,11
 103 272 103 272 103 212 c 0,0,1
251 430 m 0,12,13
 336 430 336 430 405.5 372 c 128,-1,14
 475 314 475 314 475 235 c 0,15,16
 475 141 475 141 409 68.5 c 128,-1,17
 343 -4 343 -4 251 -4 c 0,18,19
 166 -4 166 -4 103.5 62.5 c 128,-1,20
 41 129 41 129 41 217 c 0,21,22
 41 299 41 299 105.5 364.5 c 128,-1,23
 170 430 170 430 251 430 c 0,12,13
EndSplineSet
Validated: 1
Substitution2: "'tnum' Tabular Numbers lookup 32 subtable" zero.taboldstyle
Substitution2: "'lnum' Lining Figures lookup 30 subtable" zero.lnum
Substitution2: "Single Substitution lookup 29 subtable" zero.ordn
Substitution2: "Single Substitution lookup 28 subtable" zero.subs
Substitution2: "'sups' Superscript lookup 25 subtable" zero.sups
Substitution2: "'sinf' Scientific Inferiors lookup 24 subtable" zero.sinf
Substitution2: "'ordn' Ordinals lookup 23 subtable" zero.ordn
Substitution2: "'subs' Subscript lookup 22 subtable" zero.subs
EndChar

StartChar: one
Encoding: 49 49 20
Width: 276
GlyphClass: 2
Flags: W
LayerCount: 2
Fore
SplineSet
180 313 m 2,0,-1
 180 108 l 2,1,2
 180 87 180 87 189.5 68.5 c 128,-1,3
 199 50 199 50 218 44 c 0,4,5
 261 31 261 31 261 18 c 0,6,7
 261 -2 261 -2 227 -2 c 0,8,9
 215 -2 215 -2 180.5 1 c 128,-1,10
 146 4 146 4 139 4 c 0,11,12
 129 4 129 4 95 1 c 128,-1,13
 61 -2 61 -2 50 -2 c 0,14,15
 15 -2 15 -2 15 18 c 0,16,17
 15 31 15 31 59 44 c 0,18,19
 78 50 78 50 87.5 68.5 c 128,-1,20
 97 87 97 87 97 108 c 2,21,-1
 97 313 l 2,22,23
 97 334 97 334 87.5 352.5 c 128,-1,24
 78 371 78 371 59 377 c 0,25,26
 21 388 21 388 21 403 c 0,27,28
 21 423 21 423 55 423 c 0,29,30
 67 423 67 423 99 420 c 128,-1,31
 131 417 131 417 138 417 c 0,32,33
 148 417 148 417 178.5 420 c 128,-1,34
 209 423 209 423 220 423 c 0,35,36
 255 423 255 423 255 403 c 0,37,38
 255 389 255 389 216 377 c 0,39,40
 180 366 180 366 180 313 c 2,0,-1
EndSplineSet
Validated: 1
Substitution2: "'cv11' Character Variants 11 lookup 45 subtable" one.01
Substitution2: "'tnum' Tabular Numbers lookup 32 subtable" one.taboldstyle
Substitution2: "'lnum' Lining Figures lookup 30 subtable" one.lnum
Substitution2: "Single Substitution lookup 29 subtable" one.ordn
Substitution2: "Single Substitution lookup 28 subtable" one.subs
Substitution2: "'sups' Superscript lookup 25 subtable" one.sups
Substitution2: "'sinf' Scientific Inferiors lookup 24 subtable" one.sinf
Substitution2: "'ordn' Ordinals lookup 23 subtable" one.ordn
Substitution2: "'subs' Subscript lookup 22 subtable" one.subs
EndChar

StartChar: two
Encoding: 50 50 21
Width: 415
GlyphClass: 2
Flags: W
LayerCount: 2
Fore
SplineSet
272 68 m 1,0,1
 312 64 312 64 341 98 c 0,2,3
 348 106 348 106 358.5 121 c 128,-1,4
 369 136 369 136 374 141 c 128,-1,5
 379 146 379 146 384 146 c 0,6,7
 398 146 398 146 398 121 c 0,8,9
 398 86 398 86 378.5 42 c 128,-1,10
 359 -2 359 -2 347 -2 c 0,11,12
 331 -2 331 -2 285 1 c 128,-1,13
 239 4 239 4 208 4 c 0,14,15
 179 4 179 4 142.5 2.5 c 128,-1,16
 106 1 106 1 81 0 c 2,17,-1
 56 -2 l 2,18,19
 54 -2 54 -2 47 7 c 128,-1,20
 40 16 40 16 40 19 c 0,21,22
 40 24 40 24 47 31 c 0,23,24
 72 56 72 56 99 78 c 0,25,26
 114 91 114 91 134 109 c 128,-1,27
 154 127 154 127 185 160 c 128,-1,28
 216 193 216 193 236 228.5 c 128,-1,29
 256 264 256 264 256 292 c 0,30,31
 256 361 256 361 194 361 c 0,32,33
 159 361 159 361 135 351 c 128,-1,34
 111 341 111 341 86 313 c 0,35,36
 76 303 76 303 71 303 c 0,37,38
 67 303 67 303 62.5 311.5 c 128,-1,39
 58 320 58 320 58 325 c 0,40,41
 58 329 58 329 63.5 339.5 c 128,-1,42
 69 350 69 350 82.5 365.5 c 128,-1,43
 96 381 96 381 114 395 c 128,-1,44
 132 409 132 409 161 419 c 128,-1,45
 190 429 190 429 223 429 c 0,46,47
 272 429 272 429 306.5 398 c 128,-1,48
 341 367 341 367 341 321 c 0,49,50
 341 280 341 280 271 195 c 0,51,52
 249 169 249 169 207.5 124.5 c 128,-1,53
 166 80 166 80 158 75 c 0,54,55
 151 70 151 70 163 68 c 2,56,-1
 167 67 l 1,57,-1
 272 68 l 1,0,1
EndSplineSet
Validated: 33
Substitution2: "'tnum' Tabular Numbers lookup 32 subtable" two.taboldstyle
Substitution2: "'lnum' Lining Figures lookup 30 subtable" two.lnum
Substitution2: "Single Substitution lookup 29 subtable" two.ordn
Substitution2: "Single Substitution lookup 28 subtable" two.subs
Substitution2: "'sups' Superscript lookup 25 subtable" two.sups
Substitution2: "'sinf' Scientific Inferiors lookup 24 subtable" two.sinf
Substitution2: "'ordn' Ordinals lookup 23 subtable" two.ordn
Substitution2: "'subs' Subscript lookup 22 subtable" two.subs
EndChar

StartChar: three
Encoding: 51 51 22
Width: 314
GlyphClass: 2
Flags: W
LayerCount: 2
Fore
SplineSet
181 429 m 0,0,1
 226 429 226 429 257.5 399 c 128,-1,2
 289 369 289 369 289 325 c 0,3,4
 289 280 289 280 272 251.5 c 128,-1,5
 255 223 255 223 197 186 c 0,6,7
 189 182 189 182 198 180 c 0,8,9
 261 173 261 173 285.5 140.5 c 128,-1,10
 310 108 310 108 310 69 c 0,11,12
 310 -27 310 -27 237.5 -91.5 c 128,-1,13
 165 -156 165 -156 66 -156 c 0,14,15
 51 -156 51 -156 40.5 -146.5 c 128,-1,16
 30 -137 30 -137 30 -125 c 0,17,18
 30 -110 30 -110 42.5 -100.5 c 128,-1,19
 55 -91 55 -91 70 -91 c 0,20,21
 73 -91 73 -91 103 -97 c 128,-1,22
 133 -103 133 -103 144 -103 c 0,23,24
 180 -103 180 -103 205 -61 c 128,-1,25
 230 -19 230 -19 230 33 c 0,26,27
 230 57 230 57 229 68 c 128,-1,28
 228 79 228 79 221.5 95 c 128,-1,29
 215 111 215 111 199 117.5 c 128,-1,30
 183 124 183 124 157 124 c 0,31,32
 143 124 143 124 128.5 121 c 128,-1,33
 114 118 114 118 105 115 c 128,-1,34
 96 112 96 112 95 112 c 0,35,36
 89 112 89 112 83.5 120 c 128,-1,37
 78 128 78 128 78 134 c 0,38,39
 78 141 78 141 89 154 c 128,-1,40
 100 167 100 167 109 172 c 0,41,42
 116 176 116 176 129.5 182.5 c 128,-1,43
 143 189 143 189 154.5 196 c 128,-1,44
 166 203 166 203 179 215 c 0,45,46
 211 243 211 243 211 308 c 0,47,48
 211 335 211 335 193.5 351 c 128,-1,49
 176 367 176 367 151 367 c 0,50,51
 110 367 110 367 66 320 c 0,52,53
 60 312 60 312 50 312 c 0,54,55
 36 312 36 312 36 328 c 0,56,57
 36 349 36 349 83 389 c 128,-1,58
 130 429 130 429 181 429 c 0,0,1
EndSplineSet
Validated: 1
Substitution2: "'tnum' Tabular Numbers lookup 32 subtable" three.taboldstyle
Substitution2: "'lnum' Lining Figures lookup 30 subtable" three.lnum
Substitution2: "Single Substitution lookup 29 subtable" three.ordn
Substitution2: "Single Substitution lookup 28 subtable" three.subs
Substitution2: "'sups' Superscript lookup 25 subtable" three.sups
Substitution2: "'sinf' Scientific Inferiors lookup 24 subtable" three.sinf
Substitution2: "'ordn' Ordinals lookup 23 subtable" three.ordn
Substitution2: "'subs' Subscript lookup 22 subtable" three.subs
EndChar

StartChar: four
Encoding: 52 52 23
Width: 529
GlyphClass: 2
Flags: W
LayerCount: 2
Fore
SplineSet
129 104 m 2,0,1
 123 94 123 94 126 90.5 c 128,-1,2
 129 87 129 87 144 87 c 2,3,-1
 260 87 l 2,4,5
 263 87 263 87 265.5 87.5 c 128,-1,6
 268 88 268 88 269.5 89 c 128,-1,7
 271 90 271 90 272 90.5 c 128,-1,8
 273 91 273 91 273 93.5 c 128,-1,9
 273 96 273 96 273 97.5 c 128,-1,10
 273 99 273 99 273 102.5 c 128,-1,11
 273 106 273 106 273 108 c 2,12,-1
 273 273 l 2,13,14
 273 295 273 295 270 295 c 0,15,16
 268 295 268 295 264 290 c 2,17,-1
 129 104 l 2,0,1
334 432 m 0,18,19
 356 432 356 432 356 367 c 2,20,-1
 356 109 l 2,21,22
 356 96 356 96 361 91.5 c 128,-1,23
 366 87 366 87 383 87 c 2,24,-1
 476 87 l 2,25,26
 492 87 492 87 492 68 c 0,27,28
 492 51 492 51 478 38 c 128,-1,29
 464 25 464 25 441 25 c 2,30,-1
 374 25 l 2,31,32
 356 25 356 25 356 -15 c 2,33,-1
 356 -114 l 2,34,35
 356 -135 356 -135 338.5 -152 c 128,-1,36
 321 -169 321 -169 300 -169 c 0,37,38
 273 -169 273 -169 273 -139 c 2,39,-1
 273 1 l 2,40,41
 273 24 273 24 247 24 c 2,42,-1
 75 24 l 2,43,44
 42 24 42 24 42 48 c 0,45,46
 42 54 42 54 46 61 c 128,-1,47
 50 68 50 68 60.5 81.5 c 128,-1,48
 71 95 71 95 75 100 c 2,49,-1
 300 413 l 2,50,51
 313 432 313 432 334 432 c 0,18,19
EndSplineSet
Validated: 1
Substitution2: "'tnum' Tabular Numbers lookup 32 subtable" four.taboldstyle
Substitution2: "'lnum' Lining Figures lookup 30 subtable" four.lnum
Substitution2: "Single Substitution lookup 29 subtable" four.ordn
Substitution2: "Single Substitution lookup 28 subtable" four.subs
Substitution2: "'sups' Superscript lookup 25 subtable" four.sups
Substitution2: "'sinf' Scientific Inferiors lookup 24 subtable" four.sinf
Substitution2: "'ordn' Ordinals lookup 23 subtable" four.ordn
Substitution2: "'subs' Subscript lookup 22 subtable" four.subs
EndChar

StartChar: five
Encoding: 53 53 24
Width: 328
GlyphClass: 2
Flags: W
LayerCount: 2
Fore
SplineSet
218 418 m 2,0,-1
 289 424 l 2,1,2
 298 425 298 425 301.5 419 c 128,-1,3
 305 413 305 413 305 405 c 0,4,5
 305 393 305 393 291 370.5 c 128,-1,6
 277 348 277 348 261 344 c 0,7,8
 250 341 250 341 209 338.5 c 128,-1,9
 168 336 168 336 161 332 c 0,10,11
 150 327 150 327 143.5 316.5 c 128,-1,12
 137 306 137 306 137 297 c 0,13,14
 137 279 137 279 204 218 c 0,15,16
 236 189 236 189 252 146 c 128,-1,17
 268 103 268 103 268 68 c 0,18,19
 268 -23 268 -23 103 -152 c 0,20,21
 81 -169 81 -169 49 -169 c 0,22,23
 38 -169 38 -169 26 -159 c 128,-1,24
 14 -149 14 -149 14 -139 c 0,25,26
 14 -99 14 -99 50 -90 c 0,27,28
 62 -87 62 -87 125 -87 c 0,29,30
 142 -87 142 -87 169 -56 c 128,-1,31
 196 -25 196 -25 196 11 c 0,32,33
 196 38 196 38 186 64.5 c 128,-1,34
 176 91 176 91 165.5 108.5 c 128,-1,35
 155 126 155 126 130.5 151 c 128,-1,36
 106 176 106 176 95 185 c 128,-1,37
 84 194 84 194 55 219 c 0,38,39
 39 233 39 233 39 250 c 0,40,41
 39 272 39 272 57 289 c 2,42,-1
 150 377 l 2,43,44
 192 416 192 416 218 418 c 2,0,-1
EndSplineSet
Validated: 1
Substitution2: "'tnum' Tabular Numbers lookup 32 subtable" five.taboldstyle
Substitution2: "'lnum' Lining Figures lookup 30 subtable" five.lnum
Substitution2: "Single Substitution lookup 29 subtable" five.ordn
Substitution2: "Single Substitution lookup 28 subtable" five.subs
Substitution2: "'sups' Superscript lookup 25 subtable" five.sups
Substitution2: "'sinf' Scientific Inferiors lookup 24 subtable" five.sinf
Substitution2: "'ordn' Ordinals lookup 23 subtable" five.ordn
Substitution2: "'subs' Subscript lookup 22 subtable" five.subs
EndChar

StartChar: six
Encoding: 54 54 25
Width: 474
GlyphClass: 2
Flags: W
LayerCount: 2
Fore
SplineSet
142 198 m 0,0,1
 142 140 142 140 176 87 c 128,-1,2
 210 34 210 34 260 34 c 0,3,4
 345 34 345 34 345 192 c 0,5,6
 345 241 345 241 303 281 c 128,-1,7
 261 321 261 321 206 321 c 0,8,9
 182 321 182 321 167 300.5 c 128,-1,10
 152 280 152 280 147 254 c 128,-1,11
 142 228 142 228 142 198 c 0,0,1
367 570 m 0,12,13
 387 570 387 570 387 552 c 0,14,15
 387 546 387 546 374.5 534.5 c 128,-1,16
 362 523 362 523 344 515 c 0,17,18
 293 491 293 491 243.5 448 c 128,-1,19
 194 405 194 405 177 353 c 0,20,21
 175 346 175 346 186 348 c 0,22,23
 190 349 190 349 194 350 c 0,24,25
 218 358 218 358 250 358 c 0,26,27
 321 358 321 358 381 311.5 c 128,-1,28
 441 265 441 265 441 201 c 0,29,30
 441 121 441 121 383 55.5 c 128,-1,31
 325 -10 325 -10 246 -10 c 0,32,33
 151 -10 151 -10 96.5 57.5 c 128,-1,34
 42 125 42 125 42 230 c 0,35,36
 42 324 42 324 122 414.5 c 128,-1,37
 202 505 202 505 306 554 c 0,38,39
 339 570 339 570 367 570 c 0,12,13
EndSplineSet
Validated: 1
Substitution2: "'tnum' Tabular Numbers lookup 32 subtable" six.taboldstyle
Substitution2: "'lnum' Lining Figures lookup 30 subtable" six.lnum
Substitution2: "Single Substitution lookup 29 subtable" six.ordn
Substitution2: "Single Substitution lookup 28 subtable" six.subs
Substitution2: "'sups' Superscript lookup 25 subtable" six.sups
Substitution2: "'sinf' Scientific Inferiors lookup 24 subtable" six.sinf
Substitution2: "'ordn' Ordinals lookup 23 subtable" six.ordn
Substitution2: "'subs' Subscript lookup 22 subtable" six.subs
EndChar

StartChar: seven
Encoding: 55 55 26
Width: 424
GlyphClass: 2
Flags: W
LayerCount: 2
Fore
SplineSet
326 418 m 2,0,1
 369 418 369 418 386.5 413.5 c 128,-1,2
 404 409 404 409 404 394 c 0,3,4
 404 378 404 378 383 336 c 2,5,-1
 145 -135 l 2,6,7
 140 -145 140 -145 133.5 -160 c 128,-1,8
 127 -175 127 -175 123.5 -181.5 c 128,-1,9
 120 -188 120 -188 114 -195.5 c 128,-1,10
 108 -203 108 -203 100.5 -206 c 128,-1,11
 93 -209 93 -209 82 -209 c 0,12,13
 66 -209 66 -209 66 -179 c 0,14,15
 66 -171 66 -171 88 -129 c 2,16,-1
 297 268 l 2,17,18
 317 308 317 308 317 317 c 0,19,20
 317 327 317 327 312 330 c 128,-1,21
 307 333 307 333 286 333 c 2,22,-1
 147 333 l 2,23,24
 129 333 129 333 111.5 321.5 c 128,-1,25
 94 310 94 310 89 295 c 0,26,27
 80 267 80 267 57 267 c 0,28,29
 42 267 42 267 42 295 c 0,30,31
 42 304 42 304 60 351 c 0,32,33
 68 372 68 372 73.5 383.5 c 128,-1,34
 79 395 79 395 89.5 406.5 c 128,-1,35
 100 418 100 418 112 418 c 2,36,-1
 326 418 l 2,0,1
EndSplineSet
Validated: 1
Substitution2: "'tnum' Tabular Numbers lookup 32 subtable" seven.taboldstyle
Substitution2: "'lnum' Lining Figures lookup 30 subtable" seven.lnum
Substitution2: "Single Substitution lookup 29 subtable" seven.ordn
Substitution2: "Single Substitution lookup 28 subtable" seven.subs
Substitution2: "'sups' Superscript lookup 25 subtable" seven.sups
Substitution2: "'sinf' Scientific Inferiors lookup 24 subtable" seven.sinf
Substitution2: "'ordn' Ordinals lookup 23 subtable" seven.ordn
Substitution2: "'subs' Subscript lookup 22 subtable" seven.subs
EndChar

StartChar: eight
Encoding: 56 56 27
Width: 412
GlyphClass: 2
Flags: W
LayerCount: 2
Fore
SplineSet
164 289 m 1,0,-1
 105 342 l 2,1,2
 66 378 66 378 66 431 c 0,3,4
 66 491 66 491 117 527.5 c 128,-1,5
 168 564 168 564 235 564 c 0,6,7
 284 564 284 564 318.5 528.5 c 128,-1,8
 353 493 353 493 353 443 c 0,9,10
 353 422 353 422 342.5 406.5 c 128,-1,11
 332 391 332 391 311 370 c 2,12,-1
 255 315 l 1,13,-1
 325 244 l 2,14,15
 374 195 374 195 374 131 c 0,16,17
 374 63 374 63 310.5 27.5 c 128,-1,18
 247 -8 247 -8 164 -8 c 0,19,20
 112 -8 112 -8 75 29 c 128,-1,21
 38 66 38 66 38 118 c 0,22,23
 38 132 38 132 40 144 c 128,-1,24
 42 156 42 156 48.5 168 c 128,-1,25
 55 180 55 180 59 187.5 c 128,-1,26
 63 195 63 195 75 207.5 c 128,-1,27
 87 220 87 220 92 224.5 c 128,-1,28
 97 229 97 229 112.5 243 c 128,-1,29
 128 257 128 257 133 261 c 2,30,-1
 164 289 l 1,0,-1
283 445 m 0,31,32
 283 475 283 475 261 500.5 c 128,-1,33
 239 526 239 526 209 526 c 0,34,35
 183 526 183 526 165.5 501 c 128,-1,36
 148 476 148 476 148 446 c 0,37,38
 148 435 148 435 153.5 423.5 c 128,-1,39
 159 412 159 412 163.5 407 c 128,-1,40
 168 402 168 402 182.5 388 c 128,-1,41
 197 374 197 374 200 371 c 2,42,-1
 226 345 l 1,43,-1
 253 369 l 2,44,45
 283 396 283 396 283 445 c 0,31,32
128 129 m 0,46,47
 128 93 128 93 149.5 62.5 c 128,-1,48
 171 32 171 32 203 32 c 0,49,50
 232 32 232 32 258 52 c 128,-1,51
 284 72 284 72 284 99 c 0,52,53
 284 179 284 179 232 226 c 2,54,-1
 196 259 l 1,55,-1
 162 225 l 2,56,57
 128 191 128 191 128 129 c 0,46,47
EndSplineSet
Validated: 1
Substitution2: "'tnum' Tabular Numbers lookup 32 subtable" eight.taboldstyle
Substitution2: "'lnum' Lining Figures lookup 30 subtable" eight.lnum
Substitution2: "Single Substitution lookup 29 subtable" eight.ordn
Substitution2: "Single Substitution lookup 28 subtable" eight.subs
Substitution2: "'sups' Superscript lookup 25 subtable" eight.sups
Substitution2: "'sinf' Scientific Inferiors lookup 24 subtable" eight.sinf
Substitution2: "'ordn' Ordinals lookup 23 subtable" eight.ordn
Substitution2: "'subs' Subscript lookup 22 subtable" eight.subs
EndChar

StartChar: nine
Encoding: 57 57 28
Width: 468
GlyphClass: 2
Flags: W
LayerCount: 2
Fore
SplineSet
140 208 m 0,0,1
 140 157 140 157 174.5 123.5 c 128,-1,2
 209 90 209 90 260 90 c 0,3,4
 303 90 303 90 328 136.5 c 128,-1,5
 353 183 353 183 353 260 c 0,6,7
 353 310 353 310 329.5 352 c 128,-1,8
 306 394 306 394 264 394 c 0,9,10
 204 394 204 394 172 337.5 c 128,-1,11
 140 281 140 281 140 208 c 0,0,1
267 430 m 0,12,13
 348 430 348 430 400 377.5 c 128,-1,14
 452 325 452 325 452 244 c 0,15,16
 452 181 452 181 418 110 c 128,-1,17
 384 39 384 39 321 -22 c 128,-1,18
 258 -83 258 -83 182 -110 c 0,19,20
 90 -143 90 -143 73 -143 c 0,21,22
 48 -143 48 -143 48 -125 c 0,23,24
 48 -114 48 -114 55.5 -101.5 c 128,-1,25
 63 -89 63 -89 71 -86 c 0,26,27
 105 -73 105 -73 158 -44 c 0,28,29
 198 -21 198 -21 233 7 c 128,-1,30
 268 35 268 35 273 48 c 0,31,32
 274 50 274 50 271 51.5 c 128,-1,33
 268 53 268 53 261 54 c 128,-1,34
 254 55 254 55 246 55.5 c 128,-1,35
 238 56 238 56 226 57.5 c 128,-1,36
 214 59 214 59 204 61 c 0,37,38
 129 74 129 74 85 119 c 128,-1,39
 41 164 41 164 41 236 c 0,40,41
 41 320 41 320 109 375 c 128,-1,42
 177 430 177 430 267 430 c 0,12,13
EndSplineSet
Validated: 1
Substitution2: "'tnum' Tabular Numbers lookup 32 subtable" nine.taboldstyle
Substitution2: "'lnum' Lining Figures lookup 30 subtable" nine.lnum
Substitution2: "Single Substitution lookup 29 subtable" nine.ordn
Substitution2: "Single Substitution lookup 28 subtable" nine.subs
Substitution2: "'sups' Superscript lookup 25 subtable" nine.sups
Substitution2: "'sinf' Scientific Inferiors lookup 24 subtable" nine.sinf
Substitution2: "'ordn' Ordinals lookup 23 subtable" nine.ordn
Substitution2: "'subs' Subscript lookup 22 subtable" nine.subs
EndChar

StartChar: colon
Encoding: 58 58 29
Width: 199
GlyphClass: 2
Flags: W
LayerCount: 2
Fore
SplineSet
112 405 m 0,0,1
 135 405 135 405 150.5 386.5 c 128,-1,2
 166 368 166 368 166 343 c 0,3,4
 166 317 166 317 146 300.5 c 128,-1,5
 126 284 126 284 99 284 c 0,6,7
 76 284 76 284 59.5 300.5 c 128,-1,8
 43 317 43 317 43 340 c 0,9,10
 43 367 43 367 63.5 386 c 128,-1,11
 84 405 84 405 112 405 c 0,0,1
112 116 m 0,12,13
 135 116 135 116 150.5 97.5 c 128,-1,14
 166 79 166 79 166 54 c 0,15,16
 166 28 166 28 146 11.5 c 128,-1,17
 126 -5 126 -5 99 -5 c 0,18,19
 76 -5 76 -5 59.5 11.5 c 128,-1,20
 43 28 43 28 43 51 c 0,21,22
 43 78 43 78 63.5 97 c 128,-1,23
 84 116 84 116 112 116 c 0,12,13
EndSplineSet
Validated: 1
Substitution2: "'sups' Superscript lookup 25 subtable" colon.sups
Substitution2: "'sinf' Scientific Inferiors lookup 24 subtable" colon.sinf
Substitution2: "'ordn' Ordinals lookup 23 subtable" colon.ordn
Substitution2: "'subs' Subscript lookup 22 subtable" colon.subs
EndChar

StartChar: semicolon
Encoding: 59 59 30
Width: 231
GlyphClass: 2
Flags: W
LayerCount: 2
Fore
SplineSet
123 353 m 0,0,1
 146 353 146 353 161.5 334.5 c 128,-1,2
 177 316 177 316 177 291 c 0,3,4
 177 265 177 265 157 248.5 c 128,-1,5
 137 232 137 232 110 232 c 0,6,7
 87 232 87 232 70.5 248.5 c 128,-1,8
 54 265 54 265 54 288 c 0,9,10
 54 315 54 315 74.5 334 c 128,-1,11
 95 353 95 353 123 353 c 0,0,1
97 115 m 0,12,13
 144 115 144 115 177.5 82.5 c 128,-1,14
 211 50 211 50 211 5 c 0,15,16
 211 -46 211 -46 164.5 -110 c 128,-1,17
 118 -174 118 -174 75 -174 c 0,18,19
 61 -174 61 -174 61 -161 c 0,20,21
 61 -156 61 -156 97.5 -117 c 128,-1,22
 134 -78 134 -78 134 -50 c 0,23,24
 134 -42 134 -42 132.5 -35.5 c 128,-1,25
 131 -29 131 -29 127.5 -23.5 c 128,-1,26
 124 -18 124 -18 121.5 -14.5 c 128,-1,27
 119 -11 119 -11 112 -6.5 c 128,-1,28
 105 -2 105 -2 102.5 0 c 128,-1,29
 100 2 100 2 91 7 c 128,-1,30
 82 12 82 12 80 13 c 0,31,32
 41 34 41 34 41 63 c 0,33,34
 41 86 41 86 57.5 100.5 c 128,-1,35
 74 115 74 115 97 115 c 0,12,13
EndSplineSet
Validated: 1
Substitution2: "'sups' Superscript lookup 25 subtable" semicolon.sups
Substitution2: "'sinf' Scientific Inferiors lookup 24 subtable" semicolon.sinf
Substitution2: "'ordn' Ordinals lookup 23 subtable" semicolon.ordn
Substitution2: "'subs' Subscript lookup 22 subtable" semicolon.subs
EndChar

StartChar: less
Encoding: 60 60 31
Width: 578
GlyphClass: 2
Flags: W
LayerCount: 2
Fore
SplineSet
136 245 m 2,0,-1
 502 79 l 2,1,2
 514 73 514 73 521 53.5 c 128,-1,3
 528 34 528 34 528 23 c 0,4,5
 528 19 528 19 524.5 14.5 c 128,-1,6
 521 10 521 10 517 10 c 0,7,8
 516 10 516 10 516 10 c 1,9,-1
 514 11 l 1,10,-1
 85 211 l 2,11,12
 44 230 44 230 44 238 c 0,13,14
 44 247 44 247 54 262.5 c 128,-1,15
 64 278 64 278 77 284 c 2,16,-1
 514 484 l 1,17,-1
 515 484 l 2,18,19
 516 485 516 485 517 485 c 0,20,21
 527 485 527 485 527 475 c 0,22,23
 527 463 527 463 517 442.5 c 128,-1,24
 507 422 507 422 494 416 c 2,25,-1
 135 254 l 2,26,27
 131 252 131 252 131.5 249.5 c 128,-1,28
 132 247 132 247 136 245 c 2,0,-1
EndSplineSet
Validated: 1
Substitution2: "'sups' Superscript lookup 25 subtable" less.sups
Substitution2: "'sinf' Scientific Inferiors lookup 24 subtable" less.sinf
Substitution2: "'ordn' Ordinals lookup 23 subtable" less.ordn
Substitution2: "'subs' Subscript lookup 22 subtable" less.subs
EndChar

StartChar: equal
Encoding: 61 61 32
Width: 459
GlyphClass: 2
Flags: W
LayerCount: 2
Fore
SplineSet
95 244 m 2,0,1
 42 244 42 244 42 274 c 0,2,3
 42 288 42 288 57 299 c 128,-1,4
 72 310 72 310 95 310 c 2,5,-1
 380 310 l 2,6,7
 398 310 398 310 410 302 c 128,-1,8
 422 294 422 294 422 282 c 0,9,10
 422 269 422 269 411 257 c 128,-1,11
 400 245 400 245 379 245 c 2,12,-1
 95 244 l 2,0,1
95 86 m 2,13,14
 42 86 42 86 42 116 c 0,15,16
 42 130 42 130 57 141 c 128,-1,17
 72 152 72 152 95 152 c 2,18,-1
 380 152 l 2,19,20
 398 152 398 152 410 144 c 128,-1,21
 422 136 422 136 422 124 c 0,22,23
 422 111 422 111 411 99 c 128,-1,24
 400 87 400 87 379 87 c 2,25,-1
 95 86 l 2,13,14
EndSplineSet
Validated: 1
Substitution2: "'sups' Superscript lookup 25 subtable" equal.sups
Substitution2: "'sinf' Scientific Inferiors lookup 24 subtable" equal.sinf
Substitution2: "'ordn' Ordinals lookup 23 subtable" equal.ordn
Substitution2: "'subs' Subscript lookup 22 subtable" equal.subs
EndChar

StartChar: greater
Encoding: 62 62 33
Width: 578
GlyphClass: 2
Flags: W
LayerCount: 2
Fore
SplineSet
442 250 m 2,0,-1
 76 416 l 2,1,2
 64 422 64 422 57 441.5 c 128,-1,3
 50 461 50 461 50 472 c 0,4,5
 50 476 50 476 53.5 480.5 c 128,-1,6
 57 485 57 485 61 485 c 0,7,8
 62 485 62 485 64 484 c 2,9,-1
 493 284 l 2,10,11
 534 265 534 265 534 257 c 0,12,13
 534 248 534 248 524 232.5 c 128,-1,14
 514 217 514 217 501 211 c 2,15,-1
 64 11 l 1,16,-1
 63 10 l 2,17,18
 62 10 62 10 61 10 c 0,19,20
 51 10 51 10 51 20 c 0,21,22
 51 32 51 32 61 52.5 c 128,-1,23
 71 73 71 73 84 79 c 2,24,-1
 443 241 l 2,25,26
 447 243 447 243 446.5 245.5 c 128,-1,27
 446 248 446 248 442 250 c 2,0,-1
EndSplineSet
Validated: 1
Substitution2: "'sups' Superscript lookup 25 subtable" greater.sups
Substitution2: "'sinf' Scientific Inferiors lookup 24 subtable" greater.sinf
Substitution2: "'ordn' Ordinals lookup 23 subtable" greater.ordn
Substitution2: "'subs' Subscript lookup 22 subtable" greater.subs
EndChar

StartChar: question
Encoding: 63 63 34
Width: 266
GlyphClass: 2
Flags: W
LayerCount: 2
Fore
SplineSet
162 65 m 0,0,1
 162 37 162 37 145.5 18.5 c 128,-1,2
 129 0 129 0 101 0 c 0,3,4
 77 0 77 0 59.5 16.5 c 128,-1,5
 42 33 42 33 42 57 c 0,6,7
 42 83 42 83 60 100 c 128,-1,8
 78 117 78 117 105 117 c 0,9,10
 129 117 129 117 145.5 102.5 c 128,-1,11
 162 88 162 88 162 65 c 0,0,1
230 363 m 0,12,13
 230 301 230 301 200 289 c 0,14,15
 188 284 188 284 165 276.5 c 128,-1,16
 142 269 142 269 126 263 c 0,17,18
 124 262 124 262 111.5 232.5 c 128,-1,19
 99 203 99 203 88 203 c 0,20,21
 78 203 78 203 70 232.5 c 128,-1,22
 62 262 62 262 62 286 c 0,23,24
 62 335 62 335 79 342 c 0,25,26
 91 347 91 347 112.5 353.5 c 128,-1,27
 134 360 134 360 145 365 c 0,28,29
 197 387 197 387 197 435 c 0,30,31
 197 450 197 450 186 465.5 c 128,-1,32
 175 481 175 481 163 485 c 0,33,34
 115 498 115 498 89 508 c 0,35,36
 53 521 53 521 53 555 c 0,37,38
 53 627 53 627 71 627 c 0,39,40
 157 627 157 627 193.5 558.5 c 128,-1,41
 230 490 230 490 230 363 c 0,12,13
EndSplineSet
Validated: 1
Substitution2: "'sups' Superscript lookup 25 subtable" question.sups
Substitution2: "'sinf' Scientific Inferiors lookup 24 subtable" question.sinf
Substitution2: "'ordn' Ordinals lookup 23 subtable" question.ordn
Substitution2: "'subs' Subscript lookup 22 subtable" question.subs
EndChar

StartChar: at
Encoding: 64 64 35
Width: 725
GlyphClass: 2
Flags: W
LayerCount: 2
Fore
SplineSet
391 341 m 0,0,1
 345 341 345 341 312.5 301 c 128,-1,2
 280 261 280 261 280 191 c 0,3,4
 280 141 280 141 301.5 119 c 128,-1,5
 323 97 323 97 356 97 c 0,6,7
 379 97 379 97 410 119 c 0,8,9
 430 132 430 132 437 168 c 2,10,-1
 456 271 l 2,11,12
 457 275 457 275 457 283 c 0,13,14
 457 341 457 341 391 341 c 0,0,1
490 58 m 0,15,16
 472 58 472 58 461 68.5 c 128,-1,17
 450 79 450 79 444.5 89.5 c 128,-1,18
 439 100 439 100 436 100 c 128,-1,19
 433 100 433 100 417 89.5 c 128,-1,20
 401 79 401 79 374.5 68.5 c 128,-1,21
 348 58 348 58 320 58 c 0,22,23
 268 58 268 58 230.5 89.5 c 128,-1,24
 193 121 193 121 193 172 c 0,25,26
 193 260 193 260 260 318 c 128,-1,27
 327 376 327 376 413 376 c 0,28,29
 439 376 439 376 478 363 c 0,30,31
 496 357 496 357 501 357 c 128,-1,32
 506 357 506 357 513.5 366.5 c 128,-1,33
 521 376 521 376 526 376 c 0,34,35
 544 374 544 374 551 368 c 1,36,37
 537 331 537 331 529 288 c 2,38,-1
 508 156 l 2,39,40
 508 153 508 153 507 147.5 c 128,-1,41
 506 142 506 142 505.5 137.5 c 128,-1,42
 505 133 505 133 505 129 c 0,43,44
 505 100 505 100 523 100 c 0,45,46
 576 100 576 100 610.5 137.5 c 128,-1,47
 645 175 645 175 645 236 c 0,48,49
 645 339 645 339 571 408.5 c 128,-1,50
 497 478 497 478 392 478 c 0,51,52
 269 478 269 478 184.5 404 c 128,-1,53
 100 330 100 330 100 207 c 0,54,55
 100 89 100 89 185 9.5 c 128,-1,56
 270 -70 270 -70 391 -70 c 0,57,58
 441 -70 441 -70 501 -49.5 c 128,-1,59
 561 -29 561 -29 598 2 c 0,60,61
 610 12 610 12 616 12 c 0,62,63
 630 12 630 12 630 -1 c 128,-1,64
 630 -14 630 -14 591 -41 c 128,-1,65
 552 -68 552 -68 491 -91.5 c 128,-1,66
 430 -115 430 -115 380 -115 c 0,67,68
 243 -115 243 -115 145.5 -26.5 c 128,-1,69
 48 62 48 62 48 197 c 0,70,71
 48 350 48 350 154 436.5 c 128,-1,72
 260 523 260 523 412 523 c 0,73,74
 525 523 525 523 611 442.5 c 128,-1,75
 697 362 697 362 697 251 c 0,76,77
 697 166 697 166 635.5 112 c 128,-1,78
 574 58 574 58 490 58 c 0,15,16
EndSplineSet
Validated: 1
Substitution2: "'cv02' Character Variants 02 lookup 41 subtable" at.01
Substitution2: "'sups' Superscript lookup 25 subtable" at.sups
Substitution2: "'sinf' Scientific Inferiors lookup 24 subtable" at.sinf
Substitution2: "'ordn' Ordinals lookup 23 subtable" at.ordn
Substitution2: "'subs' Subscript lookup 22 subtable" at.subs
EndChar

StartChar: A
Encoding: 65 65 36
Width: 649
GlyphClass: 2
Flags: W
AnchorPoint: "Anchor-4" 308 -80 basechar 0
AnchorPoint: "Anchor-2" 130 15 basechar 0
AnchorPoint: "Anchor-1" 472 15 basechar 0
AnchorPoint: "Anchor-0" 336 670 basechar 0
LayerCount: 2
Fore
SplineSet
238 272 m 2,0,1
 232 260 232 260 233.5 255.5 c 128,-1,2
 235 251 235 251 247 251 c 2,3,-1
 369 251 l 2,4,5
 384 251 384 251 386 257 c 128,-1,6
 388 263 388 263 380 287 c 2,7,-1
 319 474 l 2,8,9
 315 488 315 488 308 471 c 2,10,-1
 238 272 l 2,0,1
523 4 m 0,11,12
 486 4 486 4 443 1 c 128,-1,13
 400 -2 400 -2 389 -2 c 128,-1,14
 378 -2 378 -2 367.5 2.5 c 128,-1,15
 357 7 357 7 357 15 c 0,16,17
 357 22 357 22 364.5 26.5 c 128,-1,18
 372 31 372 31 388.5 36.5 c 128,-1,19
 405 42 405 42 411 45 c 0,20,21
 450 63 450 63 440 98 c 2,22,-1
 411 193 l 2,23,24
 407 205 407 205 395 205 c 2,25,-1
 228 205 l 2,26,27
 216 205 216 205 212 194 c 2,28,-1
 174 85 l 2,29,30
 163 52 163 52 196 43 c 0,31,32
 233 33 233 33 233 15 c 0,33,34
 233 -2 233 -2 198 -2 c 0,35,36
 188 -2 188 -2 156.5 1 c 128,-1,37
 125 4 125 4 116 4 c 0,38,39
 102 4 102 4 80.5 1 c 128,-1,40
 59 -2 59 -2 53 -2 c 0,41,42
 20 -2 20 -2 20 15 c 0,43,44
 20 22 20 22 28 26.5 c 128,-1,45
 36 31 36 31 52.5 36.5 c 128,-1,46
 69 42 69 42 75 45 c 0,47,48
 80 47 80 47 84 49 c 128,-1,49
 88 51 88 51 91 53 c 128,-1,50
 94 55 94 55 97 57.5 c 128,-1,51
 100 60 100 60 101.5 61 c 128,-1,52
 103 62 103 62 105 66 c 128,-1,53
 107 70 107 70 108 71 c 128,-1,54
 109 72 109 72 111.5 77.5 c 128,-1,55
 114 83 114 83 114.5 85 c 128,-1,56
 115 87 115 87 118 94.5 c 128,-1,57
 121 102 121 102 122 106 c 2,58,-1
 275 529 l 2,59,60
 279 540 279 540 283 551 c 128,-1,61
 287 562 287 562 289 567.5 c 128,-1,62
 291 573 291 573 293 577.5 c 128,-1,63
 295 582 295 582 297.5 584 c 128,-1,64
 300 586 300 586 303 586 c 0,65,66
 314 587 314 587 329 601.5 c 128,-1,67
 344 616 344 616 346 616 c 0,68,69
 351 616 351 616 355 612.5 c 128,-1,70
 359 609 359 609 362.5 601.5 c 128,-1,71
 366 594 366 594 368.5 587 c 128,-1,72
 371 580 371 580 375.5 566 c 128,-1,73
 380 552 380 552 383 544 c 2,74,-1
 515 171 l 2,75,76
 539 105 539 105 554 81.5 c 128,-1,77
 569 58 569 58 604 45 c 0,78,79
 644 31 644 31 644 14 c 0,80,81
 644 -2 644 -2 615 -2 c 0,82,83
 605 -2 605 -2 573 1 c 128,-1,84
 541 4 541 4 523 4 c 0,11,12
EndSplineSet
Validated: 33
Substitution2: "'c2sc' Capitals to Small Capitals lookup 49 subtable" A.sc
Substitution2: "'sups' Superscript lookup 25 subtable" A.sups
Substitution2: "'sinf' Scientific Inferiors lookup 24 subtable" A.sinf
Substitution2: "'ordn' Ordinals lookup 23 subtable" A.ordn
Substitution2: "'subs' Subscript lookup 22 subtable" A.subs
EndChar

StartChar: B
Encoding: 66 66 37
Width: 523
GlyphClass: 2
Flags: W
AnchorPoint: "Anchor-4" 280 -80 basechar 0
AnchorPoint: "Anchor-2" 281 15 basechar 0
AnchorPoint: "Anchor-1" 265 15 basechar 0
AnchorPoint: "Anchor-0" 269 670 basechar 0
LayerCount: 2
Fore
SplineSet
217 103 m 2,0,1
 217 72 217 72 236.5 55.5 c 128,-1,2
 256 39 256 39 271 39 c 0,3,4
 325 39 325 39 356 76.5 c 128,-1,5
 387 114 387 114 387 168 c 0,6,7
 387 232 387 232 354.5 261.5 c 128,-1,8
 322 291 322 291 247 291 c 0,9,10
 217 291 217 291 217 264 c 2,11,-1
 217 103 l 2,0,1
217 528 m 2,12,-1
 217 363 l 2,13,14
 217 335 217 335 247 335 c 0,15,16
 294 335 294 335 332 368 c 128,-1,17
 370 401 370 401 370 446 c 0,18,19
 370 497 370 497 339 526 c 128,-1,20
 308 555 308 555 263 555 c 0,21,22
 234 555 234 555 225.5 549.5 c 128,-1,23
 217 544 217 544 217 528 c 2,12,-1
169 591 m 2,24,25
 178 591 178 591 224 593.5 c 128,-1,26
 270 596 270 596 295 596 c 0,27,28
 358 596 358 596 407 564.5 c 128,-1,29
 456 533 456 533 456 479 c 0,30,31
 456 426 456 426 432 387.5 c 128,-1,32
 408 349 408 349 365 335 c 0,33,34
 360 333 360 333 358 329.5 c 128,-1,35
 356 326 356 326 357.5 323 c 128,-1,36
 359 320 359 320 363 320 c 0,37,38
 422 311 422 311 460 274.5 c 128,-1,39
 498 238 498 238 498 180 c 0,40,41
 498 91 498 91 432 44.5 c 128,-1,42
 366 -2 366 -2 261 -2 c 0,43,44
 250 -2 250 -2 212.5 0.5 c 128,-1,45
 175 3 175 3 166 3 c 0,46,47
 145 3 145 3 118.5 2 c 128,-1,48
 92 1 92 1 73.5 -0.5 c 128,-1,49
 55 -2 55 -2 53 -2 c 0,50,51
 20 1 20 1 20 15 c 0,52,53
 20 22 20 22 28 26.5 c 128,-1,54
 36 31 36 31 52.5 36.5 c 128,-1,55
 69 42 69 42 75 45 c 0,56,57
 122 66 122 66 122 129 c 2,58,-1
 122 482 l 2,59,60
 122 491 122 491 121.5 498.5 c 128,-1,61
 121 506 121 506 118 512.5 c 128,-1,62
 115 519 115 519 113.5 523 c 128,-1,63
 112 527 112 527 106 531 c 128,-1,64
 100 535 100 535 98 537 c 128,-1,65
 96 539 96 539 86.5 542.5 c 128,-1,66
 77 546 77 546 73.5 547 c 128,-1,67
 70 548 70 548 57.5 551.5 c 128,-1,68
 45 555 45 555 40 556 c 0,69,70
 24 561 24 561 24 573 c 0,71,72
 24 591 24 591 59 591 c 2,73,-1
 169 591 l 2,24,25
EndSplineSet
Validated: 1
Substitution2: "'c2sc' Capitals to Small Capitals lookup 49 subtable" B.sc
Substitution2: "'sups' Superscript lookup 25 subtable" B.sups
Substitution2: "'sinf' Scientific Inferiors lookup 24 subtable" B.sinf
Substitution2: "'ordn' Ordinals lookup 23 subtable" B.ordn
Substitution2: "'subs' Subscript lookup 22 subtable" B.subs
EndChar

StartChar: C
Encoding: 67 67 38
Width: 677
GlyphClass: 2
Flags: W
AnchorPoint: "Anchor-4" 400 -80 basechar 0
AnchorPoint: "Anchor-2" 427 15 basechar 0
AnchorPoint: "Anchor-0" 404 670 basechar 0
LayerCount: 2
Fore
SplineSet
408 608 m 0,0,1
 454 608 454 608 525 588 c 128,-1,2
 596 568 596 568 597 568 c 0,3,4
 627 565 627 565 627 458 c 0,5,6
 627 430 627 430 609 430 c 0,7,8
 588 430 588 430 569 493 c 0,9,10
 559 524 559 524 502.5 543.5 c 128,-1,11
 446 563 446 563 388 563 c 0,12,13
 291 563 291 563 224.5 491.5 c 128,-1,14
 158 420 158 420 158 317 c 0,15,16
 158 199 158 199 235.5 113.5 c 128,-1,17
 313 28 313 28 430 28 c 0,18,19
 459 28 459 28 481 34.5 c 128,-1,20
 503 41 503 41 521.5 58.5 c 128,-1,21
 540 76 540 76 550 88.5 c 128,-1,22
 560 101 560 101 579 130.5 c 128,-1,23
 598 160 598 160 607 173 c 0,24,25
 612 181 612 181 625 181 c 0,26,27
 641 181 641 181 641 153 c 0,28,29
 641 142 641 142 601 58 c 0,30,31
 589 32 589 32 581 24 c 128,-1,32
 573 16 573 16 555 9 c 0,33,34
 484 -16 484 -16 389 -16 c 0,35,36
 303 -16 303 -16 225.5 19 c 128,-1,37
 148 54 148 54 97 122 c 128,-1,38
 46 190 46 190 46 275 c 0,39,40
 46 420 46 420 151.5 514 c 128,-1,41
 257 608 257 608 408 608 c 0,0,1
EndSplineSet
Validated: 1048577
Substitution2: "'c2sc' Capitals to Small Capitals lookup 49 subtable" C.sc
Substitution2: "'sups' Superscript lookup 25 subtable" C.sups
Substitution2: "'sinf' Scientific Inferiors lookup 24 subtable" C.sinf
Substitution2: "'ordn' Ordinals lookup 23 subtable" C.ordn
Substitution2: "'subs' Subscript lookup 22 subtable" C.subs
EndChar

StartChar: D
Encoding: 68 68 39
Width: 716
GlyphClass: 2
Flags: W
AnchorPoint: "Anchor-4" 364 -80 basechar 0
AnchorPoint: "Anchor-2" 360 15 basechar 0
AnchorPoint: "Anchor-1" 394 15 basechar 0
AnchorPoint: "Anchor-0" 346 670 basechar 0
LayerCount: 2
Fore
SplineSet
217 521 m 2,0,-1
 217 167 l 2,1,2
 217 94 217 94 259.5 66 c 128,-1,3
 302 38 302 38 377 38 c 0,4,5
 461 38 461 38 510 117 c 128,-1,6
 559 196 559 196 559 299 c 0,7,8
 559 408 559 408 485 480.5 c 128,-1,9
 411 553 411 553 304 553 c 0,10,11
 269 553 269 553 243 544.5 c 128,-1,12
 217 536 217 536 217 521 c 2,0,-1
337 598 m 0,13,14
 422 598 422 598 497.5 564.5 c 128,-1,15
 573 531 573 531 622 466 c 128,-1,16
 671 401 671 401 671 319 c 0,17,18
 671 253 671 253 652 195 c 128,-1,19
 633 137 633 137 596 91.5 c 128,-1,20
 559 46 559 46 498 19.5 c 128,-1,21
 437 -7 437 -7 359 -7 c 0,22,23
 305 -7 305 -7 243.5 -1.5 c 128,-1,24
 182 4 182 4 165 4 c 0,25,26
 145 4 145 4 118.5 2.5 c 128,-1,27
 92 1 92 1 73.5 -0.5 c 128,-1,28
 55 -2 55 -2 53 -2 c 0,29,30
 20 1 20 1 20 15 c 0,31,32
 20 22 20 22 28 26.5 c 128,-1,33
 36 31 36 31 52.5 36.5 c 128,-1,34
 69 42 69 42 75 45 c 0,35,36
 122 66 122 66 122 129 c 2,37,-1
 122 482 l 2,38,39
 122 493 122 493 120.5 501 c 128,-1,40
 119 509 119 509 117.5 515 c 128,-1,41
 116 521 116 521 110.5 526 c 128,-1,42
 105 531 105 531 102.5 534 c 128,-1,43
 100 537 100 537 90.5 540.5 c 128,-1,44
 81 544 81 544 77 545.5 c 128,-1,45
 73 547 73 547 59.5 550.5 c 128,-1,46
 46 554 46 554 40 556 c 0,47,48
 24 561 24 561 24 573 c 0,49,50
 24 591 24 591 59 591 c 0,51,52
 75 591 75 591 99.5 590.5 c 128,-1,53
 124 590 124 590 139 590 c 0,54,55
 170 590 170 590 238 594 c 128,-1,56
 306 598 306 598 337 598 c 0,13,14
EndSplineSet
Validated: 1
Substitution2: "'c2sc' Capitals to Small Capitals lookup 49 subtable" D.sc
Substitution2: "'sups' Superscript lookup 25 subtable" D.sups
Substitution2: "'sinf' Scientific Inferiors lookup 24 subtable" D.sinf
Substitution2: "'ordn' Ordinals lookup 23 subtable" D.ordn
Substitution2: "'subs' Subscript lookup 22 subtable" D.subs
EndChar

StartChar: E
Encoding: 69 69 40
Width: 569
GlyphClass: 2
Flags: W
AnchorPoint: "Anchor-4" 308 -80 basechar 0
AnchorPoint: "Anchor-2" 323 15 basechar 0
AnchorPoint: "Anchor-1" 472 15 basechar 0
AnchorPoint: "Anchor-0" 306 670 basechar 0
LayerCount: 2
Fore
SplineSet
217 356 m 2,0,1
 217 325 217 325 240 325 c 2,2,-1
 326 325 l 2,3,4
 341 325 341 325 352.5 329 c 128,-1,5
 364 333 364 333 369.5 337.5 c 128,-1,6
 375 342 375 342 387 353 c 0,7,8
 390 356 390 356 396.5 363.5 c 128,-1,9
 403 371 403 371 408 374.5 c 128,-1,10
 413 378 413 378 418 378 c 0,11,12
 429 378 429 378 429 358 c 0,13,14
 429 355 429 355 427 331.5 c 128,-1,15
 425 308 425 308 425 300 c 128,-1,16
 425 292 425 292 425.5 270 c 128,-1,17
 426 248 426 248 426 243 c 0,18,19
 426 217 426 217 413 217 c 0,20,21
 409 217 409 217 405 220 c 128,-1,22
 401 223 401 223 397.5 228 c 128,-1,23
 394 233 394 233 391.5 237 c 128,-1,24
 389 241 389 241 385.5 247.5 c 128,-1,25
 382 254 382 254 381 255 c 0,26,27
 368 276 368 276 346 276 c 2,28,-1
 241 276 l 2,29,30
 227 276 227 276 222 271 c 128,-1,31
 217 266 217 266 217 252 c 2,32,-1
 217 140 l 2,33,34
 217 98 217 98 234.5 71.5 c 128,-1,35
 252 45 252 45 286 45 c 2,36,-1
 395 45 l 2,37,38
 423 45 423 45 441 49.5 c 128,-1,39
 459 54 459 54 473 69.5 c 128,-1,40
 487 85 487 85 493.5 96.5 c 128,-1,41
 500 108 500 108 514 138 c 0,42,43
 523 157 523 157 541 157 c 0,44,45
 555 157 555 157 555 132 c 0,46,47
 555 113 555 113 540 71.5 c 128,-1,48
 525 30 525 30 517 17 c 0,49,50
 512 8 512 8 510 5 c 128,-1,51
 508 2 508 2 503 0 c 128,-1,52
 498 -2 498 -2 490 -2 c 0,53,54
 480 -2 480 -2 354 0.5 c 128,-1,55
 228 3 228 3 166 3 c 0,56,57
 145 3 145 3 118.5 2 c 128,-1,58
 92 1 92 1 73.5 -0.5 c 128,-1,59
 55 -2 55 -2 53 -2 c 0,60,61
 20 1 20 1 20 15 c 0,62,63
 20 22 20 22 28 26.5 c 128,-1,64
 36 31 36 31 52.5 36.5 c 128,-1,65
 69 42 69 42 75 45 c 0,66,67
 122 66 122 66 122 129 c 2,68,-1
 122 482 l 2,69,70
 122 491 122 491 121.5 498.5 c 128,-1,71
 121 506 121 506 118 512.5 c 128,-1,72
 115 519 115 519 113.5 523 c 128,-1,73
 112 527 112 527 106 531 c 128,-1,74
 100 535 100 535 98 537 c 128,-1,75
 96 539 96 539 86.5 542.5 c 128,-1,76
 77 546 77 546 73.5 547 c 128,-1,77
 70 548 70 548 57.5 551.5 c 128,-1,78
 45 555 45 555 40 556 c 0,79,80
 24 561 24 561 24 573 c 0,81,82
 24 591 24 591 59 591 c 2,83,-1
 346 591 l 2,84,85
 370 591 370 591 414.5 593.5 c 128,-1,86
 459 596 459 596 465 596 c 0,87,88
 488 596 488 596 491 582 c 0,89,90
 500 546 500 546 500 500 c 0,91,92
 500 474 500 474 484 474 c 0,93,94
 465 474 465 474 448 512 c 0,95,96
 432 545 432 545 367 545 c 2,97,-1
 248 545 l 2,98,99
 229 545 229 545 223 540 c 128,-1,100
 217 535 217 535 217 524 c 2,101,-1
 217 356 l 2,0,1
EndSplineSet
Validated: 1
Substitution2: "'c2sc' Capitals to Small Capitals lookup 49 subtable" E.sc
Substitution2: "'sups' Superscript lookup 25 subtable" E.sups
Substitution2: "'sinf' Scientific Inferiors lookup 24 subtable" E.sinf
Substitution2: "'ordn' Ordinals lookup 23 subtable" E.ordn
Substitution2: "'subs' Subscript lookup 22 subtable" E.subs
EndChar

StartChar: F
Encoding: 70 70 41
Width: 489
GlyphClass: 2
Flags: W
AnchorPoint: "Anchor-4" 167 -80 basechar 0
AnchorPoint: "Anchor-2" 172 15 basechar 0
AnchorPoint: "Anchor-0" 287 670 basechar 0
LayerCount: 2
Fore
SplineSet
53 -2 m 0,0,1
 20 1 20 1 20 15 c 0,2,3
 20 22 20 22 28 26.5 c 128,-1,4
 36 31 36 31 52.5 36.5 c 128,-1,5
 69 42 69 42 75 45 c 0,6,7
 122 66 122 66 122 129 c 2,8,-1
 122 482 l 2,9,10
 122 491 122 491 121.5 498.5 c 128,-1,11
 121 506 121 506 118 512.5 c 128,-1,12
 115 519 115 519 113.5 523 c 128,-1,13
 112 527 112 527 106 531 c 128,-1,14
 100 535 100 535 98 537 c 128,-1,15
 96 539 96 539 86.5 542.5 c 128,-1,16
 77 546 77 546 73.5 547 c 128,-1,17
 70 548 70 548 57.5 551.5 c 128,-1,18
 45 555 45 555 40 556 c 0,19,20
 24 561 24 561 24 573 c 0,21,22
 24 591 24 591 59 591 c 2,23,-1
 338 591 l 2,24,25
 362 591 362 591 406.5 593.5 c 128,-1,26
 451 596 451 596 457 596 c 0,27,28
 480 596 480 596 483 582 c 0,29,30
 492 546 492 546 492 500 c 0,31,32
 492 474 492 474 476 474 c 0,33,34
 457 474 457 474 440 512 c 0,35,36
 424 545 424 545 359 545 c 2,37,-1
 248 545 l 2,38,39
 229 545 229 545 223 540 c 128,-1,40
 217 535 217 535 217 524 c 2,41,-1
 216 359 l 2,42,43
 216 328 216 328 239 328 c 2,44,-1
 317 328 l 2,45,46
 332 328 332 328 343.5 332 c 128,-1,47
 355 336 355 336 360.5 340.5 c 128,-1,48
 366 345 366 345 378 356 c 0,49,50
 381 359 381 359 387.5 366.5 c 128,-1,51
 394 374 394 374 399 377.5 c 128,-1,52
 404 381 404 381 409 381 c 0,53,54
 420 381 420 381 420 361 c 0,55,56
 420 358 420 358 418 334.5 c 128,-1,57
 416 311 416 311 416 303 c 128,-1,58
 416 295 416 295 416.5 273 c 128,-1,59
 417 251 417 251 417 246 c 0,60,61
 417 220 417 220 404 220 c 0,62,63
 400 220 400 220 396 223 c 128,-1,64
 392 226 392 226 388.5 231 c 128,-1,65
 385 236 385 236 382.5 240 c 128,-1,66
 380 244 380 244 376.5 250.5 c 128,-1,67
 373 257 373 257 372 258 c 0,68,69
 359 279 359 279 337 279 c 2,70,-1
 240 279 l 2,71,72
 226 279 226 279 221 274 c 128,-1,73
 216 269 216 269 216 255 c 2,74,-1
 217 130 l 2,75,76
 217 66 217 66 264 45 c 0,77,78
 270 42 270 42 286.5 36.5 c 128,-1,79
 303 31 303 31 311 26.5 c 128,-1,80
 319 22 319 22 319 15 c 0,81,82
 319 1 319 1 287 -2 c 0,83,84
 285 -2 285 -2 264.5 -0.5 c 128,-1,85
 244 1 244 1 215.5 2.5 c 128,-1,86
 187 4 187 4 166 4 c 128,-1,87
 145 4 145 4 118.5 2.5 c 128,-1,88
 92 1 92 1 73.5 -0.5 c 128,-1,89
 55 -2 55 -2 53 -2 c 0,0,1
EndSplineSet
Validated: 1048577
Substitution2: "'c2sc' Capitals to Small Capitals lookup 49 subtable" F.sc
Substitution2: "'sups' Superscript lookup 25 subtable" F.sups
Substitution2: "'sinf' Scientific Inferiors lookup 24 subtable" F.sinf
Substitution2: "'ordn' Ordinals lookup 23 subtable" F.ordn
Substitution2: "'subs' Subscript lookup 22 subtable" F.subs
EndChar

StartChar: G
Encoding: 71 71 42
Width: 710
GlyphClass: 2
Flags: W
AnchorPoint: "Anchor-4" 384 -80 basechar 0
AnchorPoint: "Anchor-2" 380 15 basechar 0
AnchorPoint: "Anchor-1" 394 15 basechar 0
AnchorPoint: "Anchor-0" 415 670 basechar 0
LayerCount: 2
Fore
SplineSet
419 608 m 0,0,1
 452 608 452 608 477.5 605 c 128,-1,2
 503 602 503 602 516 598 c 128,-1,3
 529 594 529 594 553 586.5 c 128,-1,4
 577 579 577 579 595 574 c 0,5,6
 604 572 604 572 612 541 c 0,7,8
 624 496 624 496 624 443 c 0,9,10
 624 428 624 428 608 428 c 0,11,12
 596 428 596 428 575 468 c 0,13,14
 525 563 525 563 385 563 c 0,15,16
 288 563 288 563 223 485.5 c 128,-1,17
 158 408 158 408 158 303 c 0,18,19
 158 190 158 190 226 105 c 128,-1,20
 294 20 294 20 399 20 c 0,21,22
 440 20 440 20 484 32.5 c 128,-1,23
 528 45 528 45 528 58 c 2,24,-1
 528 179 l 2,25,26
 528 187 528 187 510 200 c 128,-1,27
 492 213 492 213 474 220 c 0,28,29
 469 222 469 222 462 224.5 c 128,-1,30
 455 227 455 227 451.5 228 c 128,-1,31
 448 229 448 229 443 231 c 128,-1,32
 438 233 438 233 436 234.5 c 128,-1,33
 434 236 434 236 431.5 238.5 c 128,-1,34
 429 241 429 241 428 243.5 c 128,-1,35
 427 246 427 246 427 249 c 0,36,37
 427 265 427 265 448 265 c 0,38,39
 460 265 460 265 512.5 263 c 128,-1,40
 565 261 565 261 583 261 c 0,41,42
 600 261 600 261 629 263 c 128,-1,43
 658 265 658 265 670 265 c 0,44,45
 690 265 690 265 690 245 c 0,46,47
 690 240 690 240 682.5 233 c 128,-1,48
 675 226 675 226 666 222 c 0,49,50
 654 217 654 217 637.5 203 c 128,-1,51
 621 189 621 189 621 181 c 2,52,-1
 621 76 l 2,53,54
 621 63 621 63 634.5 48.5 c 128,-1,55
 648 34 648 34 648 31 c 0,56,57
 648 14 648 14 542 -5 c 128,-1,58
 436 -24 436 -24 356 -24 c 0,59,60
 235 -24 235 -24 140.5 63 c 128,-1,61
 46 150 46 150 46 268 c 0,62,63
 46 415 46 415 155 511.5 c 128,-1,64
 264 608 264 608 419 608 c 0,0,1
EndSplineSet
Validated: 1
Substitution2: "'c2sc' Capitals to Small Capitals lookup 49 subtable" G.sc
Substitution2: "'sups' Superscript lookup 25 subtable" G.sups
Substitution2: "'sinf' Scientific Inferiors lookup 24 subtable" G.sinf
Substitution2: "'ordn' Ordinals lookup 23 subtable" G.ordn
Substitution2: "'subs' Subscript lookup 22 subtable" G.subs
EndChar

StartChar: H
Encoding: 72 72 43
Width: 725
GlyphClass: 2
Flags: W
AnchorPoint: "Anchor-4" 362 -80 basechar 0
AnchorPoint: "Anchor-2" 180 15 basechar 0
AnchorPoint: "Anchor-1" 567 15 basechar 0
AnchorPoint: "Anchor-0" 362 670 basechar 0
LayerCount: 2
Fore
SplineSet
217 266 m 2,0,-1
 217 129 l 2,1,2
 217 95 217 95 224 75 c 128,-1,3
 231 55 231 55 254 45 c 0,4,5
 260 42 260 42 276.5 36.5 c 128,-1,6
 293 31 293 31 301 26.5 c 128,-1,7
 309 22 309 22 309 15 c 0,8,9
 309 1 309 1 277 -2 c 0,10,11
 275 -2 275 -2 257 -0.5 c 128,-1,12
 239 1 239 1 213 2.5 c 128,-1,13
 187 4 187 4 166 4 c 128,-1,14
 145 4 145 4 118.5 2.5 c 128,-1,15
 92 1 92 1 73.5 -0.5 c 128,-1,16
 55 -2 55 -2 53 -2 c 0,17,18
 20 1 20 1 20 15 c 0,19,20
 20 22 20 22 28 26.5 c 128,-1,21
 36 31 36 31 52.5 36.5 c 128,-1,22
 69 42 69 42 75 45 c 0,23,24
 122 66 122 66 122 129 c 2,25,-1
 122 482 l 2,26,27
 122 491 122 491 121.5 498.5 c 128,-1,28
 121 506 121 506 118 512.5 c 128,-1,29
 115 519 115 519 113.5 523 c 128,-1,30
 112 527 112 527 106 531 c 128,-1,31
 100 535 100 535 98 537 c 128,-1,32
 96 539 96 539 86.5 542.5 c 128,-1,33
 77 546 77 546 73.5 547 c 128,-1,34
 70 548 70 548 57.5 551.5 c 128,-1,35
 45 555 45 555 40 556 c 0,36,37
 24 561 24 561 24 573 c 0,38,39
 24 581 24 581 35 586 c 128,-1,40
 46 591 46 591 59 591 c 0,41,42
 79 591 79 591 115.5 588.5 c 128,-1,43
 152 586 152 586 170 586 c 128,-1,44
 188 586 188 586 220.5 588.5 c 128,-1,45
 253 591 253 591 270 591 c 0,46,47
 283 591 283 591 294 586 c 128,-1,48
 305 581 305 581 305 573 c 0,49,50
 305 561 305 561 290 556 c 0,51,52
 240 542 240 542 230 533 c 0,53,54
 217 520 217 520 217 482 c 2,55,-1
 217 334 l 2,56,57
 217 323 217 323 230 323 c 2,58,-1
 495 323 l 2,59,60
 508 323 508 323 508 336 c 2,61,-1
 508 482 l 2,62,63
 508 522 508 522 496 532.5 c 128,-1,64
 484 543 484 543 436 556 c 0,65,66
 420 561 420 561 420 573 c 0,67,68
 420 581 420 581 431 586 c 128,-1,69
 442 591 442 591 455 591 c 0,70,71
 475 591 475 591 506.5 588.5 c 128,-1,72
 538 586 538 586 556 586 c 128,-1,73
 574 586 574 586 611.5 588.5 c 128,-1,74
 649 591 649 591 666 591 c 0,75,76
 679 591 679 591 690 586 c 128,-1,77
 701 581 701 581 701 573 c 0,78,79
 701 561 701 561 686 556 c 0,80,81
 681 555 681 555 668.5 551.5 c 128,-1,82
 656 548 656 548 652.5 547 c 128,-1,83
 649 546 649 546 639.5 542.5 c 128,-1,84
 630 539 630 539 627.5 537 c 128,-1,85
 625 535 625 535 619 531 c 128,-1,86
 613 527 613 527 611.5 523 c 128,-1,87
 610 519 610 519 607 512.5 c 128,-1,88
 604 506 604 506 603.5 498.5 c 128,-1,89
 603 491 603 491 603 482 c 2,90,-1
 603 129 l 2,91,92
 603 66 603 66 650 45 c 0,93,94
 656 42 656 42 672.5 36.5 c 128,-1,95
 689 31 689 31 697 26.5 c 128,-1,96
 705 22 705 22 705 15 c 0,97,98
 705 1 705 1 673 -2 c 0,99,100
 671 -2 671 -2 650.5 -0.5 c 128,-1,101
 630 1 630 1 601.5 2.5 c 128,-1,102
 573 4 573 4 552 4 c 128,-1,103
 531 4 531 4 507 2.5 c 128,-1,104
 483 1 483 1 467 -0.5 c 128,-1,105
 451 -2 451 -2 449 -2 c 0,106,107
 416 1 416 1 416 15 c 0,108,109
 416 22 416 22 424 26.5 c 128,-1,110
 432 31 432 31 448.5 36.5 c 128,-1,111
 465 42 465 42 471 45 c 0,112,113
 494 55 494 55 501 75 c 128,-1,114
 508 95 508 95 508 129 c 2,115,-1
 508 264 l 2,116,117
 508 275 508 275 494 275 c 2,118,-1
 232 275 l 2,119,120
 231 275 231 275 230 275 c 0,121,122
 217 275 217 275 217 266 c 2,0,-1
EndSplineSet
Validated: 1
Substitution2: "'c2sc' Capitals to Small Capitals lookup 49 subtable" H.sc
Substitution2: "'sups' Superscript lookup 25 subtable" H.sups
Substitution2: "'sinf' Scientific Inferiors lookup 24 subtable" H.sinf
Substitution2: "'ordn' Ordinals lookup 23 subtable" H.ordn
Substitution2: "'subs' Subscript lookup 22 subtable" H.subs
EndChar

StartChar: I
Encoding: 73 73 44
Width: 339
GlyphClass: 2
Flags: W
AnchorPoint: "Anchor-4" 170 -80 basechar 0
AnchorPoint: "Anchor-2" 183 15 basechar 0
AnchorPoint: "Anchor-1" 205 15 basechar 0
AnchorPoint: "Anchor-0" 170 670 basechar 0
LayerCount: 2
Fore
SplineSet
280 591 m 0,0,1
 293 591 293 591 304 586 c 128,-1,2
 315 581 315 581 315 573 c 0,3,4
 315 561 315 561 300 556 c 0,5,6
 295 555 295 555 282.5 551.5 c 128,-1,7
 270 548 270 548 266.5 547 c 128,-1,8
 263 546 263 546 253.5 542.5 c 128,-1,9
 244 539 244 539 241.5 537 c 128,-1,10
 239 535 239 535 233 531 c 128,-1,11
 227 527 227 527 225.5 523 c 128,-1,12
 224 519 224 519 221 512.5 c 128,-1,13
 218 506 218 506 217.5 498.5 c 128,-1,14
 217 491 217 491 217 482 c 2,15,-1
 217 129 l 2,16,17
 217 66 217 66 264 45 c 0,18,19
 270 42 270 42 286.5 36.5 c 128,-1,20
 303 31 303 31 311 26.5 c 128,-1,21
 319 22 319 22 319 15 c 0,22,23
 319 1 319 1 287 -2 c 0,24,25
 285 -2 285 -2 264.5 -0.5 c 128,-1,26
 244 1 244 1 215.5 2.5 c 128,-1,27
 187 4 187 4 166 4 c 128,-1,28
 145 4 145 4 118.5 2.5 c 128,-1,29
 92 1 92 1 73.5 -0.5 c 128,-1,30
 55 -2 55 -2 53 -2 c 0,31,32
 20 1 20 1 20 15 c 0,33,34
 20 22 20 22 28 26.5 c 128,-1,35
 36 31 36 31 52.5 36.5 c 128,-1,36
 69 42 69 42 75 45 c 0,37,38
 122 66 122 66 122 129 c 2,39,-1
 122 482 l 2,40,41
 122 491 122 491 121.5 498.5 c 128,-1,42
 121 506 121 506 118 512.5 c 128,-1,43
 115 519 115 519 113.5 523 c 128,-1,44
 112 527 112 527 106 531 c 128,-1,45
 100 535 100 535 98 537 c 128,-1,46
 96 539 96 539 86.5 542.5 c 128,-1,47
 77 546 77 546 73.5 547 c 128,-1,48
 70 548 70 548 57.5 551.5 c 128,-1,49
 45 555 45 555 40 556 c 0,50,51
 24 561 24 561 24 573 c 0,52,53
 24 581 24 581 35 586 c 128,-1,54
 46 591 46 591 59 591 c 0,55,56
 79 591 79 591 115.5 588.5 c 128,-1,57
 152 586 152 586 170 586 c 128,-1,58
 188 586 188 586 225.5 588.5 c 128,-1,59
 263 591 263 591 280 591 c 0,0,1
EndSplineSet
Validated: 1
Substitution2: "'c2sc' Capitals to Small Capitals lookup 49 subtable" I.sc
Substitution2: "'sups' Superscript lookup 25 subtable" I.sups
Substitution2: "'sinf' Scientific Inferiors lookup 24 subtable" I.sinf
Substitution2: "'ordn' Ordinals lookup 23 subtable" I.ordn
Substitution2: "'subs' Subscript lookup 22 subtable" I.subs
EndChar

StartChar: J
Encoding: 74 74 45
Width: 314
GlyphClass: 2
Flags: W
AnchorPoint: "Anchor-0" 171 670 basechar 0
LayerCount: 2
Fore
SplineSet
217 481 m 2,0,-1
 217 140 l 2,1,2
 217 65 217 65 212.5 14.5 c 128,-1,3
 208 -36 208 -36 198 -65 c 128,-1,4
 188 -94 188 -94 180 -106.5 c 128,-1,5
 172 -119 172 -119 157 -136 c 0,6,7
 105 -193 105 -193 25 -193 c 0,8,9
 -20 -193 -20 -193 -44.5 -177 c 128,-1,10
 -69 -161 -69 -161 -69 -143 c 0,11,12
 -69 -123 -69 -123 -57.5 -105 c 128,-1,13
 -46 -87 -46 -87 -33 -87 c 0,14,15
 0 -87 0 -87 17 -113 c 0,16,17
 42 -151 42 -151 64 -151 c 0,18,19
 97 -151 97 -151 109.5 -112 c 128,-1,20
 122 -73 122 -73 122 6 c 2,21,-1
 122 481 l 2,22,23
 122 491 122 491 121.5 498.5 c 128,-1,24
 121 506 121 506 118 512 c 128,-1,25
 115 518 115 518 113.5 522.5 c 128,-1,26
 112 527 112 527 106 531 c 128,-1,27
 100 535 100 535 98 537 c 128,-1,28
 96 539 96 539 86.5 542.5 c 128,-1,29
 77 546 77 546 74 547 c 128,-1,30
 71 548 71 548 57.5 551.5 c 128,-1,31
 44 555 44 555 40 556 c 0,32,33
 24 561 24 561 24 573 c 0,34,35
 24 581 24 581 35 586 c 128,-1,36
 46 591 46 591 59 591 c 0,37,38
 79 591 79 591 115.5 588.5 c 128,-1,39
 152 586 152 586 170 586 c 128,-1,40
 188 586 188 586 225.5 588.5 c 128,-1,41
 263 591 263 591 280 591 c 0,42,43
 293 591 293 591 304 586 c 128,-1,44
 315 581 315 581 315 573 c 0,45,46
 315 561 315 561 300 556 c 0,47,48
 295 555 295 555 282.5 551.5 c 128,-1,49
 270 548 270 548 266.5 547 c 128,-1,50
 263 546 263 546 253.5 542.5 c 128,-1,51
 244 539 244 539 241.5 537 c 128,-1,52
 239 535 239 535 233 531 c 128,-1,53
 227 527 227 527 225.5 522.5 c 128,-1,54
 224 518 224 518 221 512 c 128,-1,55
 218 506 218 506 217.5 498.5 c 128,-1,56
 217 491 217 491 217 481 c 2,0,-1
EndSplineSet
Validated: 1
Substitution2: "'c2sc' Capitals to Small Capitals lookup 49 subtable" J.sc
Substitution2: "'cv03' Character Variants 03 lookup 42 subtable" J.hist
Substitution2: "'sups' Superscript lookup 25 subtable" J.sups
Substitution2: "'sinf' Scientific Inferiors lookup 24 subtable" J.sinf
Substitution2: "'ordn' Ordinals lookup 23 subtable" J.ordn
Substitution2: "'subs' Subscript lookup 22 subtable" J.subs
EndChar

StartChar: K
Encoding: 75 75 46
Width: 628
GlyphClass: 2
Flags: W
AnchorPoint: "Anchor-4" 389 -80 basechar 0
AnchorPoint: "Anchor-2" 180 15 basechar 0
AnchorPoint: "Anchor-0" 346 670 basechar 0
LayerCount: 2
Fore
SplineSet
394 555 m 0,0,1
 377 560 377 560 377 573 c 0,2,3
 377 581 377 581 388 586 c 128,-1,4
 399 591 399 591 412 591 c 0,5,6
 419 591 419 591 447.5 588.5 c 128,-1,7
 476 586 476 586 484 586 c 128,-1,8
 492 586 492 586 516 588.5 c 128,-1,9
 540 591 540 591 548 591 c 0,10,11
 561 591 561 591 572 586 c 128,-1,12
 583 581 583 581 583 573 c 0,13,14
 583 562 583 562 566 556 c 0,15,16
 474 525 474 525 427 467 c 1,17,-1
 382 421 l 2,18,19
 325 362 325 362 325 333 c 0,20,21
 325 322 325 322 332.5 309 c 128,-1,22
 340 296 340 296 367 260 c 0,23,24
 408 203 408 203 433.5 176.5 c 128,-1,25
 459 150 459 150 516 102 c 0,26,27
 537 85 537 85 568.5 68.5 c 128,-1,28
 600 52 600 52 618 52 c 0,29,30
 627 52 627 52 635 45 c 128,-1,31
 643 38 643 38 643 34 c 0,32,33
 643 20 643 20 624.5 6 c 128,-1,34
 606 -8 606 -8 577 -8 c 0,35,36
 506 -8 506 -8 433 47 c 0,37,38
 378 88 378 88 298 201 c 0,39,40
 284 221 284 221 266 239.5 c 128,-1,41
 248 258 248 258 239 258 c 0,42,43
 228 258 228 258 222.5 240.5 c 128,-1,44
 217 223 217 223 217 205 c 2,45,-1
 217 129 l 2,46,47
 217 66 217 66 264 45 c 0,48,49
 270 42 270 42 286.5 36.5 c 128,-1,50
 303 31 303 31 311 26.5 c 128,-1,51
 319 22 319 22 319 15 c 0,52,53
 319 1 319 1 287 -2 c 0,54,55
 285 -2 285 -2 264.5 -0.5 c 128,-1,56
 244 1 244 1 215.5 2.5 c 128,-1,57
 187 4 187 4 166 4 c 128,-1,58
 145 4 145 4 118.5 2.5 c 128,-1,59
 92 1 92 1 73.5 -0.5 c 128,-1,60
 55 -2 55 -2 53 -2 c 0,61,62
 20 1 20 1 20 15 c 0,63,64
 20 22 20 22 28 26.5 c 128,-1,65
 36 31 36 31 52.5 36.5 c 128,-1,66
 69 42 69 42 75 45 c 0,67,68
 122 66 122 66 122 129 c 2,69,-1
 122 482 l 2,70,71
 122 491 122 491 121.5 498.5 c 128,-1,72
 121 506 121 506 118 512.5 c 128,-1,73
 115 519 115 519 113.5 523 c 128,-1,74
 112 527 112 527 106 531 c 128,-1,75
 100 535 100 535 98 537 c 128,-1,76
 96 539 96 539 86.5 542.5 c 128,-1,77
 77 546 77 546 73.5 547 c 128,-1,78
 70 548 70 548 57.5 551.5 c 128,-1,79
 45 555 45 555 40 556 c 0,80,81
 24 561 24 561 24 573 c 0,82,83
 24 581 24 581 35 586 c 128,-1,84
 46 591 46 591 59 591 c 0,85,86
 79 591 79 591 115.5 588.5 c 128,-1,87
 152 586 152 586 170 586 c 128,-1,88
 188 586 188 586 225.5 588.5 c 128,-1,89
 263 591 263 591 280 591 c 0,90,91
 293 591 293 591 304 586 c 128,-1,92
 315 581 315 581 315 573 c 0,93,94
 315 561 315 561 300 556 c 0,95,96
 295 555 295 555 282.5 551.5 c 128,-1,97
 270 548 270 548 266.5 547 c 128,-1,98
 263 546 263 546 253.5 542.5 c 128,-1,99
 244 539 244 539 241.5 537 c 128,-1,100
 239 535 239 535 233 531 c 128,-1,101
 227 527 227 527 225.5 523 c 128,-1,102
 224 519 224 519 221 512.5 c 128,-1,103
 218 506 218 506 217.5 498.5 c 128,-1,104
 217 491 217 491 217 482 c 2,105,-1
 217 352 l 2,106,107
 217 339 217 339 221 335 c 128,-1,108
 225 331 225 331 235 331 c 0,109,110
 248 331 248 331 282 374 c 2,111,-1
 394 513 l 2,112,113
 421 546 421 546 394 555 c 0,0,1
EndSplineSet
Validated: 1048609
Substitution2: "'c2sc' Capitals to Small Capitals lookup 49 subtable" K.sc
Substitution2: "'sups' Superscript lookup 25 subtable" K.sups
Substitution2: "'sinf' Scientific Inferiors lookup 24 subtable" K.sinf
Substitution2: "'ordn' Ordinals lookup 23 subtable" K.ordn
Substitution2: "'subs' Subscript lookup 22 subtable" K.subs
EndChar

StartChar: L
Encoding: 76 76 47
Width: 591
GlyphClass: 2
Flags: W
AnchorPoint: "Anchor-4" 308 -80 basechar 0
AnchorPoint: "Anchor-3" 480 546 basechar 0
AnchorPoint: "Anchor-2" 353 15 basechar 0
AnchorPoint: "Anchor-1" 458 15 basechar 0
AnchorPoint: "Anchor-0" 169 670 basechar 0
LayerCount: 2
Fore
SplineSet
217 139 m 2,0,1
 217 98 217 98 234.5 71.5 c 128,-1,2
 252 45 252 45 286 45 c 2,3,-1
 395 45 l 2,4,5
 414 45 414 45 429 50.5 c 128,-1,6
 444 56 444 56 453.5 62.5 c 128,-1,7
 463 69 463 69 473 83.5 c 128,-1,8
 483 98 483 98 487.5 107 c 128,-1,9
 492 116 492 116 501 136.5 c 128,-1,10
 510 157 510 157 514 166 c 0,11,12
 523 185 523 185 541 185 c 128,-1,13
 559 185 559 185 559 138 c 0,14,15
 559 119 559 119 546 73.5 c 128,-1,16
 533 28 533 28 526 17 c 0,17,18
 520 5 520 5 515 1.5 c 128,-1,19
 510 -2 510 -2 498 -2 c 0,20,21
 488 -2 488 -2 358 0.5 c 128,-1,22
 228 3 228 3 166 3 c 0,23,24
 145 3 145 3 118.5 2 c 128,-1,25
 92 1 92 1 73.5 -0.5 c 128,-1,26
 55 -2 55 -2 53 -2 c 0,27,28
 20 1 20 1 20 15 c 0,29,30
 20 22 20 22 28 26.5 c 128,-1,31
 36 31 36 31 52.5 36.5 c 128,-1,32
 69 42 69 42 75 45 c 0,33,34
 122 66 122 66 122 129 c 2,35,-1
 122 482 l 2,36,37
 122 491 122 491 121.5 498.5 c 128,-1,38
 121 506 121 506 118 512.5 c 128,-1,39
 115 519 115 519 113.5 523 c 128,-1,40
 112 527 112 527 106 531 c 128,-1,41
 100 535 100 535 98 537 c 128,-1,42
 96 539 96 539 86.5 542.5 c 128,-1,43
 77 546 77 546 73.5 547 c 128,-1,44
 70 548 70 548 57.5 551.5 c 128,-1,45
 45 555 45 555 40 556 c 0,46,47
 24 561 24 561 24 573 c 0,48,49
 24 591 24 591 60 591 c 0,50,51
 80 591 80 591 116.5 588.5 c 128,-1,52
 153 586 153 586 171 586 c 128,-1,53
 189 586 189 586 226.5 588.5 c 128,-1,54
 264 591 264 591 281 591 c 0,55,56
 294 591 294 591 305 586 c 128,-1,57
 316 581 316 581 316 573 c 0,58,59
 316 561 316 561 301 556 c 0,60,61
 296 554 296 554 283.5 551 c 128,-1,62
 271 548 271 548 267 546.5 c 128,-1,63
 263 545 263 545 254 542 c 128,-1,64
 245 539 245 539 242 537 c 128,-1,65
 239 535 239 535 233.5 531 c 128,-1,66
 228 527 228 527 226 523 c 128,-1,67
 224 519 224 519 221 512.5 c 128,-1,68
 218 506 218 506 217.5 498.5 c 128,-1,69
 217 491 217 491 217 482 c 2,70,-1
 217 139 l 2,0,1
EndSplineSet
Validated: 1
Substitution2: "'c2sc' Capitals to Small Capitals lookup 49 subtable" L.sc
Substitution2: "'sups' Superscript lookup 25 subtable" L.sups
Substitution2: "'sinf' Scientific Inferiors lookup 24 subtable" L.sinf
Substitution2: "'ordn' Ordinals lookup 23 subtable" L.ordn
Substitution2: "'subs' Subscript lookup 22 subtable" L.subs
Substitution2: "'locl' Localized Forms in Latin lookup 2 subtable" L.CAT
EndChar

StartChar: M
Encoding: 77 77 48
Width: 813
GlyphClass: 2
Flags: W
AnchorPoint: "Anchor-4" 402 -80 basechar 0
AnchorPoint: "Anchor-2" 130 15 basechar 0
AnchorPoint: "Anchor-0" 406 670 basechar 0
LayerCount: 2
Fore
SplineSet
711 129 m 2,0,1
 715 64 715 64 758 45 c 0,2,3
 764 42 764 42 780.5 36.5 c 128,-1,4
 797 31 797 31 805 26.5 c 128,-1,5
 813 22 813 22 813 15 c 0,6,7
 813 1 813 1 781 -2 c 0,8,9
 779 -2 779 -2 758.5 -0.5 c 128,-1,10
 738 1 738 1 709.5 2.5 c 128,-1,11
 681 4 681 4 660 4 c 128,-1,12
 639 4 639 4 612.5 2.5 c 128,-1,13
 586 1 586 1 567.5 -0.5 c 128,-1,14
 549 -2 549 -2 547 -2 c 0,15,16
 514 1 514 1 514 15 c 0,17,18
 514 22 514 22 522 26.5 c 128,-1,19
 530 31 530 31 546.5 36.5 c 128,-1,20
 563 42 563 42 569 45 c 0,21,22
 619 67 619 67 616 129 c 2,23,-1
 608 322 l 2,24,25
 602 419 602 419 588 419 c 0,26,27
 581 419 581 419 576.5 416.5 c 128,-1,28
 572 414 572 414 560 395.5 c 128,-1,29
 548 377 548 377 533 340 c 2,30,-1
 442 131 l 2,31,32
 434 113 434 113 413.5 74.5 c 128,-1,33
 393 36 393 36 387 36 c 0,34,35
 379 36 379 36 371 48 c 128,-1,36
 363 60 363 60 348 98 c 2,37,-1
 249 352 l 2,38,39
 224 416 224 416 214 416 c 0,40,41
 207 416 207 416 206 416 c 128,-1,42
 205 416 205 416 201.5 400 c 128,-1,43
 198 384 198 384 196 346 c 2,44,-1
 183 133 l 2,45,46
 181 108 181 108 188.5 80.5 c 128,-1,47
 196 53 196 53 214 45 c 0,48,49
 220 42 220 42 236.5 36.5 c 128,-1,50
 253 31 253 31 261 26.5 c 128,-1,51
 269 22 269 22 269 15 c 0,52,53
 269 1 269 1 237 -2 c 0,54,55
 235 -2 235 -2 220 -0.5 c 128,-1,56
 205 1 205 1 182 2.5 c 128,-1,57
 159 4 159 4 138 4 c 128,-1,58
 117 4 117 4 96 2.5 c 128,-1,59
 75 1 75 1 61.5 -0.5 c 128,-1,60
 48 -2 48 -2 46 -2 c 0,61,62
 13 1 13 1 13 15 c 0,63,64
 13 22 13 22 20.5 26.5 c 128,-1,65
 28 31 28 31 45 36.5 c 128,-1,66
 62 42 62 42 68 45 c 0,67,68
 114 65 114 65 126 150 c 2,69,-1
 160 416 l 2,70,71
 166 465 166 465 158 487 c 128,-1,72
 150 509 150 509 128 529 c 0,73,74
 122 535 122 535 107 544.5 c 128,-1,75
 92 554 92 554 83 562 c 128,-1,76
 74 570 74 570 74 577 c 0,77,78
 74 591 74 591 108 591 c 0,79,80
 125 591 125 591 160 588.5 c 128,-1,81
 195 586 195 586 219 586 c 0,82,83
 239 586 239 586 253.5 571.5 c 128,-1,84
 268 557 268 557 282 523 c 2,85,-1
 392 253 l 2,86,87
 394 248 394 248 403.5 242 c 128,-1,88
 413 236 413 236 417 236 c 0,89,90
 431 236 431 236 446 270 c 2,91,-1
 587 563 l 2,92,93
 595 579 595 579 605 582.5 c 128,-1,94
 615 586 615 586 638 586 c 0,95,96
 650 586 650 586 699 591 c 128,-1,97
 748 596 748 596 765 596 c 0,98,99
 781 596 781 596 781 579 c 0,100,101
 781 572 781 572 773.5 567.5 c 128,-1,102
 766 563 766 563 733 549 c 0,103,104
 709 539 709 539 700.5 520 c 128,-1,105
 692 501 692 501 694 459 c 2,106,-1
 711 129 l 2,0,1
EndSplineSet
Validated: 1048609
Substitution2: "'c2sc' Capitals to Small Capitals lookup 49 subtable" M.sc
Substitution2: "'sups' Superscript lookup 25 subtable" M.sups
Substitution2: "'sinf' Scientific Inferiors lookup 24 subtable" M.sinf
Substitution2: "'ordn' Ordinals lookup 23 subtable" M.ordn
Substitution2: "'subs' Subscript lookup 22 subtable" M.subs
EndChar

StartChar: N
Encoding: 78 78 49
Width: 685
GlyphClass: 2
Flags: W
AnchorPoint: "Anchor-4" 378 -80 basechar 0
AnchorPoint: "Anchor-2" 130 15 basechar 0
AnchorPoint: "Anchor-0" 346 670 basechar 0
LayerCount: 2
Fore
SplineSet
167 129 m 2,0,1
 167 66 167 66 214 45 c 0,2,3
 220 42 220 42 236.5 36.5 c 128,-1,4
 253 31 253 31 261 26.5 c 128,-1,5
 269 22 269 22 269 15 c 0,6,7
 269 1 269 1 237 -2 c 0,8,9
 235 -2 235 -2 220 -0.5 c 128,-1,10
 205 1 205 1 182 2.5 c 128,-1,11
 159 4 159 4 138 4 c 128,-1,12
 117 4 117 4 96 2.5 c 128,-1,13
 75 1 75 1 61.5 -0.5 c 128,-1,14
 48 -2 48 -2 46 -2 c 0,15,16
 13 1 13 1 13 15 c 0,17,18
 13 22 13 22 21 26.5 c 128,-1,19
 29 31 29 31 45.5 36.5 c 128,-1,20
 62 42 62 42 68 45 c 0,21,22
 115 66 115 66 115 129 c 2,23,-1
 115 390 l 2,24,25
 115 460 115 460 101 477 c 2,26,-1
 64 518 l 2,27,28
 58 525 58 525 49.5 534 c 128,-1,29
 41 543 41 543 36.5 548 c 128,-1,30
 32 553 32 553 27 558.5 c 128,-1,31
 22 564 22 564 20 568 c 128,-1,32
 18 572 18 572 18 575 c 0,33,34
 18 586 18 586 33 586 c 2,35,-1
 130 586 l 2,36,37
 150 586 150 586 183 550 c 2,38,-1
 448 253 l 2,39,40
 524 168 524 168 535 168 c 0,41,42
 541 168 541 168 542.5 180 c 128,-1,43
 544 192 544 192 544 238 c 2,44,-1
 544 482 l 2,45,46
 544 493 544 493 542.5 501.5 c 128,-1,47
 541 510 541 510 539.5 516 c 128,-1,48
 538 522 538 522 532.5 527 c 128,-1,49
 527 532 527 532 525 534.5 c 128,-1,50
 523 537 523 537 513 541 c 128,-1,51
 503 545 503 545 499.5 546 c 128,-1,52
 496 547 496 547 481.5 551 c 128,-1,53
 467 555 467 555 462 556 c 0,54,55
 446 561 446 561 446 573 c 0,56,57
 446 581 446 581 457 586 c 128,-1,58
 468 591 468 591 481 591 c 0,59,60
 501 591 501 591 527.5 588.5 c 128,-1,61
 554 586 554 586 572 586 c 128,-1,62
 590 586 590 586 617.5 588.5 c 128,-1,63
 645 591 645 591 662 591 c 0,64,65
 675 591 675 591 686 586 c 128,-1,66
 697 581 697 581 697 573 c 0,67,68
 697 561 697 561 682 556 c 0,69,70
 676 554 676 554 664.5 551 c 128,-1,71
 653 548 653 548 648.5 547 c 128,-1,72
 644 546 644 546 635.5 543 c 128,-1,73
 627 540 627 540 624 537.5 c 128,-1,74
 621 535 621 535 615.5 531.5 c 128,-1,75
 610 528 610 528 608 523.5 c 128,-1,76
 606 519 606 519 603.5 513 c 128,-1,77
 601 507 601 507 600 499.5 c 128,-1,78
 599 492 599 492 599 482 c 2,79,-1
 599 83 l 2,80,81
 599 57 599 57 600.5 34.5 c 128,-1,82
 602 12 602 12 602 1 c 0,83,84
 602 -11 602 -11 582 -11 c 0,85,86
 572 -11 572 -11 547.5 5 c 128,-1,87
 523 21 523 21 497 49 c 2,88,-1
 203 376 l 2,89,90
 182 400 182 400 174 400 c 0,91,92
 167 400 167 400 167 332 c 2,93,-1
 167 129 l 2,0,1
EndSplineSet
Validated: 1048577
Substitution2: "'c2sc' Capitals to Small Capitals lookup 49 subtable" N.sc
Substitution2: "'sups' Superscript lookup 25 subtable" N.sups
Substitution2: "'sinf' Scientific Inferiors lookup 24 subtable" N.sinf
Substitution2: "'ordn' Ordinals lookup 23 subtable" N.ordn
Substitution2: "'subs' Subscript lookup 22 subtable" N.subs
EndChar

StartChar: O
Encoding: 79 79 50
Width: 670
GlyphClass: 2
Flags: W
AnchorPoint: "Anchor-4" 354 -80 basechar 0
AnchorPoint: "Anchor-2" 375 15 basechar 0
AnchorPoint: "Anchor-1" 433 15 basechar 0
AnchorPoint: "Anchor-0" 346 670 basechar 0
LayerCount: 2
Fore
SplineSet
146 330 m 0,0,1
 146 217 146 217 206 125.5 c 128,-1,2
 266 34 266 34 364 34 c 0,3,4
 447 34 447 34 491 107.5 c 128,-1,5
 535 181 535 181 535 280 c 0,6,7
 535 386 535 386 481.5 469 c 128,-1,8
 428 552 428 552 336 552 c 0,9,10
 256 552 256 552 201 484 c 128,-1,11
 146 416 146 416 146 330 c 0,0,1
374 598 m 0,12,13
 476 598 476 598 561.5 508.5 c 128,-1,14
 647 419 647 419 647 310 c 0,15,16
 647 179 647 179 561.5 83.5 c 128,-1,17
 476 -12 476 -12 350 -12 c 0,18,19
 214 -12 214 -12 124 74 c 128,-1,20
 34 160 34 160 34 295 c 0,21,22
 34 435 34 435 128.5 516.5 c 128,-1,23
 223 598 223 598 374 598 c 0,12,13
EndSplineSet
Validated: 1
Substitution2: "'c2sc' Capitals to Small Capitals lookup 49 subtable" O.sc
Substitution2: "'sups' Superscript lookup 25 subtable" O.sups
Substitution2: "'sinf' Scientific Inferiors lookup 24 subtable" O.sinf
Substitution2: "'ordn' Ordinals lookup 23 subtable" O.ordn
Substitution2: "'subs' Subscript lookup 22 subtable" O.subs
EndChar

StartChar: P
Encoding: 80 80 51
Width: 535
GlyphClass: 2
Flags: W
AnchorPoint: "Anchor-4" 168 -80 basechar 0
AnchorPoint: "Anchor-2" 178 15 basechar 0
AnchorPoint: "Anchor-0" 277 670 basechar 0
LayerCount: 2
Fore
SplineSet
214 523 m 2,0,-1
 214 129 l 2,1,2
 214 66 214 66 261 45 c 0,3,4
 267 42 267 42 283.5 36.5 c 128,-1,5
 300 31 300 31 308 26.5 c 128,-1,6
 316 22 316 22 316 15 c 0,7,8
 316 1 316 1 284 -2 c 0,9,10
 282 -2 282 -2 261.5 -0.5 c 128,-1,11
 241 1 241 1 212.5 2.5 c 128,-1,12
 184 4 184 4 163 4 c 0,13,14
 144 4 144 4 118.5 2.5 c 128,-1,15
 93 1 93 1 74 -0.5 c 128,-1,16
 55 -2 55 -2 53 -2 c 0,17,18
 20 1 20 1 20 15 c 0,19,20
 20 22 20 22 28 26.5 c 128,-1,21
 36 31 36 31 52.5 36.5 c 128,-1,22
 69 42 69 42 75 45 c 0,23,24
 122 66 122 66 122 129 c 2,25,-1
 122 482 l 2,26,27
 122 491 122 491 121.5 498.5 c 128,-1,28
 121 506 121 506 118 512.5 c 128,-1,29
 115 519 115 519 113.5 523 c 128,-1,30
 112 527 112 527 106 531 c 128,-1,31
 100 535 100 535 98 537 c 128,-1,32
 96 539 96 539 86.5 542.5 c 128,-1,33
 77 546 77 546 73.5 547 c 128,-1,34
 70 548 70 548 57.5 551.5 c 128,-1,35
 45 555 45 555 40 556 c 0,36,37
 24 561 24 561 24 573 c 0,38,39
 24 589 24 589 59 591 c 0,40,41
 185 601 185 601 277 601 c 0,42,43
 362 601 362 601 426 563.5 c 128,-1,44
 490 526 490 526 490 456 c 0,45,46
 490 353 490 353 368 287 c 0,47,48
 331 267 331 267 304 267 c 0,49,50
 286 267 286 267 286 284 c 0,51,52
 286 288 286 288 290 291.5 c 128,-1,53
 294 295 294 295 306 303 c 128,-1,54
 318 311 318 311 329 320 c 0,55,56
 390 372 390 372 390 441 c 0,57,58
 390 490 390 490 352.5 523.5 c 128,-1,59
 315 557 315 557 264 557 c 0,60,61
 243 557 243 557 228.5 547 c 128,-1,62
 214 537 214 537 214 523 c 2,0,-1
EndSplineSet
Validated: 1048577
Substitution2: "'c2sc' Capitals to Small Capitals lookup 49 subtable" P.sc
Substitution2: "'sups' Superscript lookup 25 subtable" P.sups
Substitution2: "'sinf' Scientific Inferiors lookup 24 subtable" P.sinf
Substitution2: "'ordn' Ordinals lookup 23 subtable" P.ordn
Substitution2: "'subs' Subscript lookup 22 subtable" P.subs
EndChar

StartChar: Q
Encoding: 81 81 52
Width: 754
GlyphClass: 2
Flags: W
AnchorPoint: "Anchor-0" 371 670 basechar 0
LayerCount: 2
Fore
SplineSet
158 325 m 0,0,1
 158 249 158 249 179 182 c 128,-1,2
 200 115 200 115 248.5 68 c 128,-1,3
 297 21 297 21 365 21 c 0,4,5
 427 21 427 21 495 89 c 0,6,7
 555 149 555 149 555 276 c 0,8,9
 555 392 555 392 497.5 476 c 128,-1,10
 440 560 440 560 343 560 c 0,11,12
 262 560 262 560 210 488 c 128,-1,13
 158 416 158 416 158 325 c 0,0,1
378 605 m 0,14,15
 497 605 497 605 582 518 c 128,-1,16
 667 431 667 431 667 311 c 0,17,18
 667 151 667 151 548 64 c 0,19,20
 538 57 538 57 527.5 49.5 c 128,-1,21
 517 42 517 42 511 38 c 128,-1,22
 505 34 505 34 499 29 c 128,-1,23
 493 24 493 24 490 21.5 c 128,-1,24
 487 19 487 19 484.5 15.5 c 128,-1,25
 482 12 482 12 481 9 c 128,-1,26
 480 6 480 6 480 3 c 0,27,28
 480 -18 480 -18 548 -62.5 c 128,-1,29
 616 -107 616 -107 663 -126 c 0,30,31
 755 -164 755 -164 797.5 -180.5 c 128,-1,32
 840 -197 840 -197 904 -216.5 c 128,-1,33
 968 -236 968 -236 1024 -243 c 128,-1,34
 1080 -250 1080 -250 1148 -250 c 0,35,36
 1293 -250 1293 -250 1356 -226 c 128,-1,37
 1419 -202 1419 -202 1449 -116 c 0,38,39
 1454 -102 1454 -102 1464.5 -92.5 c 128,-1,40
 1475 -83 1475 -83 1487 -83 c 0,41,42
 1503 -83 1503 -83 1511 -93.5 c 128,-1,43
 1519 -104 1519 -104 1519 -118 c 0,44,45
 1519 -163 1519 -163 1478 -203 c 128,-1,46
 1437 -243 1437 -243 1375.5 -267.5 c 128,-1,47
 1314 -292 1314 -292 1248 -306 c 128,-1,48
 1182 -320 1182 -320 1126 -320 c 0,49,50
 1069 -320 1069 -320 1022.5 -317.5 c 128,-1,51
 976 -315 976 -315 932.5 -307 c 128,-1,52
 889 -299 889 -299 862 -294.5 c 128,-1,53
 835 -290 835 -290 792.5 -274.5 c 128,-1,54
 750 -259 750 -259 733.5 -252.5 c 128,-1,55
 717 -246 717 -246 666.5 -224 c 128,-1,56
 616 -202 616 -202 598 -195 c 0,57,58
 550 -174 550 -174 474.5 -132.5 c 128,-1,59
 399 -91 399 -91 388 -85 c 0,60,61
 332 -58 332 -58 228 1 c 0,62,63
 46 107 46 107 46 281 c 0,64,65
 46 415 46 415 144.5 510 c 128,-1,66
 243 605 243 605 378 605 c 0,14,15
EndSplineSet
Validated: 1
Substitution2: "Single Substitution lookup 55 subtable" Q.low
Substitution2: "Single Substitution lookup 54 subtable" Q.short
Substitution2: "Single Substitution lookup 53 subtable" Q.long
Substitution2: "Single Substitution lookup 52 subtable" Q.long
Substitution2: "'c2sc' Capitals to Small Capitals lookup 49 subtable" Q.sc
Substitution2: "'sups' Superscript lookup 25 subtable" Q.sups
Substitution2: "'sinf' Scientific Inferiors lookup 24 subtable" Q.sinf
Substitution2: "'ordn' Ordinals lookup 23 subtable" Q.ordn
Substitution2: "'subs' Subscript lookup 22 subtable" Q.subs
EndChar

StartChar: R
Encoding: 82 82 53
Width: 651
GlyphClass: 2
Flags: W
AnchorPoint: "Anchor-4" 372 -80 basechar 0
AnchorPoint: "Anchor-2" 182 15 basechar 0
AnchorPoint: "Anchor-0" 273 670 basechar 0
LayerCount: 2
Fore
SplineSet
419 246 m 0,0,1
 513 106 513 106 606 39 c 0,2,3
 622 27 622 27 663 23 c 0,4,5
 680 21 680 21 680 6 c 0,6,7
 680 -7 680 -7 659 -15.5 c 128,-1,8
 638 -24 638 -24 610 -24 c 0,9,10
 527 -24 527 -24 483 23 c 0,11,12
 392 118 392 118 325 231 c 0,13,14
 305 264 305 264 242 264 c 0,15,16
 214 264 214 264 214 214 c 2,17,-1
 214 129 l 2,18,19
 214 66 214 66 261 45 c 0,20,21
 267 42 267 42 283.5 36.5 c 128,-1,22
 300 31 300 31 308 26.5 c 128,-1,23
 316 22 316 22 316 15 c 0,24,25
 316 1 316 1 284 -2 c 0,26,27
 282 -2 282 -2 261.5 -0.5 c 128,-1,28
 241 1 241 1 212.5 2.5 c 128,-1,29
 184 4 184 4 163 4 c 0,30,31
 144 4 144 4 118.5 2.5 c 128,-1,32
 93 1 93 1 74 -0.5 c 128,-1,33
 55 -2 55 -2 53 -2 c 0,34,35
 20 1 20 1 20 15 c 0,36,37
 20 22 20 22 28 26.5 c 128,-1,38
 36 31 36 31 52.5 36.5 c 128,-1,39
 69 42 69 42 75 45 c 0,40,41
 122 66 122 66 122 129 c 2,42,-1
 122 478 l 2,43,44
 122 487 122 487 121.5 494.5 c 128,-1,45
 121 502 121 502 118 508.5 c 128,-1,46
 115 515 115 515 113.5 519 c 128,-1,47
 112 523 112 523 106 527 c 128,-1,48
 100 531 100 531 98 533 c 128,-1,49
 96 535 96 535 86.5 538.5 c 128,-1,50
 77 542 77 542 73.5 543 c 128,-1,51
 70 544 70 544 57.5 547.5 c 128,-1,52
 45 551 45 551 40 552 c 0,53,54
 24 557 24 557 24 569 c 0,55,56
 24 585 24 585 59 587 c 0,57,58
 185 597 185 597 277 597 c 0,59,60
 362 597 362 597 426 560.5 c 128,-1,61
 490 524 490 524 490 454 c 0,62,63
 490 371 490 371 411 314 c 0,64,65
 407 311 407 311 403 308.5 c 128,-1,66
 399 306 399 306 397.5 304.5 c 128,-1,67
 396 303 396 303 395 301 c 128,-1,68
 394 299 394 299 394 296 c 0,69,70
 394 283 394 283 419 246 c 0,0,1
224 316 m 0,71,72
 236 300 236 300 255 300 c 0,73,74
 277 300 277 300 299.5 306 c 128,-1,75
 322 312 322 312 329 320 c 0,76,77
 390 372 390 372 390 439 c 0,78,79
 390 488 390 488 352.5 520.5 c 128,-1,80
 315 553 315 553 264 553 c 0,81,82
 243 553 243 553 228.5 543 c 128,-1,83
 214 533 214 533 214 519 c 2,84,-1
 214 360 l 2,85,86
 214 331 214 331 224 316 c 0,71,72
EndSplineSet
Validated: 1048577
Substitution2: "'c2sc' Capitals to Small Capitals lookup 49 subtable" R.sc
Substitution2: "'sups' Superscript lookup 25 subtable" R.sups
Substitution2: "'sinf' Scientific Inferiors lookup 24 subtable" R.sinf
Substitution2: "'ordn' Ordinals lookup 23 subtable" R.ordn
Substitution2: "'subs' Subscript lookup 22 subtable" R.subs
EndChar

StartChar: S
Encoding: 83 83 54
Width: 409
GlyphClass: 2
Flags: W
AnchorPoint: "Anchor-4" 194 -80 basechar 0
AnchorPoint: "Anchor-2" 237 15 basechar 0
AnchorPoint: "Anchor-0" 232 670 basechar 0
LayerCount: 2
Fore
SplineSet
232 601 m 0,0,1
 285 601 285 601 333 574 c 0,2,3
 355 561 355 561 361 541.5 c 128,-1,4
 367 522 367 522 367 489 c 0,5,6
 367 462 367 462 347 462 c 0,7,8
 339 462 339 462 331.5 471 c 128,-1,9
 324 480 324 480 312 499 c 0,10,11
 311 501 311 501 310.5 502 c 128,-1,12
 310 503 310 503 309 505 c 128,-1,13
 308 507 308 507 307 508 c 0,14,15
 284 544 284 544 228 544 c 0,16,17
 192 544 192 544 169 517.5 c 128,-1,18
 146 491 146 491 146 453 c 0,19,20
 146 446 146 446 147 440 c 128,-1,21
 148 434 148 434 151 428.5 c 128,-1,22
 154 423 154 423 156.5 419 c 128,-1,23
 159 415 159 415 165 409 c 128,-1,24
 171 403 171 403 174 400.5 c 128,-1,25
 177 398 177 398 185.5 391 c 128,-1,26
 194 384 194 384 197 381 c 2,27,-1
 338 262 l 2,28,29
 386 222 386 222 386 160 c 0,30,31
 386 86 386 86 325.5 37.5 c 128,-1,32
 265 -11 265 -11 185 -11 c 0,33,34
 128 -11 128 -11 80 11 c 0,35,36
 52 24 52 24 43 35.5 c 128,-1,37
 34 47 34 47 34 71 c 0,38,39
 34 138 34 138 61 138 c 0,40,41
 80 138 80 138 93 93 c 0,42,43
 102 65 102 65 130.5 46.5 c 128,-1,44
 159 28 159 28 201 28 c 0,45,46
 240 28 240 28 264 60.5 c 128,-1,47
 288 93 288 93 288 138 c 0,48,49
 288 171 288 171 248 204 c 2,50,-1
 98 327 l 2,51,52
 54 362 54 362 54 417 c 0,53,54
 54 492 54 492 106.5 546.5 c 128,-1,55
 159 601 159 601 232 601 c 0,0,1
EndSplineSet
Validated: 1048577
Substitution2: "'c2sc' Capitals to Small Capitals lookup 49 subtable" S.sc
Substitution2: "'sups' Superscript lookup 25 subtable" S.sups
Substitution2: "'sinf' Scientific Inferiors lookup 24 subtable" S.sinf
Substitution2: "'ordn' Ordinals lookup 23 subtable" S.ordn
Substitution2: "'subs' Subscript lookup 22 subtable" S.subs
EndChar

StartChar: T
Encoding: 84 84 55
Width: 592
GlyphClass: 2
Flags: W
AnchorPoint: "Anchor-4" 312 -80 basechar 0
AnchorPoint: "Anchor-2" 332 15 basechar 0
AnchorPoint: "Anchor-0" 315 670 basechar 0
LayerCount: 2
Fore
SplineSet
266 505 m 2,0,1
 266 536 266 536 250 536 c 2,2,-1
 128 536 l 2,3,4
 110 536 110 536 102 529 c 128,-1,5
 94 522 94 522 85 506 c 0,6,7
 82 501 82 501 77.5 490.5 c 128,-1,8
 73 480 73 480 70 474 c 128,-1,9
 67 468 67 468 62.5 463 c 128,-1,10
 58 458 58 458 53 458 c 0,11,12
 35 458 35 458 35 481 c 0,13,14
 35 491 35 491 37.5 509 c 128,-1,15
 40 527 40 527 40 544 c 0,16,17
 40 553 40 553 39 569 c 128,-1,18
 38 585 38 585 38 589 c 0,19,20
 38 599 38 599 43 606.5 c 128,-1,21
 48 614 48 614 55 614 c 0,22,23
 59 614 59 614 64 611 c 128,-1,24
 69 608 69 608 76.5 601.5 c 128,-1,25
 84 595 84 595 91 591 c 0,26,27
 104 590 104 590 117.5 588 c 128,-1,28
 131 586 131 586 139 585 c 128,-1,29
 147 584 147 584 150 584 c 2,30,-1
 499 584 l 2,31,32
 538 584 538 584 569 601 c 0,33,34
 573 603 573 603 578.5 607.5 c 128,-1,35
 584 612 584 612 588.5 614 c 128,-1,36
 593 616 593 616 598 616 c 0,37,38
 606 616 606 616 611 610.5 c 128,-1,39
 616 605 616 605 616 598 c 0,40,41
 616 595 616 595 614 581.5 c 128,-1,42
 612 568 612 568 612 555 c 0,43,44
 612 541 612 541 613 515.5 c 128,-1,45
 614 490 614 490 614 486 c 0,46,47
 614 463 614 463 600 463 c 0,48,49
 590 463 590 463 564 508 c 0,50,51
 547 536 547 536 528 536 c 2,52,-1
 373 536 l 2,53,54
 361 536 361 536 361 505 c 2,55,-1
 361 129 l 2,56,57
 361 66 361 66 408 45 c 0,58,59
 414 42 414 42 430.5 36.5 c 128,-1,60
 447 31 447 31 455 26.5 c 128,-1,61
 463 22 463 22 463 15 c 0,62,63
 463 1 463 1 431 -2 c 0,64,65
 429 -2 429 -2 408.5 -0.5 c 128,-1,66
 388 1 388 1 359.5 2.5 c 128,-1,67
 331 4 331 4 310 4 c 128,-1,68
 289 4 289 4 262.5 2.5 c 128,-1,69
 236 1 236 1 217.5 -0.5 c 128,-1,70
 199 -2 199 -2 197 -2 c 0,71,72
 164 1 164 1 164 15 c 0,73,74
 164 22 164 22 172 26.5 c 128,-1,75
 180 31 180 31 196.5 36.5 c 128,-1,76
 213 42 213 42 219 45 c 0,77,78
 266 66 266 66 266 129 c 2,79,-1
 266 505 l 2,0,1
EndSplineSet
Validated: 1048577
Substitution2: "'c2sc' Capitals to Small Capitals lookup 49 subtable" T.sc
Substitution2: "'sups' Superscript lookup 25 subtable" T.sups
Substitution2: "'sinf' Scientific Inferiors lookup 24 subtable" T.sinf
Substitution2: "'ordn' Ordinals lookup 23 subtable" T.ordn
Substitution2: "'subs' Subscript lookup 22 subtable" T.subs
EndChar

StartChar: U
Encoding: 85 85 56
Width: 617
GlyphClass: 2
Flags: W
AnchorPoint: "Anchor-4" 320 -80 basechar 0
AnchorPoint: "Anchor-2" 336 15 basechar 0
AnchorPoint: "Anchor-1" 402 15 basechar 0
AnchorPoint: "Anchor-0" 342 670 basechar 0
LayerCount: 2
Fore
SplineSet
560 492 m 2,0,-1
 560 250 l 2,1,2
 560 134 560 134 491 64 c 128,-1,3
 422 -6 422 -6 311 -6 c 0,4,5
 185 -6 185 -6 135.5 62 c 128,-1,6
 86 130 86 130 86 256 c 2,7,-1
 86 482 l 2,8,9
 86 517 86 517 75 528.5 c 128,-1,10
 64 540 64 540 16 556 c 0,11,12
 0 561 0 561 0 573 c 0,13,14
 0 581 0 581 11 586 c 128,-1,15
 22 591 22 591 35 591 c 0,16,17
 55 591 55 591 75.5 588.5 c 128,-1,18
 96 586 96 586 114 586 c 128,-1,19
 132 586 132 586 171.5 588.5 c 128,-1,20
 211 591 211 591 228 591 c 0,21,22
 241 591 241 591 252 586 c 128,-1,23
 263 581 263 581 263 573 c 0,24,25
 263 561 263 561 248 556 c 0,26,27
 214 545 214 545 197.5 529 c 128,-1,28
 181 513 181 513 181 484 c 2,29,-1
 181 284 l 2,30,31
 181 157 181 157 212.5 100.5 c 128,-1,32
 244 44 244 44 332 44 c 0,33,34
 429 44 429 44 466 110 c 128,-1,35
 503 176 503 176 503 304 c 2,36,-1
 503 490 l 2,37,38
 503 516 503 516 497 528 c 128,-1,39
 491 540 491 540 484.5 543 c 128,-1,40
 478 546 478 546 450 555 c 0,41,42
 433 561 433 561 433 573 c 0,43,44
 433 581 433 581 444 586 c 128,-1,45
 455 591 455 591 468 591 c 0,46,47
 476 591 476 591 501 588.5 c 128,-1,48
 526 586 526 586 533 586 c 128,-1,49
 540 586 540 586 565 588.5 c 128,-1,50
 590 591 590 591 597 591 c 0,51,52
 610 591 610 591 621 586 c 128,-1,53
 632 581 632 581 632 573 c 0,54,55
 632 562 632 562 615 556 c 0,56,57
 580 545 580 545 570 533 c 128,-1,58
 560 521 560 521 560 492 c 2,0,-1
EndSplineSet
Validated: 1
Substitution2: "'c2sc' Capitals to Small Capitals lookup 49 subtable" U.sc
Substitution2: "Single Substitution lookup 37 subtable" U.LAT
Substitution2: "'sups' Superscript lookup 25 subtable" U.sups
Substitution2: "'sinf' Scientific Inferiors lookup 24 subtable" U.sinf
Substitution2: "'ordn' Ordinals lookup 23 subtable" U.ordn
Substitution2: "'subs' Subscript lookup 22 subtable" U.subs
Substitution2: "'locl' Localized Forms in Latin lookup 4 subtable" U.LAT
EndChar

StartChar: V
Encoding: 86 86 57
Width: 557
GlyphClass: 2
Flags: W
AnchorPoint: "Anchor-4" 296 -80 basechar 0
AnchorPoint: "Anchor-2" 299 15 basechar 0
AnchorPoint: "Anchor-0" 308 670 basechar 0
LayerCount: 2
Fore
SplineSet
394 555 m 0,0,1
 377 561 377 561 377 573 c 0,2,3
 377 581 377 581 388 586 c 128,-1,4
 399 591 399 591 412 591 c 0,5,6
 419 591 419 591 447.5 588.5 c 128,-1,7
 476 586 476 586 484 586 c 128,-1,8
 492 586 492 586 516 588.5 c 128,-1,9
 540 591 540 591 548 591 c 0,10,11
 561 591 561 591 572 586 c 128,-1,12
 583 581 583 581 583 573 c 0,13,14
 583 562 583 562 566 556 c 0,15,16
 534 546 534 546 517 523.5 c 128,-1,17
 500 501 500 501 486 463 c 2,18,-1
 362 121 l 2,19,20
 312 -15 312 -15 296 -15 c 0,21,22
 283 -15 283 -15 258 54 c 2,23,-1
 106 458 l 2,24,25
 95 488 95 488 88.5 501 c 128,-1,26
 82 514 82 514 64 530 c 128,-1,27
 46 546 46 546 16 556 c 0,28,29
 0 561 0 561 0 573 c 0,30,31
 0 581 0 581 11 586 c 128,-1,32
 22 591 22 591 35 591 c 0,33,34
 55 591 55 591 75.5 588.5 c 128,-1,35
 96 586 96 586 114 586 c 128,-1,36
 132 586 132 586 176.5 588.5 c 128,-1,37
 221 591 221 591 238 591 c 0,38,39
 251 591 251 591 262 586 c 128,-1,40
 273 581 273 581 273 573 c 0,41,42
 273 561 273 561 258 556 c 0,43,44
 219 543 219 543 201.5 526.5 c 128,-1,45
 184 510 184 510 195 480 c 2,46,-1
 293 218 l 2,47,48
 311 169 311 169 323 169 c 0,49,50
 340 169 340 169 360 229 c 2,51,-1
 434 453 l 2,52,53
 448 506 448 506 438.5 524.5 c 128,-1,54
 429 543 429 543 394 555 c 0,0,1
EndSplineSet
Validated: 1048609
Substitution2: "'c2sc' Capitals to Small Capitals lookup 49 subtable" V.sc
Substitution2: "'sups' Superscript lookup 25 subtable" V.sups
Substitution2: "'sinf' Scientific Inferiors lookup 24 subtable" V.sinf
Substitution2: "'ordn' Ordinals lookup 23 subtable" V.ordn
Substitution2: "'subs' Subscript lookup 22 subtable" V.subs
EndChar

StartChar: W
Encoding: 87 87 58
Width: 737
GlyphClass: 2
Flags: W
AnchorPoint: "Anchor-4" 390 -80 basechar 0
AnchorPoint: "Anchor-2" 293 15 basechar 0
AnchorPoint: "Anchor-0" 407 670 basechar 0
LayerCount: 2
Fore
SplineSet
433 555 m 0,0,1
 416 561 416 561 416 573 c 0,2,3
 416 591 416 591 441 591 c 0,4,5
 448 591 448 591 467 589 c 128,-1,6
 486 587 486 587 494 587 c 128,-1,7
 502 587 502 587 526 589 c 128,-1,8
 550 591 550 591 558 591 c 0,9,10
 583 591 583 591 583 573 c 0,11,12
 583 562 583 562 566 556 c 0,13,14
 534 546 534 546 517 523.5 c 128,-1,15
 500 501 500 501 486 463 c 2,16,-1
 436 325 l 1,17,-1
 476 218 l 2,18,19
 494 169 494 169 506 169 c 0,20,21
 523 169 523 169 543 229 c 2,22,-1
 617 453 l 2,23,24
 634 506 634 506 634 527.5 c 128,-1,25
 634 549 634 549 616 555 c 0,26,27
 599 561 599 561 599 573 c 0,28,29
 599 591 599 591 623 591 c 0,30,31
 630 591 630 591 651 589 c 128,-1,32
 672 587 672 587 679 587 c 128,-1,33
 686 587 686 587 710 589 c 128,-1,34
 734 591 734 591 741 591 c 0,35,36
 766 591 766 591 766 573 c 0,37,38
 766 562 766 562 749 556 c 0,39,40
 717 546 717 546 700 523.5 c 128,-1,41
 683 501 683 501 669 463 c 2,42,-1
 545 121 l 2,43,44
 495 -15 495 -15 479 -15 c 0,45,46
 466 -15 466 -15 441 54 c 2,47,-1
 388 194 l 1,48,-1
 362 121 l 2,49,50
 312 -15 312 -15 296 -15 c 0,51,52
 283 -15 283 -15 258 54 c 2,53,-1
 106 458 l 2,54,55
 95 488 95 488 88.5 501 c 128,-1,56
 82 514 82 514 64 530 c 128,-1,57
 46 546 46 546 16 556 c 0,58,59
 0 561 0 561 0 573 c 0,60,61
 0 581 0 581 11 586 c 128,-1,62
 22 591 22 591 35 591 c 0,63,64
 43 591 43 591 72.5 589 c 128,-1,65
 102 587 102 587 109 587 c 128,-1,66
 116 587 116 587 140 589 c 128,-1,67
 164 591 164 591 172 591 c 0,68,69
 207 591 207 591 207 576 c 128,-1,70
 207 561 207 561 192 556 c 0,71,72
 184 553 184 553 180.5 548 c 128,-1,73
 177 543 177 543 177.5 535 c 128,-1,74
 178 527 178 527 181.5 516.5 c 128,-1,75
 185 506 185 506 190 493 c 0,76,77
 192 489 192 489 193 486 c 128,-1,78
 194 483 194 483 195 480 c 2,79,-1
 293 218 l 2,80,81
 311 169 311 169 323 169 c 0,82,83
 340 169 340 169 360 229 c 2,84,-1
 367 250 l 1,85,-1
 289 458 l 2,86,87
 286 465 286 465 279.5 484.5 c 128,-1,88
 273 504 273 504 270 511.5 c 128,-1,89
 267 519 267 519 261 531 c 128,-1,90
 255 543 255 543 248.5 548.5 c 128,-1,91
 242 554 242 554 235 556 c 0,92,93
 219 560 219 560 219 573 c 0,94,95
 219 591 219 591 241 591 c 0,96,97
 248 591 248 591 273 589 c 128,-1,98
 298 587 298 587 305 587 c 128,-1,99
 312 587 312 587 334 589 c 128,-1,100
 356 591 356 591 363 591 c 0,101,102
 376 591 376 591 387 586 c 128,-1,103
 398 581 398 581 398 573 c 0,104,105
 398 561 398 561 383 556 c 0,106,107
 370 552 370 552 366.5 541.5 c 128,-1,108
 363 531 363 531 366 518 c 128,-1,109
 369 505 369 505 378 480 c 2,110,-1
 412 388 l 1,111,-1
 434 453 l 2,112,113
 443 481 443 481 447.5 497 c 128,-1,114
 452 513 452 513 452.5 526 c 128,-1,115
 453 539 453 539 448.5 545.5 c 128,-1,116
 444 552 444 552 433 555 c 0,0,1
EndSplineSet
Validated: 1048577
Substitution2: "'c2sc' Capitals to Small Capitals lookup 49 subtable" W.sc
Substitution2: "'sups' Superscript lookup 25 subtable" W.sups
Substitution2: "'sinf' Scientific Inferiors lookup 24 subtable" W.sinf
Substitution2: "'ordn' Ordinals lookup 23 subtable" W.ordn
Substitution2: "'subs' Subscript lookup 22 subtable" W.subs
EndChar

StartChar: X
Encoding: 88 88 59
Width: 612
GlyphClass: 2
Flags: W
AnchorPoint: "Anchor-4" 293 -80 basechar 0
AnchorPoint: "Anchor-2" 130 15 basechar 0
AnchorPoint: "Anchor-0" 328 670 basechar 0
LayerCount: 2
Fore
SplineSet
256 527 m 0,0,1
 256 511 256 511 265 495 c 2,2,-1
 333 369 l 1,3,-1
 387 450 l 2,4,5
 419 500 419 500 419 521 c 0,6,7
 419 530 419 530 410.5 540.5 c 128,-1,8
 402 551 402 551 389 555 c 0,9,10
 372 561 372 561 372 573 c 0,11,12
 372 590 372 590 407 590 c 0,13,14
 414 590 414 590 443 588 c 128,-1,15
 472 586 472 586 479 586 c 128,-1,16
 486 586 486 586 511 588 c 128,-1,17
 536 590 536 590 543 590 c 0,18,19
 578 590 578 590 578 573 c 0,20,21
 578 562 578 562 561 556 c 0,22,23
 488 532 488 532 449 472 c 2,24,-1
 355 327 l 1,25,-1
 467 120 l 2,26,27
 495 67 495 67 556 45 c 0,28,29
 596 31 596 31 596 14 c 0,30,31
 596 -2 596 -2 567 -2 c 0,32,33
 557 -2 557 -2 525 1 c 128,-1,34
 493 4 493 4 475 4 c 0,35,36
 438 4 438 4 395 1 c 128,-1,37
 352 -2 352 -2 341 -2 c 128,-1,38
 330 -2 330 -2 319.5 2.5 c 128,-1,39
 309 7 309 7 309 15 c 0,40,41
 309 22 309 22 316.5 26.5 c 128,-1,42
 324 31 324 31 340.5 36.5 c 128,-1,43
 357 42 357 42 363 45 c 0,44,45
 376 51 376 51 382 58 c 128,-1,46
 388 65 388 65 386.5 74 c 128,-1,47
 385 83 385 83 382.5 89 c 128,-1,48
 380 95 380 95 373 106 c 2,49,-1
 300 242 l 1,50,-1
 203 92 l 2,51,52
 193 77 193 77 191 63 c 128,-1,53
 189 49 189 49 201 43 c 0,54,55
 233 34 233 34 233 15 c 0,56,57
 233 -2 233 -2 198 -2 c 0,58,59
 188 -2 188 -2 156.5 1 c 128,-1,60
 125 4 125 4 116 4 c 0,61,62
 102 4 102 4 80.5 1 c 128,-1,63
 59 -2 59 -2 53 -2 c 0,64,65
 20 -2 20 -2 20 15 c 0,66,67
 20 22 20 22 28 26.5 c 128,-1,68
 36 31 36 31 52.5 36.5 c 128,-1,69
 69 42 69 42 75 45 c 0,70,71
 131 70 131 70 161 110 c 2,72,-1
 277 285 l 1,73,-1
 201 426 l 2,74,75
 147 528 147 528 79 552 c 0,76,77
 59 559 59 559 59 573 c 0,78,79
 59 590 59 590 94 590 c 0,80,81
 114 590 114 590 134.5 588 c 128,-1,82
 155 586 155 586 173 586 c 128,-1,83
 191 586 191 586 221.5 588 c 128,-1,84
 252 590 252 590 269 590 c 0,85,86
 304 590 304 590 304 573 c 0,87,88
 304 561 304 561 289 556 c 0,89,90
 256 545 256 545 256 527 c 0,0,1
EndSplineSet
Validated: 1048577
Substitution2: "'c2sc' Capitals to Small Capitals lookup 49 subtable" X.sc
Substitution2: "'sups' Superscript lookup 25 subtable" X.sups
Substitution2: "'sinf' Scientific Inferiors lookup 24 subtable" X.sinf
Substitution2: "'ordn' Ordinals lookup 23 subtable" X.ordn
Substitution2: "'subs' Subscript lookup 22 subtable" X.subs
EndChar

StartChar: Y
Encoding: 89 89 60
Width: 431
GlyphClass: 2
Flags: W
AnchorPoint: "Anchor-4" 262 -80 basechar 0
AnchorPoint: "Anchor-2" 259 15 basechar 0
AnchorPoint: "Anchor-0" 262 670 basechar 0
LayerCount: 2
Fore
SplineSet
309 130 m 2,0,1
 309 66 309 66 356 45 c 0,2,3
 362 42 362 42 378.5 36.5 c 128,-1,4
 395 31 395 31 403 26.5 c 128,-1,5
 411 22 411 22 411 15 c 0,6,7
 411 1 411 1 379 -2 c 0,8,9
 377 -2 377 -2 356.5 -0.5 c 128,-1,10
 336 1 336 1 307.5 2.5 c 128,-1,11
 279 4 279 4 258 4 c 128,-1,12
 237 4 237 4 210.5 2.5 c 128,-1,13
 184 1 184 1 165.5 -0.5 c 128,-1,14
 147 -2 147 -2 145 -2 c 0,15,16
 112 1 112 1 112 15 c 0,17,18
 112 22 112 22 120 26.5 c 128,-1,19
 128 31 128 31 144.5 36.5 c 128,-1,20
 161 42 161 42 167 45 c 0,21,22
 214 66 214 66 214 130 c 2,23,-1
 214 203 l 2,24,25
 214 221 214 221 213 236 c 128,-1,26
 212 251 212 251 210.5 260.5 c 128,-1,27
 209 270 209 270 205.5 282 c 128,-1,28
 202 294 202 294 200.5 298 c 128,-1,29
 199 302 199 302 194 314.5 c 128,-1,30
 189 327 189 327 188 330 c 2,31,-1
 143 446 l 2,32,33
 112 525 112 525 16 556 c 0,34,35
 0 561 0 561 0 573 c 0,36,37
 0 581 0 581 11 586 c 128,-1,38
 22 591 22 591 35 591 c 0,39,40
 55 591 55 591 75.5 588.5 c 128,-1,41
 96 586 96 586 114 586 c 128,-1,42
 132 586 132 586 162.5 588.5 c 128,-1,43
 193 591 193 591 210 591 c 0,44,45
 223 591 223 591 234 586 c 128,-1,46
 245 581 245 581 245 573 c 0,47,48
 245 561 245 561 230 556 c 0,49,50
 200 546 200 546 200 532 c 0,51,52
 200 528 200 528 212 502 c 128,-1,53
 224 476 224 476 236 452 c 2,54,-1
 249 429 l 2,55,56
 269 388 269 388 280 388 c 0,57,58
 282 388 282 388 284 389 c 128,-1,59
 286 390 286 390 288.5 392.5 c 128,-1,60
 291 395 291 395 293 398 c 128,-1,61
 295 401 295 401 298.5 407 c 128,-1,62
 302 413 302 413 304.5 418.5 c 128,-1,63
 307 424 307 424 312.5 433 c 128,-1,64
 318 442 318 442 322 450 c 2,65,-1
 359 515 l 2,66,67
 364 524 364 524 354 537 c 128,-1,68
 344 550 344 550 330 555 c 0,69,70
 313 561 313 561 313 573 c 0,71,72
 313 581 313 581 324 586 c 128,-1,73
 335 591 335 591 348 591 c 0,74,75
 356 591 356 591 384 588.5 c 128,-1,76
 412 586 412 586 420 586 c 128,-1,77
 428 586 428 586 452 588.5 c 128,-1,78
 476 591 476 591 484 591 c 0,79,80
 497 591 497 591 508 586 c 128,-1,81
 519 581 519 581 519 573 c 0,82,83
 519 562 519 562 502 556 c 0,84,85
 497 554 497 554 486 550.5 c 128,-1,86
 475 547 475 547 471.5 546 c 128,-1,87
 468 545 468 545 460.5 542 c 128,-1,88
 453 539 453 539 450 537 c 128,-1,89
 447 535 447 535 441 531 c 128,-1,90
 435 527 435 527 431.5 522.5 c 128,-1,91
 428 518 428 518 422.5 512 c 128,-1,92
 417 506 417 506 411 497.5 c 128,-1,93
 405 489 405 489 398.5 479.5 c 128,-1,94
 392 470 392 470 383 456 c 2,95,-1
 326 368 l 2,96,97
 320 359 320 359 316 350 c 128,-1,98
 312 341 312 341 310.5 332.5 c 128,-1,99
 309 324 309 324 308.5 319.5 c 128,-1,100
 308 315 308 315 308.5 307 c 128,-1,101
 309 299 309 299 309 298 c 2,102,-1
 309 130 l 2,0,1
EndSplineSet
Validated: 1048577
Substitution2: "'c2sc' Capitals to Small Capitals lookup 49 subtable" Y.sc
Substitution2: "'sups' Superscript lookup 25 subtable" Y.sups
Substitution2: "'sinf' Scientific Inferiors lookup 24 subtable" Y.sinf
Substitution2: "'ordn' Ordinals lookup 23 subtable" Y.ordn
Substitution2: "'subs' Subscript lookup 22 subtable" Y.subs
EndChar

StartChar: Z
Encoding: 90 90 61
Width: 591
GlyphClass: 2
Flags: W
AnchorPoint: "Anchor-4" 308 -80 basechar 0
AnchorPoint: "Anchor-2" 327 15 basechar 0
AnchorPoint: "Anchor-0" 294 670 basechar 0
LayerCount: 2
Fore
SplineSet
258 3 m 0,0,1
 219 3 219 3 153 0.5 c 128,-1,2
 87 -2 87 -2 55 -2 c 0,3,4
 37 -2 37 -2 37 26 c 0,5,6
 37 30 37 30 43.5 39 c 128,-1,7
 50 48 50 48 68 71.5 c 128,-1,8
 86 95 86 95 100 115 c 2,9,-1
 348 466 l 2,10,11
 363 488 363 488 367.5 497 c 128,-1,12
 372 506 372 506 372 520 c 0,13,14
 372 542 372 542 324 542 c 2,15,-1
 190 542 l 2,16,17
 134 542 134 542 111 516 c 0,18,19
 106 510 106 510 91.5 491.5 c 128,-1,20
 77 473 77 473 68 463.5 c 128,-1,21
 59 454 59 454 55 454 c 0,22,23
 40 454 40 454 40 482 c 0,24,25
 40 508 40 508 51 574 c 0,26,27
 55 596 55 596 74 596 c 0,28,29
 79 596 79 596 105 590.5 c 128,-1,30
 131 585 131 585 158 585 c 2,31,-1
 340 585 l 2,32,33
 353 585 353 585 417 586.5 c 128,-1,34
 481 588 481 588 499 588 c 0,35,36
 529 588 529 588 534 580 c 0,37,38
 538 575 538 575 538 565 c 0,39,40
 538 553 538 553 501 502 c 2,41,-1
 221 109 l 2,42,43
 197 73 197 73 197 62 c 0,44,45
 197 45 197 45 264 45 c 2,46,-1
 418 45 l 2,47,48
 437 45 437 45 452 50.5 c 128,-1,49
 467 56 467 56 476.5 62.5 c 128,-1,50
 486 69 486 69 496 83.5 c 128,-1,51
 506 98 506 98 510.5 107 c 128,-1,52
 515 116 515 116 524 136.5 c 128,-1,53
 533 157 533 157 537 166 c 0,54,55
 546 185 546 185 564 185 c 128,-1,56
 582 185 582 185 582 138 c 0,57,58
 582 119 582 119 569 73.5 c 128,-1,59
 556 28 556 28 549 17 c 0,60,61
 543 5 543 5 538 1.5 c 128,-1,62
 533 -2 533 -2 521 -2 c 0,63,64
 502 -2 502 -2 387 0.5 c 128,-1,65
 272 3 272 3 258 3 c 0,0,1
EndSplineSet
Validated: 1048577
Substitution2: "'c2sc' Capitals to Small Capitals lookup 49 subtable" Z.sc
Substitution2: "'sups' Superscript lookup 25 subtable" Z.sups
Substitution2: "'sinf' Scientific Inferiors lookup 24 subtable" Z.sinf
Substitution2: "'ordn' Ordinals lookup 23 subtable" Z.ordn
Substitution2: "'subs' Subscript lookup 22 subtable" Z.subs
EndChar

StartChar: bracketleft
Encoding: 91 91 62
Width: 268
GlyphClass: 2
Flags: W
LayerCount: 2
Fore
SplineSet
85 584 m 2,0,-1
 250 584 l 2,1,2
 268 584 268 584 268 570 c 0,3,4
 268 560 268 560 261.5 550.5 c 128,-1,5
 255 541 255 541 242 541 c 2,6,-1
 134 541 l 2,7,8
 112 541 112 541 103.5 531 c 128,-1,9
 95 521 95 521 95 498 c 2,10,-1
 95 -104 l 2,11,12
 95 -156 95 -156 130 -156 c 2,13,-1
 242 -156 l 2,14,15
 268 -156 268 -156 268 -171 c 0,16,17
 268 -180 268 -180 259.5 -189.5 c 128,-1,18
 251 -199 251 -199 242 -199 c 2,19,-1
 78 -199 l 2,20,21
 59 -199 59 -199 53 -195 c 128,-1,22
 47 -191 47 -191 47 -174 c 2,23,-1
 47 550 l 2,24,25
 47 574 47 574 53.5 579 c 128,-1,26
 60 584 60 584 85 584 c 2,0,-1
EndSplineSet
Validated: 1
Substitution2: "'sups' Superscript lookup 25 subtable" bracketleft.sups
Substitution2: "'sinf' Scientific Inferiors lookup 24 subtable" bracketleft.sinf
Substitution2: "'ordn' Ordinals lookup 23 subtable" bracketleft.ordn
Substitution2: "'subs' Subscript lookup 22 subtable" bracketleft.subs
EndChar

StartChar: backslash
Encoding: 92 92 63
Width: 351
GlyphClass: 2
Flags: W
LayerCount: 2
Fore
SplineSet
22 701 m 0,0,1
 35 701 35 701 41 693.5 c 128,-1,2
 47 686 47 686 60 655 c 2,3,-1
 337 3 l 2,4,5
 346 -20 346 -20 346 -32 c 0,6,7
 346 -46 346 -46 335 -46 c 0,8,9
 313 -46 313 -46 303 -24 c 2,10,-1
 15 642 l 2,11,12
 2 668 2 668 2 677 c 0,13,14
 2 691 2 691 6.5 696 c 128,-1,15
 11 701 11 701 22 701 c 0,0,1
EndSplineSet
Validated: 1
Substitution2: "'sups' Superscript lookup 25 subtable" backslash.sups
Substitution2: "'sinf' Scientific Inferiors lookup 24 subtable" backslash.sinf
Substitution2: "'ordn' Ordinals lookup 23 subtable" backslash.ordn
Substitution2: "'subs' Subscript lookup 22 subtable" backslash.subs
EndChar

StartChar: bracketright
Encoding: 93 93 64
Width: 268
GlyphClass: 2
Flags: W
LayerCount: 2
Fore
SplineSet
183 -199 m 2,0,-1
 18 -199 l 2,1,2
 0 -199 0 -199 0 -185 c 0,3,4
 0 -175 0 -175 6.5 -165.5 c 128,-1,5
 13 -156 13 -156 26 -156 c 2,6,-1
 134 -156 l 2,7,8
 156 -156 156 -156 164.5 -146 c 128,-1,9
 173 -136 173 -136 173 -113 c 2,10,-1
 173 489 l 2,11,12
 173 541 173 541 138 541 c 2,13,-1
 26 541 l 2,14,15
 0 541 0 541 0 556 c 0,16,17
 0 565 0 565 8.5 574.5 c 128,-1,18
 17 584 17 584 26 584 c 2,19,-1
 190 584 l 2,20,21
 209 584 209 584 215 580 c 128,-1,22
 221 576 221 576 221 559 c 2,23,-1
 221 -165 l 2,24,25
 221 -189 221 -189 214.5 -194 c 128,-1,26
 208 -199 208 -199 183 -199 c 2,0,-1
EndSplineSet
Validated: 1
Substitution2: "'sups' Superscript lookup 25 subtable" bracketright.sups
Substitution2: "'sinf' Scientific Inferiors lookup 24 subtable" bracketright.sinf
Substitution2: "'ordn' Ordinals lookup 23 subtable" bracketright.ordn
Substitution2: "'subs' Subscript lookup 22 subtable" bracketright.subs
EndChar

StartChar: underscore
Encoding: 95 95 66
Width: 590
GlyphClass: 2
Flags: W
LayerCount: 2
Fore
SplineSet
69 -117 m 2,0,1
 0 -117 0 -117 0 -101 c 0,2,3
 0 -52 0 -52 83 -52 c 2,4,-1
 521 -52 l 2,5,6
 523 -52 523 -52 528 -52 c 0,7,8
 542 -52 542 -52 550 -52.5 c 128,-1,9
 558 -53 558 -53 569 -54 c 128,-1,10
 580 -55 580 -55 585 -59 c 128,-1,11
 590 -63 590 -63 590 -70 c 0,12,13
 590 -117 590 -117 506 -117 c 2,14,-1
 69 -117 l 2,0,1
EndSplineSet
Validated: 1
Substitution2: "'sups' Superscript lookup 25 subtable" underscore.sups
Substitution2: "'sinf' Scientific Inferiors lookup 24 subtable" underscore.sinf
Substitution2: "'ordn' Ordinals lookup 23 subtable" underscore.ordn
Substitution2: "'subs' Subscript lookup 22 subtable" underscore.subs
EndChar

StartChar: a
Encoding: 97 97 68
Width: 552
GlyphClass: 2
Flags: W
AnchorPoint: "Anchor-4" 284 -80 basechar 0
AnchorPoint: "Anchor-2" 138 15 basechar 0
AnchorPoint: "Anchor-1" 379 15 basechar 0
AnchorPoint: "Anchor-0" 311 630 basechar 0
LayerCount: 2
Fore
SplineSet
227 214 m 2,0,1
 224 206 224 206 226.5 204 c 128,-1,2
 229 202 229 202 241 202 c 2,3,-1
 318 202 l 2,4,5
 327 202 327 202 328 204.5 c 128,-1,6
 329 207 329 207 326 214 c 0,7,8
 325 215 325 215 324.5 216 c 128,-1,9
 324 217 324 217 324 218 c 2,10,-1
 291 327 l 2,11,12
 289 332 289 332 286 334 c 128,-1,13
 283 336 283 336 280 334 c 128,-1,14
 277 332 277 332 275 326 c 2,15,-1
 227 214 l 2,0,1
509 48 m 0,16,17
 539 36 539 36 539 15 c 0,18,19
 539 1 539 1 507 -2 c 0,20,21
 505 -2 505 -2 495 -0.5 c 128,-1,22
 485 1 485 1 466.5 2.5 c 128,-1,23
 448 4 448 4 427 4 c 128,-1,24
 406 4 406 4 388 2.5 c 128,-1,25
 370 1 370 1 360 -0.5 c 128,-1,26
 350 -2 350 -2 348 -2 c 0,27,28
 315 1 315 1 315 15 c 0,29,30
 315 26 315 26 323 32.5 c 128,-1,31
 331 39 331 39 351 46 c 0,32,33
 358 49 358 49 366 60 c 128,-1,34
 374 71 374 71 372 80 c 2,35,-1
 356 133 l 2,36,37
 351 158 351 158 327 158 c 2,38,-1
 230 158 l 2,39,40
 210 158 210 158 202 136 c 2,41,-1
 187 90 l 2,42,43
 175 54 175 54 199 47 c 0,44,45
 242 33 242 33 242 15 c 0,46,47
 242 1 242 1 210 -2 c 0,48,49
 208 -2 208 -2 197.5 -0.5 c 128,-1,50
 187 1 187 1 168 2.5 c 128,-1,51
 149 4 149 4 128 4 c 128,-1,52
 107 4 107 4 88 2.5 c 128,-1,53
 69 1 69 1 58 -0.5 c 128,-1,54
 47 -2 47 -2 45 -2 c 0,55,56
 12 1 12 1 12 15 c 0,57,58
 12 35 12 35 67 52 c 0,59,60
 102 64 102 64 114 92 c 2,61,-1
 245 396 l 2,62,63
 254 417 254 417 258 420 c 0,64,65
 265 426 265 426 274.5 435.5 c 128,-1,66
 284 445 284 445 290.5 451 c 128,-1,67
 297 457 297 457 304 463 c 128,-1,68
 311 469 311 469 316 472 c 128,-1,69
 321 475 321 475 324 475 c 0,70,71
 330 475 330 475 338.5 464.5 c 128,-1,72
 347 454 347 454 352 436 c 2,73,-1
 454 100 l 2,74,75
 457 89 457 89 472.5 73 c 128,-1,76
 488 57 488 57 509 48 c 0,16,17
EndSplineSet
Validated: 33
Substitution2: "'smcp' Lowercase to Small Capitals lookup 48 subtable" a.sc
Substitution2: "'sups' Superscript lookup 25 subtable" a.sups
Substitution2: "'sinf' Scientific Inferiors lookup 24 subtable" a.sinf
Substitution2: "'ordn' Ordinals lookup 23 subtable" a.ordn
Substitution2: "'subs' Subscript lookup 22 subtable" a.subs
EndChar

StartChar: b
Encoding: 98 98 69
Width: 457
GlyphClass: 2
Flags: W
AnchorPoint: "Anchor-4" 198 -80 basechar 0
AnchorPoint: "Anchor-2" 173 15 basechar 0
AnchorPoint: "Anchor-1" 195 15 basechar 0
AnchorPoint: "Anchor-0" 198 630 basechar 0
LayerCount: 2
Fore
SplineSet
202 201 m 2,0,-1
 202 115 l 2,1,2
 202 87 202 87 218.5 70.5 c 128,-1,3
 235 54 235 54 263 54 c 0,4,5
 292 54 292 54 310 78 c 128,-1,6
 328 102 328 102 328 139 c 0,7,8
 328 221 328 221 232 221 c 0,9,10
 202 221 202 221 202 201 c 2,0,-1
202 354 m 2,11,-1
 202 296 l 2,12,13
 202 267 202 267 225 267 c 0,14,15
 269 267 269 267 294 284 c 128,-1,16
 319 301 319 301 319 350 c 0,17,18
 319 374 319 374 294 389 c 128,-1,19
 269 404 269 404 239 404 c 0,20,21
 218 404 218 404 210 395.5 c 128,-1,22
 202 387 202 387 202 354 c 2,11,-1
156 4 m 0,23,24
 135 4 135 4 113.5 2.5 c 128,-1,25
 92 1 92 1 78.5 -0.5 c 128,-1,26
 65 -2 65 -2 63 -2 c 0,27,28
 30 1 30 1 30 15 c 0,29,30
 30 19 30 19 33.5 23 c 128,-1,31
 37 27 37 27 43.5 30.5 c 128,-1,32
 50 34 50 34 56 37 c 128,-1,33
 62 40 62 40 71 43.5 c 128,-1,34
 80 47 80 47 85 49 c 128,-1,35
 90 51 90 51 94 54 c 128,-1,36
 98 57 98 57 101 59.5 c 128,-1,37
 104 62 104 62 106.5 66 c 128,-1,38
 109 70 109 70 110.5 72.5 c 128,-1,39
 112 75 112 75 113 81 c 128,-1,40
 114 87 114 87 114.5 89 c 128,-1,41
 115 91 115 91 115.5 98.5 c 128,-1,42
 116 106 116 106 116 108 c 128,-1,43
 116 110 116 110 116 118.5 c 128,-1,44
 116 127 116 127 116 129 c 2,45,-1
 116 344 l 2,46,47
 116 353 116 353 115.5 359.5 c 128,-1,48
 115 366 115 366 115 371.5 c 128,-1,49
 115 377 115 377 112.5 381.5 c 128,-1,50
 110 386 110 386 109.5 389 c 128,-1,51
 109 392 109 392 104 394.5 c 128,-1,52
 99 397 99 397 98 398.5 c 128,-1,53
 97 400 97 400 89.5 402.5 c 128,-1,54
 82 405 82 405 79 406 c 128,-1,55
 76 407 76 407 65.5 410 c 128,-1,56
 55 413 55 413 50 414 c 0,57,58
 34 419 34 419 34 435 c 0,59,60
 34 443 34 443 45 448 c 128,-1,61
 56 453 56 453 69 453 c 0,62,63
 88 453 88 453 134.5 457 c 128,-1,64
 181 461 181 461 202 461 c 0,65,66
 244 461 244 461 276 457 c 128,-1,67
 308 453 308 453 339 442.5 c 128,-1,68
 370 432 370 432 387 410 c 128,-1,69
 404 388 404 388 404 355 c 0,70,71
 404 286 404 286 321 263 c 0,72,73
 316 262 316 262 315 259.5 c 128,-1,74
 314 257 314 257 317 254.5 c 128,-1,75
 320 252 320 252 325 251 c 0,76,77
 368 244 368 244 397.5 211.5 c 128,-1,78
 427 179 427 179 427 137 c 0,79,80
 427 79 427 79 376 38.5 c 128,-1,81
 325 -2 325 -2 262 -2 c 0,82,83
 250 -2 250 -2 216 1 c 128,-1,84
 182 4 182 4 156 4 c 0,23,24
EndSplineSet
Validated: 1
Substitution2: "'smcp' Lowercase to Small Capitals lookup 48 subtable" b.sc
Substitution2: "'sups' Superscript lookup 25 subtable" b.sups
Substitution2: "'sinf' Scientific Inferiors lookup 24 subtable" b.sinf
Substitution2: "'ordn' Ordinals lookup 23 subtable" b.ordn
Substitution2: "'subs' Subscript lookup 22 subtable" b.subs
EndChar

StartChar: c
Encoding: 99 99 70
Width: 511
GlyphClass: 2
Flags: W
AnchorPoint: "Anchor-4" 280 -80 basechar 0
AnchorPoint: "Anchor-2" 313 15 basechar 0
AnchorPoint: "Anchor-0" 292 630 basechar 0
LayerCount: 2
Fore
SplineSet
311 470 m 0,0,1
 343 470 343 470 376 463 c 128,-1,2
 409 456 409 456 419 448 c 0,3,4
 449 425 449 425 460 413.5 c 128,-1,5
 471 402 471 402 471 392 c 0,6,7
 471 367 471 367 460 342.5 c 128,-1,8
 449 318 449 318 441 318 c 128,-1,9
 433 318 433 318 429 322.5 c 128,-1,10
 425 327 425 327 417 343 c 128,-1,11
 409 359 409 359 401 371 c 0,12,13
 369 420 369 420 300 420 c 0,14,15
 233 420 233 420 191.5 362 c 128,-1,16
 150 304 150 304 150 227 c 0,17,18
 150 152 150 152 188.5 94.5 c 128,-1,19
 227 37 227 37 292 37 c 0,20,21
 339 37 339 37 396 90 c 0,22,23
 403 96 403 96 412.5 110 c 128,-1,24
 422 124 422 124 429.5 134 c 128,-1,25
 437 144 437 144 442 144 c 0,26,27
 458 144 458 144 458 120 c 0,28,29
 458 45 458 45 424 30 c 0,30,31
 335 -10 335 -10 271 -10 c 0,32,33
 178 -10 178 -10 113 58 c 128,-1,34
 48 126 48 126 48 219 c 0,35,36
 48 322 48 322 126.5 396 c 128,-1,37
 205 470 205 470 311 470 c 0,0,1
EndSplineSet
Validated: 1048577
Substitution2: "'smcp' Lowercase to Small Capitals lookup 48 subtable" c.sc
Substitution2: "'sups' Superscript lookup 25 subtable" c.sups
Substitution2: "'sinf' Scientific Inferiors lookup 24 subtable" c.sinf
Substitution2: "'ordn' Ordinals lookup 23 subtable" c.ordn
Substitution2: "'subs' Subscript lookup 22 subtable" c.subs
EndChar

StartChar: d
Encoding: 100 100 71
Width: 579
GlyphClass: 2
Flags: W
AnchorPoint: "Anchor-4" 282 -80 basechar 0
AnchorPoint: "Anchor-2" 307 15 basechar 0
AnchorPoint: "Anchor-0" 282 630 basechar 0
LayerCount: 2
Fore
SplineSet
202 348 m 2,0,-1
 202 122 l 2,1,2
 202 90 202 90 227 69 c 128,-1,3
 252 48 252 48 299 48 c 0,4,5
 370 48 370 48 408.5 105.5 c 128,-1,6
 447 163 447 163 447 242 c 0,7,8
 447 313 447 313 397 361.5 c 128,-1,9
 347 410 347 410 277 410 c 0,10,11
 232 410 232 410 217 397.5 c 128,-1,12
 202 385 202 385 202 348 c 2,0,-1
156 4 m 0,13,14
 135 4 135 4 113.5 2.5 c 128,-1,15
 92 1 92 1 78.5 -0.5 c 128,-1,16
 65 -2 65 -2 63 -2 c 0,17,18
 30 1 30 1 30 15 c 0,19,20
 30 19 30 19 33.5 23 c 128,-1,21
 37 27 37 27 43.5 30.5 c 128,-1,22
 50 34 50 34 56 37 c 128,-1,23
 62 40 62 40 71 43.5 c 128,-1,24
 80 47 80 47 85 49 c 128,-1,25
 90 51 90 51 94 54 c 128,-1,26
 98 57 98 57 101 59.5 c 128,-1,27
 104 62 104 62 106.5 66 c 128,-1,28
 109 70 109 70 110.5 72.5 c 128,-1,29
 112 75 112 75 113 81 c 128,-1,30
 114 87 114 87 114.5 89 c 128,-1,31
 115 91 115 91 115.5 98.5 c 128,-1,32
 116 106 116 106 116 108 c 128,-1,33
 116 110 116 110 116 118.5 c 128,-1,34
 116 127 116 127 116 129 c 2,35,-1
 116 344 l 2,36,37
 116 353 116 353 115.5 359.5 c 128,-1,38
 115 366 115 366 115 371.5 c 128,-1,39
 115 377 115 377 112.5 381.5 c 128,-1,40
 110 386 110 386 109.5 389 c 128,-1,41
 109 392 109 392 104 394.5 c 128,-1,42
 99 397 99 397 98 398.5 c 128,-1,43
 97 400 97 400 89.5 402.5 c 128,-1,44
 82 405 82 405 79 406 c 128,-1,45
 76 407 76 407 65.5 410 c 128,-1,46
 55 413 55 413 50 414 c 0,47,48
 34 419 34 419 34 435 c 0,49,50
 34 443 34 443 45 448 c 128,-1,51
 56 453 56 453 69 453 c 0,52,53
 97 453 97 453 163 458 c 128,-1,54
 229 463 229 463 270 463 c 0,55,56
 338 463 338 463 399.5 443 c 128,-1,57
 461 423 461 423 504 378 c 128,-1,58
 547 333 547 333 547 271 c 0,59,60
 547 155 547 155 472.5 77.5 c 128,-1,61
 398 0 398 0 287 0 c 0,62,63
 271 0 271 0 219 2 c 128,-1,64
 167 4 167 4 156 4 c 0,13,14
EndSplineSet
Validated: 1048577
Substitution2: "'smcp' Lowercase to Small Capitals lookup 48 subtable" d.sc
Substitution2: "'sups' Superscript lookup 25 subtable" d.sups
Substitution2: "'sinf' Scientific Inferiors lookup 24 subtable" d.sinf
Substitution2: "'ordn' Ordinals lookup 23 subtable" d.ordn
Substitution2: "'subs' Subscript lookup 22 subtable" d.subs
EndChar

StartChar: e
Encoding: 101 101 72
Width: 443
GlyphClass: 2
Flags: W
AnchorPoint: "Anchor-4" 222 -80 basechar 0
AnchorPoint: "Anchor-2" 235 15 basechar 0
AnchorPoint: "Anchor-1" 319 15 basechar 0
AnchorPoint: "Anchor-0" 222 630 basechar 0
LayerCount: 2
Fore
SplineSet
156 4 m 0,0,1
 143 4 143 4 107.5 1 c 128,-1,2
 72 -2 72 -2 63 -2 c 0,3,4
 53 -2 53 -2 41.5 3 c 128,-1,5
 30 8 30 8 30 15 c 0,6,7
 30 19 30 19 33.5 23 c 128,-1,8
 37 27 37 27 43.5 30.5 c 128,-1,9
 50 34 50 34 56 37 c 128,-1,10
 62 40 62 40 71 43.5 c 128,-1,11
 80 47 80 47 85 49 c 128,-1,12
 90 51 90 51 94 54 c 128,-1,13
 98 57 98 57 101 59.5 c 128,-1,14
 104 62 104 62 106.5 66 c 128,-1,15
 109 70 109 70 110.5 72.5 c 128,-1,16
 112 75 112 75 113 81 c 128,-1,17
 114 87 114 87 114.5 89 c 128,-1,18
 115 91 115 91 115.5 98.5 c 128,-1,19
 116 106 116 106 116 108 c 128,-1,20
 116 110 116 110 116 118.5 c 128,-1,21
 116 127 116 127 116 129 c 2,22,-1
 116 344 l 2,23,24
 116 353 116 353 115.5 359.5 c 128,-1,25
 115 366 115 366 115 371.5 c 128,-1,26
 115 377 115 377 112.5 381.5 c 128,-1,27
 110 386 110 386 109.5 389 c 128,-1,28
 109 392 109 392 104 394.5 c 128,-1,29
 99 397 99 397 98 398.5 c 128,-1,30
 97 400 97 400 89.5 402.5 c 128,-1,31
 82 405 82 405 79 406 c 128,-1,32
 76 407 76 407 65.5 410 c 128,-1,33
 55 413 55 413 50 414 c 0,34,35
 34 419 34 419 34 435 c 0,36,37
 34 443 34 443 45 448 c 128,-1,38
 56 453 56 453 69 453 c 0,39,40
 89 453 89 453 115.5 451 c 128,-1,41
 142 449 142 449 160 449 c 0,42,43
 177 449 177 449 252.5 451 c 128,-1,44
 328 453 328 453 350 453 c 0,45,46
 362 453 362 453 364.5 451 c 128,-1,47
 367 449 367 449 371 434 c 0,48,49
 377 416 377 416 377 385 c 128,-1,50
 377 354 377 354 360 354 c 0,51,52
 340 354 340 354 327 388 c 0,53,54
 320 406 320 406 296 406 c 2,55,-1
 226 406 l 2,56,57
 210 406 210 406 206 401.5 c 128,-1,58
 202 397 202 397 202 382 c 2,59,-1
 202 296 l 2,60,61
 202 256 202 256 218 256 c 2,62,-1
 268 256 l 2,63,64
 287 256 287 256 298.5 266 c 128,-1,65
 310 276 310 276 317 286 c 128,-1,66
 324 296 324 296 332 296 c 0,67,68
 344 296 344 296 344 229 c 0,69,70
 344 190 344 190 342 175.5 c 128,-1,71
 340 161 340 161 330 161 c 0,72,73
 324 161 324 161 318.5 168 c 128,-1,74
 313 175 313 175 308.5 183 c 128,-1,75
 304 191 304 191 293 198 c 128,-1,76
 282 205 282 205 266 205 c 2,77,-1
 220 205 l 2,78,79
 211 205 211 205 209 204.5 c 128,-1,80
 207 204 207 204 204.5 196.5 c 128,-1,81
 202 189 202 189 202 172 c 2,82,-1
 202 104 l 2,83,84
 202 61 202 61 237 61 c 2,85,-1
 321 61 l 2,86,87
 339 61 339 61 358 106 c 0,88,89
 358 107 358 107 360 110 c 2,90,-1
 362 116 l 2,91,92
 370 138 370 138 387 138 c 0,93,94
 409 138 409 138 409 101 c 0,95,96
 409 75 409 75 393 36.5 c 128,-1,97
 377 -2 377 -2 365 -2 c 0,98,99
 332 -2 332 -2 262 1 c 128,-1,100
 192 4 192 4 156 4 c 0,0,1
EndSplineSet
Validated: 1
Substitution2: "'smcp' Lowercase to Small Capitals lookup 48 subtable" e.sc
Substitution2: "'sups' Superscript lookup 25 subtable" e.sups
Substitution2: "'sinf' Scientific Inferiors lookup 24 subtable" e.sinf
Substitution2: "'ordn' Ordinals lookup 23 subtable" e.ordn
Substitution2: "'subs' Subscript lookup 22 subtable" e.subs
EndChar

StartChar: f
Encoding: 102 102 73
Width: 413
GlyphClass: 2
Flags: W
AnchorPoint: "Anchor-4" 160 -80 basechar 0
AnchorPoint: "Anchor-2" 173 15 basechar 0
AnchorPoint: "Anchor-0" 228 630 basechar 0
LayerCount: 2
Fore
SplineSet
221 205 m 2,0,1
 202 205 202 205 202 181 c 2,2,-1
 202 129 l 2,3,4
 203 81 203 81 212 68 c 0,5,6
 221 56 221 56 235 49 c 0,7,8
 240 47 240 47 249 43.5 c 128,-1,9
 258 40 258 40 264 37 c 128,-1,10
 270 34 270 34 276.5 30.5 c 128,-1,11
 283 27 283 27 286.5 23 c 128,-1,12
 290 19 290 19 290 15 c 0,13,14
 290 1 290 1 258 -2 c 0,15,16
 256 -2 256 -2 240.5 -0.5 c 128,-1,17
 225 1 225 1 201.5 2.5 c 128,-1,18
 178 4 178 4 157 4 c 128,-1,19
 136 4 136 4 114.5 2.5 c 128,-1,20
 93 1 93 1 79.5 -0.5 c 128,-1,21
 66 -2 66 -2 64 -2 c 0,22,23
 30 1 30 1 30 15 c 0,24,25
 30 19 30 19 33.5 23 c 128,-1,26
 37 27 37 27 43.5 30.5 c 128,-1,27
 50 34 50 34 56 37 c 128,-1,28
 62 40 62 40 71 43.5 c 128,-1,29
 80 47 80 47 85 49 c 128,-1,30
 90 51 90 51 94 54 c 128,-1,31
 98 57 98 57 101 59.5 c 128,-1,32
 104 62 104 62 106.5 66 c 128,-1,33
 109 70 109 70 110.5 72.5 c 128,-1,34
 112 75 112 75 113 81 c 128,-1,35
 114 87 114 87 114.5 89 c 128,-1,36
 115 91 115 91 115.5 98.5 c 128,-1,37
 116 106 116 106 116 108 c 128,-1,38
 116 110 116 110 116 118.5 c 128,-1,39
 116 127 116 127 116 129 c 2,40,-1
 116 344 l 2,41,42
 116 353 116 353 115.5 359.5 c 128,-1,43
 115 366 115 366 115 371.5 c 128,-1,44
 115 377 115 377 112.5 381.5 c 128,-1,45
 110 386 110 386 109.5 389 c 128,-1,46
 109 392 109 392 104 394.5 c 128,-1,47
 99 397 99 397 98 398.5 c 128,-1,48
 97 400 97 400 89.5 402.5 c 128,-1,49
 82 405 82 405 79 406 c 128,-1,50
 76 407 76 407 65.5 410 c 128,-1,51
 55 413 55 413 50 414 c 0,52,53
 34 419 34 419 34 435 c 0,54,55
 34 443 34 443 45 448 c 128,-1,56
 56 453 56 453 69 453 c 0,57,58
 89 453 89 453 115.5 450.5 c 128,-1,59
 142 448 142 448 160 448 c 0,60,61
 180 448 180 448 268.5 450.5 c 128,-1,62
 357 453 357 453 362 453 c 0,63,64
 374 453 374 453 376.5 450.5 c 128,-1,65
 379 448 379 448 383 434 c 0,66,67
 389 410 389 410 389 385 c 0,68,69
 389 354 389 354 372 354 c 0,70,71
 352 354 352 354 339 388 c 0,72,73
 332 406 332 406 308 406 c 2,74,-1
 227 406 l 2,75,76
 211 406 211 406 207 401.5 c 128,-1,77
 203 397 203 397 203 382 c 2,78,-1
 203 296 l 2,79,80
 203 256 203 256 219 256 c 2,81,-1
 280 256 l 2,82,83
 299 256 299 256 313 266 c 128,-1,84
 327 276 327 276 334 286 c 128,-1,85
 341 296 341 296 344 296 c 0,86,87
 356 296 356 296 356 229 c 0,88,89
 356 190 356 190 354 175.5 c 128,-1,90
 352 161 352 161 342 161 c 0,91,92
 339 161 339 161 332.5 172 c 128,-1,93
 326 183 326 183 312 194 c 128,-1,94
 298 205 298 205 278 205 c 2,95,-1
 221 205 l 2,0,1
EndSplineSet
Validated: 1048577
Substitution2: "'smcp' Lowercase to Small Capitals lookup 48 subtable" f.sc
Substitution2: "'sups' Superscript lookup 25 subtable" f.sups
Substitution2: "'sinf' Scientific Inferiors lookup 24 subtable" f.sinf
Substitution2: "'ordn' Ordinals lookup 23 subtable" f.ordn
Substitution2: "'subs' Subscript lookup 22 subtable" f.subs
Substitution2: "'locl' Localized Forms in Latin lookup 0 subtable" f.DEU
EndChar

StartChar: g
Encoding: 103 103 74
Width: 502
GlyphClass: 2
Flags: W
AnchorPoint: "Anchor-4" 271 -80 basechar 0
AnchorPoint: "Anchor-2" 298 15 basechar 0
AnchorPoint: "Anchor-0" 298 630 basechar 0
LayerCount: 2
Fore
SplineSet
437 77 m 2,0,1
 437 70 437 70 437.5 60 c 128,-1,2
 438 50 438 50 438 48.5 c 128,-1,3
 438 47 438 47 435 42.5 c 128,-1,4
 432 38 432 38 428.5 36 c 128,-1,5
 425 34 425 34 415 30 c 0,6,7
 326 -10 326 -10 262 -10 c 0,8,9
 169 -10 169 -10 104 58 c 128,-1,10
 39 126 39 126 39 219 c 0,11,12
 39 322 39 322 117.5 396 c 128,-1,13
 196 470 196 470 302 470 c 0,14,15
 371 470 371 470 431 446 c 0,16,17
 451 437 451 437 451 410 c 0,18,19
 451 382 451 382 445 353 c 128,-1,20
 439 324 439 324 432 324 c 0,21,22
 420 324 420 324 412.5 334.5 c 128,-1,23
 405 345 405 345 395 371 c 0,24,25
 386 394 386 394 355.5 407 c 128,-1,26
 325 420 325 420 291 420 c 0,27,28
 224 420 224 420 182.5 362 c 128,-1,29
 141 304 141 304 141 227 c 0,30,31
 141 152 141 152 179.5 94.5 c 128,-1,32
 218 37 218 37 283 37 c 0,33,34
 309 37 309 37 330 50.5 c 128,-1,35
 351 64 351 64 351 82 c 2,36,-1
 351 135 l 2,37,38
 351 152 351 152 340.5 158 c 128,-1,39
 330 164 330 164 285 177 c 0,40,41
 269 182 269 182 269 198 c 0,42,43
 269 206 269 206 280 211 c 128,-1,44
 291 216 291 216 304 216 c 0,45,46
 324 216 324 216 350.5 213.5 c 128,-1,47
 377 211 377 211 395 211 c 128,-1,48
 413 211 413 211 429.5 213.5 c 128,-1,49
 446 216 446 216 463 216 c 0,50,51
 489 216 489 216 489 198 c 0,52,53
 489 183 489 183 474 177 c 0,54,55
 437 165 437 165 437 135 c 2,56,-1
 437 77 l 2,0,1
EndSplineSet
Validated: 1048577
Substitution2: "'smcp' Lowercase to Small Capitals lookup 48 subtable" g.sc
Substitution2: "'sups' Superscript lookup 25 subtable" g.sups
Substitution2: "'sinf' Scientific Inferiors lookup 24 subtable" g.sinf
Substitution2: "'ordn' Ordinals lookup 23 subtable" g.ordn
Substitution2: "'subs' Subscript lookup 22 subtable" g.subs
EndChar

StartChar: h
Encoding: 104 104 75
Width: 644
GlyphClass: 2
Flags: W
AnchorPoint: "Anchor-4" 322 -80 basechar 0
AnchorPoint: "Anchor-2" 173 15 basechar 0
AnchorPoint: "Anchor-0" 322 630 basechar 0
LayerCount: 2
Fore
SplineSet
202 184 m 2,0,-1
 202 129 l 2,1,2
 202 58 202 58 222 49 c 0,3,4
 227 47 227 47 236 43.5 c 128,-1,5
 245 40 245 40 251 37 c 128,-1,6
 257 34 257 34 263.5 30.5 c 128,-1,7
 270 27 270 27 273.5 23 c 128,-1,8
 277 19 277 19 277 15 c 0,9,10
 277 1 277 1 245 -2 c 0,11,12
 243 -2 243 -2 230.5 -0.5 c 128,-1,13
 218 1 218 1 197.5 2.5 c 128,-1,14
 177 4 177 4 156 4 c 128,-1,15
 135 4 135 4 113.5 2.5 c 128,-1,16
 92 1 92 1 78.5 -0.5 c 128,-1,17
 65 -2 65 -2 63 -2 c 0,18,19
 30 1 30 1 30 15 c 0,20,21
 30 19 30 19 33.5 23 c 128,-1,22
 37 27 37 27 43.5 30.5 c 128,-1,23
 50 34 50 34 56 37 c 128,-1,24
 62 40 62 40 71 43.5 c 128,-1,25
 80 47 80 47 85 49 c 128,-1,26
 90 51 90 51 94 54 c 128,-1,27
 98 57 98 57 101 59.5 c 128,-1,28
 104 62 104 62 106.5 66 c 128,-1,29
 109 70 109 70 110.5 72.5 c 128,-1,30
 112 75 112 75 113 81 c 128,-1,31
 114 87 114 87 114.5 89 c 128,-1,32
 115 91 115 91 115.5 98.5 c 128,-1,33
 116 106 116 106 116 108 c 128,-1,34
 116 110 116 110 116 118.5 c 128,-1,35
 116 127 116 127 116 129 c 2,36,-1
 116 344 l 2,37,38
 116 353 116 353 115.5 359.5 c 128,-1,39
 115 366 115 366 115 371.5 c 128,-1,40
 115 377 115 377 112.5 381.5 c 128,-1,41
 110 386 110 386 109.5 389 c 128,-1,42
 109 392 109 392 104 394.5 c 128,-1,43
 99 397 99 397 98 398.5 c 128,-1,44
 97 400 97 400 89.5 402.5 c 128,-1,45
 82 405 82 405 79 406 c 128,-1,46
 76 407 76 407 65.5 410 c 128,-1,47
 55 413 55 413 50 414 c 0,48,49
 34 419 34 419 34 435 c 0,50,51
 34 443 34 443 45 448 c 128,-1,52
 56 453 56 453 69 453 c 0,53,54
 89 453 89 453 115.5 450.5 c 128,-1,55
 142 448 142 448 160 448 c 128,-1,56
 178 448 178 448 200 450.5 c 128,-1,57
 222 453 222 453 239 453 c 0,58,59
 252 453 252 453 263 448 c 128,-1,60
 274 443 274 443 274 435 c 0,61,62
 274 419 274 419 259 414 c 0,63,64
 218 403 218 403 210 394 c 128,-1,65
 202 385 202 385 202 344 c 2,66,-1
 202 266 l 2,67,68
 202 248 202 248 215 248 c 2,69,-1
 418 248 l 2,70,71
 437 249 437 249 437 266 c 2,72,-1
 437 344 l 2,73,74
 437 385 437 385 429 394 c 128,-1,75
 421 403 421 403 383 414 c 0,76,77
 367 419 367 419 367 435 c 0,78,79
 367 443 367 443 378 448 c 128,-1,80
 389 453 389 453 402 453 c 0,81,82
 422 453 422 453 442.5 450.5 c 128,-1,83
 463 448 463 448 481 448 c 128,-1,84
 499 448 499 448 526.5 450.5 c 128,-1,85
 554 453 554 453 571 453 c 0,86,87
 584 453 584 453 595 448 c 128,-1,88
 606 443 606 443 606 435 c 0,89,90
 606 419 606 419 591 414 c 0,91,92
 543 400 543 400 536 394 c 0,93,94
 523 384 523 384 523 344 c 2,95,-1
 523 129 l 2,96,97
 523 80 523 80 533 66 c 0,98,99
 540 55 540 55 555 49 c 0,100,101
 560 47 560 47 569 43.5 c 128,-1,102
 578 40 578 40 584 37 c 128,-1,103
 590 34 590 34 596.5 30.5 c 128,-1,104
 603 27 603 27 606.5 23 c 128,-1,105
 610 19 610 19 610 15 c 0,106,107
 610 1 610 1 578 -2 c 0,108,109
 576 -2 576 -2 560.5 -0.5 c 128,-1,110
 545 1 545 1 521.5 2.5 c 128,-1,111
 498 4 498 4 477 4 c 128,-1,112
 456 4 456 4 437.5 2.5 c 128,-1,113
 419 1 419 1 408.5 -0.5 c 128,-1,114
 398 -2 398 -2 396 -2 c 0,115,116
 363 1 363 1 363 15 c 0,117,118
 363 19 363 19 366.5 23 c 128,-1,119
 370 27 370 27 376.5 30.5 c 128,-1,120
 383 34 383 34 389 37 c 128,-1,121
 395 40 395 40 404 43.5 c 128,-1,122
 413 47 413 47 418 49 c 0,123,124
 425 52 425 52 429.5 57.5 c 128,-1,125
 434 63 434 63 435.5 72.5 c 128,-1,126
 437 82 437 82 437.5 87.5 c 128,-1,127
 438 93 438 93 437.5 108 c 128,-1,128
 437 123 437 123 437 129 c 2,129,-1
 437 187 l 2,130,131
 437 203 437 203 424 203 c 2,132,-1
 216 203 l 2,133,134
 202 203 202 203 202 184 c 2,0,-1
EndSplineSet
Validated: 1048577
Substitution2: "'smcp' Lowercase to Small Capitals lookup 48 subtable" h.sc
Substitution2: "'sups' Superscript lookup 25 subtable" h.sups
Substitution2: "'sinf' Scientific Inferiors lookup 24 subtable" h.sinf
Substitution2: "'ordn' Ordinals lookup 23 subtable" h.ordn
Substitution2: "'subs' Subscript lookup 22 subtable" h.subs
EndChar

StartChar: i
Encoding: 105 105 76
Width: 300
GlyphClass: 2
Flags: W
AnchorPoint: "Anchor-4" 150 -80 basechar 0
AnchorPoint: "Anchor-2" 163 15 basechar 0
AnchorPoint: "Anchor-1" 185 15 basechar 0
AnchorPoint: "Anchor-0" 150 630 basechar 0
LayerCount: 2
Fore
SplineSet
240 453 m 0,0,1
 253 453 253 453 264 448 c 128,-1,2
 275 443 275 443 275 435 c 0,3,4
 275 419 275 419 260 414 c 0,5,6
 212 400 212 400 205 394 c 0,7,8
 192 384 192 384 192 344 c 2,9,-1
 192 129 l 2,10,11
 192 80 192 80 202 66 c 0,12,13
 209 55 209 55 224 49 c 0,14,15
 229 47 229 47 238 43.5 c 128,-1,16
 247 40 247 40 253 37 c 128,-1,17
 259 34 259 34 265.5 30.5 c 128,-1,18
 272 27 272 27 275.5 23 c 128,-1,19
 279 19 279 19 279 15 c 0,20,21
 279 1 279 1 247 -2 c 0,22,23
 245 -2 245 -2 229.5 -0.5 c 128,-1,24
 214 1 214 1 190.5 2.5 c 128,-1,25
 167 4 167 4 146 4 c 128,-1,26
 125 4 125 4 103.5 2.5 c 128,-1,27
 82 1 82 1 68.5 -0.5 c 128,-1,28
 55 -2 55 -2 53 -2 c 0,29,30
 20 1 20 1 20 15 c 0,31,32
 20 19 20 19 23.5 23 c 128,-1,33
 27 27 27 27 33.5 30.5 c 128,-1,34
 40 34 40 34 46 37 c 128,-1,35
 52 40 52 40 61 43.5 c 128,-1,36
 70 47 70 47 75 49 c 128,-1,37
 80 51 80 51 84 54 c 128,-1,38
 88 57 88 57 91 59.5 c 128,-1,39
 94 62 94 62 96.5 66 c 128,-1,40
 99 70 99 70 100.5 72.5 c 128,-1,41
 102 75 102 75 103 81 c 128,-1,42
 104 87 104 87 104.5 89 c 128,-1,43
 105 91 105 91 105.5 98.5 c 128,-1,44
 106 106 106 106 106 108 c 128,-1,45
 106 110 106 110 106 118.5 c 128,-1,46
 106 127 106 127 106 129 c 2,47,-1
 106 344 l 2,48,49
 106 353 106 353 105.5 359.5 c 128,-1,50
 105 366 105 366 105 371.5 c 128,-1,51
 105 377 105 377 102.5 381.5 c 128,-1,52
 100 386 100 386 99.5 389 c 128,-1,53
 99 392 99 392 94 394.5 c 128,-1,54
 89 397 89 397 88 398.5 c 128,-1,55
 87 400 87 400 79.5 402.5 c 128,-1,56
 72 405 72 405 69 406 c 128,-1,57
 66 407 66 407 55.5 410 c 128,-1,58
 45 413 45 413 40 414 c 0,59,60
 24 419 24 419 24 435 c 0,61,62
 24 443 24 443 35 448 c 128,-1,63
 46 453 46 453 59 453 c 0,64,65
 79 453 79 453 105.5 450.5 c 128,-1,66
 132 448 132 448 150 448 c 128,-1,67
 168 448 168 448 195.5 450.5 c 128,-1,68
 223 453 223 453 240 453 c 0,0,1
EndSplineSet
Validated: 1
Substitution2: "'smcp' Lowercase to Small Capitals lookup 48 subtable" i.sc
Substitution2: "'sups' Superscript lookup 25 subtable" i.sups
Substitution2: "'sinf' Scientific Inferiors lookup 24 subtable" i.sinf
Substitution2: "'ordn' Ordinals lookup 23 subtable" i.ordn
Substitution2: "'subs' Subscript lookup 22 subtable" i.subs
Substitution2: "Single Substitution lookup 8 subtable" dotlessi
Substitution2: "'locl' Localized Forms in Latin lookup 1 subtable" i.TRK
EndChar

StartChar: j
Encoding: 106 106 77
Width: 294
GlyphClass: 2
Flags: W
LayerCount: 2
Fore
SplineSet
116 13 m 2,0,-1
 116 344 l 2,1,2
 116 353 116 353 115.5 359.5 c 128,-1,3
 115 366 115 366 115 371.5 c 128,-1,4
 115 377 115 377 112.5 381.5 c 128,-1,5
 110 386 110 386 109.5 389 c 128,-1,6
 109 392 109 392 104 394.5 c 128,-1,7
 99 397 99 397 98 398.5 c 128,-1,8
 97 400 97 400 89.5 402.5 c 128,-1,9
 82 405 82 405 79 406 c 128,-1,10
 76 407 76 407 65.5 410 c 128,-1,11
 55 413 55 413 50 414 c 0,12,13
 34 419 34 419 34 435 c 0,14,15
 34 443 34 443 45 448 c 128,-1,16
 56 453 56 453 69 453 c 0,17,18
 89 453 89 453 115.5 450.5 c 128,-1,19
 142 448 142 448 160 448 c 128,-1,20
 178 448 178 448 205.5 450.5 c 128,-1,21
 233 453 233 453 250 453 c 0,22,23
 263 453 263 453 274 448 c 128,-1,24
 285 443 285 443 285 435 c 0,25,26
 285 419 285 419 270 414 c 0,27,28
 222 400 222 400 215 394 c 0,29,30
 202 384 202 384 202 344 c 2,31,-1
 202 49 l 2,32,33
 202 -49 202 -49 156 -124 c 128,-1,34
 110 -199 110 -199 27 -199 c 0,35,36
 -11 -199 -11 -199 -46.5 -183.5 c 128,-1,37
 -82 -168 -82 -168 -82 -146 c 0,38,39
 -82 -123 -82 -123 -65 -105 c 128,-1,40
 -48 -87 -48 -87 -26 -87 c 0,41,42
 -13 -87 -13 -87 -2.5 -102 c 128,-1,43
 8 -117 8 -117 19.5 -132 c 128,-1,44
 31 -147 31 -147 47 -147 c 0,45,46
 71 -147 71 -147 86.5 -133 c 128,-1,47
 102 -119 102 -119 107.5 -90.5 c 128,-1,48
 113 -62 113 -62 114.5 -42 c 128,-1,49
 116 -22 116 -22 116 13 c 2,0,-1
EndSplineSet
Validated: 1
Substitution2: "'smcp' Lowercase to Small Capitals lookup 48 subtable" j.sc
Substitution2: "'sups' Superscript lookup 25 subtable" j.sups
Substitution2: "'sinf' Scientific Inferiors lookup 24 subtable" j.sinf
Substitution2: "'ordn' Ordinals lookup 23 subtable" j.ordn
Substitution2: "'subs' Subscript lookup 22 subtable" j.subs
EndChar

StartChar: k
Encoding: 107 107 78
Width: 541
GlyphClass: 2
Flags: W
AnchorPoint: "Anchor-4" 285 -80 basechar 0
AnchorPoint: "Anchor-2" 173 15 basechar 0
AnchorPoint: "Anchor-0" 285 630 basechar 0
LayerCount: 2
Fore
SplineSet
380 352 m 2,0,-1
 313 270 l 2,1,2
 303 258 303 258 304 252 c 128,-1,3
 305 246 305 246 321 226 c 2,4,-1
 422 98 l 2,5,6
 442 72 442 72 498 48 c 0,7,8
 528 36 528 36 528 15 c 0,9,10
 528 1 528 1 496 -2 c 0,11,12
 494 -2 494 -2 484 -0.5 c 128,-1,13
 474 1 474 1 455.5 2.5 c 128,-1,14
 437 4 437 4 416 4 c 128,-1,15
 395 4 395 4 377 2.5 c 128,-1,16
 359 1 359 1 349 -0.5 c 128,-1,17
 339 -2 339 -2 337 -2 c 0,18,19
 304 1 304 1 304 15 c 0,20,21
 304 26 304 26 312 32.5 c 128,-1,22
 320 39 320 39 340 46 c 0,23,24
 358 53 358 53 337 81 c 2,25,-1
 273 162 l 2,26,27
 247 195 247 195 219 195 c 0,28,29
 209 194 209 194 205.5 191 c 128,-1,30
 202 188 202 188 202 179 c 2,31,-1
 202 96 l 2,32,33
 202 60 202 60 226 49 c 0,34,35
 264 32 264 32 264 15 c 0,36,37
 264 1 264 1 232 -2 c 0,38,39
 230 -2 230 -2 221 -0.5 c 128,-1,40
 212 1 212 1 194.5 2.5 c 128,-1,41
 177 4 177 4 156 4 c 128,-1,42
 135 4 135 4 113.5 2.5 c 128,-1,43
 92 1 92 1 78.5 -0.5 c 128,-1,44
 65 -2 65 -2 63 -2 c 0,45,46
 30 1 30 1 30 15 c 0,47,48
 30 19 30 19 33.5 23 c 128,-1,49
 37 27 37 27 43.5 30.5 c 128,-1,50
 50 34 50 34 56 37 c 128,-1,51
 62 40 62 40 71 43.5 c 128,-1,52
 80 47 80 47 85 49 c 128,-1,53
 90 51 90 51 94 54 c 128,-1,54
 98 57 98 57 101 59.5 c 128,-1,55
 104 62 104 62 106.5 66 c 128,-1,56
 109 70 109 70 110.5 72.5 c 128,-1,57
 112 75 112 75 113 81 c 128,-1,58
 114 87 114 87 114.5 89 c 128,-1,59
 115 91 115 91 115.5 98.5 c 128,-1,60
 116 106 116 106 116 108 c 128,-1,61
 116 110 116 110 116 118.5 c 128,-1,62
 116 127 116 127 116 129 c 2,63,-1
 116 344 l 2,64,65
 116 353 116 353 115.5 359.5 c 128,-1,66
 115 366 115 366 115 371.5 c 128,-1,67
 115 377 115 377 112.5 381.5 c 128,-1,68
 110 386 110 386 109.5 389 c 128,-1,69
 109 392 109 392 104 394.5 c 128,-1,70
 99 397 99 397 98 398.5 c 128,-1,71
 97 400 97 400 89.5 402.5 c 128,-1,72
 82 405 82 405 79 406 c 128,-1,73
 76 407 76 407 65.5 410 c 128,-1,74
 55 413 55 413 50 414 c 0,75,76
 34 419 34 419 34 435 c 0,77,78
 34 443 34 443 45 448 c 128,-1,79
 56 453 56 453 69 453 c 0,80,81
 89 453 89 453 115.5 450.5 c 128,-1,82
 142 448 142 448 160 448 c 128,-1,83
 178 448 178 448 199.5 450.5 c 128,-1,84
 221 453 221 453 238 453 c 0,85,86
 251 453 251 453 262 448 c 128,-1,87
 273 443 273 443 273 435 c 0,88,89
 273 419 273 419 258 414 c 0,90,91
 215 402 215 402 208.5 394 c 128,-1,92
 202 386 202 386 202 344 c 2,93,-1
 202 262 l 2,94,95
 202 250 202 250 204 247 c 128,-1,96
 206 244 206 244 213 244 c 0,97,98
 233 244 233 244 277 297 c 2,99,-1
 344 379 l 2,100,101
 352 389 352 389 348 399.5 c 128,-1,102
 344 410 344 410 330 414 c 0,103,104
 314 419 314 419 314 435 c 0,105,106
 314 443 314 443 325 448 c 128,-1,107
 336 453 336 453 349 453 c 0,108,109
 353 453 353 453 373 450.5 c 128,-1,110
 393 448 393 448 403 448 c 0,111,112
 416 448 416 448 443.5 450.5 c 128,-1,113
 471 453 471 453 483 453 c 0,114,115
 496 453 496 453 507 448 c 128,-1,116
 518 443 518 443 518 435 c 0,117,118
 518 419 518 419 503 414 c 0,119,120
 432 394 432 394 411 380 c 0,121,122
 394 369 394 369 380 352 c 2,0,-1
EndSplineSet
Validated: 1048609
Substitution2: "'smcp' Lowercase to Small Capitals lookup 48 subtable" k.sc
Substitution2: "'sups' Superscript lookup 25 subtable" k.sups
Substitution2: "'sinf' Scientific Inferiors lookup 24 subtable" k.sinf
Substitution2: "'ordn' Ordinals lookup 23 subtable" k.ordn
Substitution2: "'subs' Subscript lookup 22 subtable" k.subs
EndChar

StartChar: l
Encoding: 108 108 79
Width: 483
GlyphClass: 2
Flags: W
AnchorPoint: "Anchor-4" 247 -80 basechar 0
AnchorPoint: "Anchor-2" 290 15 basechar 0
AnchorPoint: "Anchor-0" 161 630 basechar 0
LayerCount: 2
Fore
SplineSet
152 4 m 0,0,1
 131 4 131 4 110.5 2.5 c 128,-1,2
 90 1 90 1 77.5 -0.5 c 128,-1,3
 65 -2 65 -2 63 -2 c 0,4,5
 30 1 30 1 30 15 c 0,6,7
 30 19 30 19 33.5 23 c 128,-1,8
 37 27 37 27 43.5 30.5 c 128,-1,9
 50 34 50 34 56 37 c 128,-1,10
 62 40 62 40 71 43.5 c 128,-1,11
 80 47 80 47 85 49 c 128,-1,12
 90 51 90 51 94 54 c 128,-1,13
 98 57 98 57 101 59.5 c 128,-1,14
 104 62 104 62 106.5 66 c 128,-1,15
 109 70 109 70 110.5 72.5 c 128,-1,16
 112 75 112 75 113 81 c 128,-1,17
 114 87 114 87 114.5 89 c 128,-1,18
 115 91 115 91 115.5 98.5 c 128,-1,19
 116 106 116 106 116 108 c 128,-1,20
 116 110 116 110 116 118.5 c 128,-1,21
 116 127 116 127 116 129 c 2,22,-1
 116 344 l 2,23,24
 116 353 116 353 115.5 359.5 c 128,-1,25
 115 366 115 366 115 371.5 c 128,-1,26
 115 377 115 377 112.5 381.5 c 128,-1,27
 110 386 110 386 109.5 389 c 128,-1,28
 109 392 109 392 104 394.5 c 128,-1,29
 99 397 99 397 98 398.5 c 128,-1,30
 97 400 97 400 89.5 402.5 c 128,-1,31
 82 405 82 405 79 406 c 128,-1,32
 76 407 76 407 65.5 410 c 128,-1,33
 55 413 55 413 50 414 c 0,34,35
 34 419 34 419 34 435 c 0,36,37
 34 443 34 443 45 448 c 128,-1,38
 56 453 56 453 69 453 c 0,39,40
 89 453 89 453 115.5 450.5 c 128,-1,41
 142 448 142 448 160 448 c 128,-1,42
 178 448 178 448 205.5 450.5 c 128,-1,43
 233 453 233 453 250 453 c 0,44,45
 263 453 263 453 274 448 c 128,-1,46
 285 443 285 443 285 435 c 0,47,48
 285 419 285 419 270 414 c 0,49,50
 222 400 222 400 215 394 c 0,51,52
 202 384 202 384 202 344 c 2,53,-1
 202 129 l 2,54,55
 202 89 202 89 212.5 77.5 c 128,-1,56
 223 66 223 66 256 66 c 2,57,-1
 342 66 l 2,58,59
 361 66 361 66 378 86.5 c 128,-1,60
 395 107 395 107 405 130 c 0,61,62
 413 152 413 152 430 152 c 0,63,64
 452 152 452 152 452 115 c 0,65,66
 452 105 452 105 445 79 c 128,-1,67
 438 53 438 53 419.5 25.5 c 128,-1,68
 401 -2 401 -2 379 -2 c 0,69,70
 345 -2 345 -2 265 1 c 128,-1,71
 185 4 185 4 152 4 c 0,0,1
EndSplineSet
Validated: 1048577
Substitution2: "'smcp' Lowercase to Small Capitals lookup 48 subtable" l.sc
Substitution2: "'sups' Superscript lookup 25 subtable" l.sups
Substitution2: "'sinf' Scientific Inferiors lookup 24 subtable" l.sinf
Substitution2: "'ordn' Ordinals lookup 23 subtable" l.ordn
Substitution2: "'subs' Subscript lookup 22 subtable" l.subs
Substitution2: "'locl' Localized Forms in Latin lookup 2 subtable" l.CAT
EndChar

StartChar: m
Encoding: 109 109 80
Width: 721
GlyphClass: 2
Flags: W
AnchorPoint: "Anchor-4" 358 -80 basechar 0
AnchorPoint: "Anchor-2" 400 15 basechar 0
AnchorPoint: "Anchor-1" 422 15 basechar 0
AnchorPoint: "Anchor-0" 374 630 basechar 0
LayerCount: 2
Fore
SplineSet
502 46 m 0,0,1
 510 48 510 48 513.5 57.5 c 128,-1,2
 517 67 517 67 517 75 c 128,-1,3
 517 83 517 83 516 95 c 128,-1,4
 515 107 515 107 515 108 c 2,5,-1
 502 268 l 2,6,7
 500 284 500 284 495 282 c 0,8,9
 492 282 492 282 489 275 c 2,10,-1
 414 127 l 2,11,12
 412 124 412 124 397.5 89.5 c 128,-1,13
 383 55 383 55 371.5 37 c 128,-1,14
 360 19 360 19 350 19 c 0,15,16
 346 19 346 19 342.5 20 c 128,-1,17
 339 21 339 21 335.5 23.5 c 128,-1,18
 332 26 332 26 329.5 28.5 c 128,-1,19
 327 31 327 31 324 35.5 c 128,-1,20
 321 40 321 40 319 43 c 128,-1,21
 317 46 317 46 313.5 52.5 c 128,-1,22
 310 59 310 59 308.5 62 c 128,-1,23
 307 65 307 65 303.5 72.5 c 128,-1,24
 300 80 300 80 299 83 c 2,25,-1
 205 287 l 2,26,27
 198 302 198 302 195 278 c 2,28,-1
 194 267 l 1,29,-1
 187 138 l 2,30,31
 185 110 185 110 195.5 83 c 128,-1,32
 206 56 206 56 222 49 c 0,33,34
 227 47 227 47 236.5 43 c 128,-1,35
 246 39 246 39 251.5 36.5 c 128,-1,36
 257 34 257 34 264 30.5 c 128,-1,37
 271 27 271 27 274 23 c 128,-1,38
 277 19 277 19 277 15 c 0,39,40
 277 1 277 1 245 -2 c 0,41,42
 243 -2 243 -2 227.5 -0.5 c 128,-1,43
 212 1 212 1 188.5 2.5 c 128,-1,44
 165 4 165 4 144 4 c 128,-1,45
 123 4 123 4 103 2.5 c 128,-1,46
 83 1 83 1 70.5 -0.5 c 128,-1,47
 58 -2 58 -2 56 -2 c 0,48,49
 23 1 23 1 23 15 c 0,50,51
 23 34 23 34 73 49 c 0,52,53
 124 66 124 66 128 107 c 2,54,-1
 152 308 l 2,55,56
 156 341 156 341 151 359.5 c 128,-1,57
 146 378 146 378 139.5 383 c 128,-1,58
 133 388 133 388 118 393 c 0,59,60
 117 394 117 394 50 414 c 0,61,62
 34 419 34 419 34 435 c 0,63,64
 34 443 34 443 45 448 c 128,-1,65
 56 453 56 453 69 453 c 0,66,67
 89 453 89 453 137.5 450.5 c 128,-1,68
 186 448 186 448 204 448 c 0,69,70
 231 448 231 448 241 428 c 2,71,-1
 351 196 l 2,72,73
 374 149 374 149 404 212 c 2,74,-1
 503 423 l 2,75,76
 515 448 515 448 551 448 c 0,77,78
 557 448 557 448 591.5 450.5 c 128,-1,79
 626 453 626 453 645 453 c 0,80,81
 658 453 658 453 669 448 c 128,-1,82
 680 443 680 443 680 435 c 0,83,84
 680 419 680 419 665 414 c 0,85,86
 642 407 642 407 634 405 c 128,-1,87
 626 403 626 403 613 397 c 128,-1,88
 600 391 600 391 596.5 385.5 c 128,-1,89
 593 380 593 380 590 370.5 c 128,-1,90
 587 361 587 361 588 348 c 2,91,-1
 601 171 l 2,92,93
 606 101 606 101 616 79.5 c 128,-1,94
 626 58 626 58 650 50 c 0,95,96
 693 36 693 36 693 15 c 0,97,98
 693 1 693 1 661 -2 c 0,99,100
 659 -2 659 -2 649.5 -0.5 c 128,-1,101
 640 1 640 1 622.5 2.5 c 128,-1,102
 605 4 605 4 584 4 c 128,-1,103
 563 4 563 4 541.5 2.5 c 128,-1,104
 520 1 520 1 506.5 -0.5 c 128,-1,105
 493 -2 493 -2 491 -2 c 0,106,107
 458 1 458 1 458 15 c 0,108,109
 458 33 458 33 502 46 c 0,0,1
EndSplineSet
Validated: 33
Substitution2: "'smcp' Lowercase to Small Capitals lookup 48 subtable" m.sc
Substitution2: "'sups' Superscript lookup 25 subtable" m.sups
Substitution2: "'sinf' Scientific Inferiors lookup 24 subtable" m.sinf
Substitution2: "'ordn' Ordinals lookup 23 subtable" m.ordn
Substitution2: "'subs' Subscript lookup 22 subtable" m.subs
EndChar

StartChar: n
Encoding: 110 110 81
Width: 539
GlyphClass: 2
Flags: W
AnchorPoint: "Anchor-4" 294 -80 basechar 0
AnchorPoint: "Anchor-0" 276 630 basechar 0
LayerCount: 2
Fore
SplineSet
415 344 m 2,0,1
 415 397 415 397 363 414 c 0,2,3
 347 419 347 419 347 435 c 0,4,5
 347 453 347 453 374 453 c 0,6,7
 381 453 381 453 406 450.5 c 128,-1,8
 431 448 431 448 445 448 c 0,9,10
 458 448 458 448 478.5 450.5 c 128,-1,11
 499 453 499 453 508 453 c 0,12,13
 537 453 537 453 537 435 c 0,14,15
 537 418 537 418 522 414 c 0,16,17
 502 408 502 408 487.5 389.5 c 128,-1,18
 473 371 473 371 473 346 c 2,19,-1
 473 167 l 2,20,21
 473 149 473 149 476.5 110.5 c 128,-1,22
 480 72 480 72 480 62 c 0,23,24
 480 -10 480 -10 466 -10 c 0,25,26
 451 -10 451 -10 431.5 6.5 c 128,-1,27
 412 23 412 23 374 70 c 2,28,-1
 199 289 l 2,29,30
 196 292 196 292 194 284 c 0,31,32
 191 271 191 271 191 245 c 2,33,-1
 191 129 l 2,34,35
 191 80 191 80 201 66 c 0,36,37
 208 55 208 55 223 49 c 0,38,39
 238 42 238 42 244.5 38.5 c 128,-1,40
 251 35 251 35 258.5 28.5 c 128,-1,41
 266 22 266 22 266 15 c 0,42,43
 266 1 266 1 234 -2 c 0,44,45
 232 -2 232 -2 222.5 -0.5 c 128,-1,46
 213 1 213 1 195 2.5 c 128,-1,47
 177 4 177 4 156 4 c 128,-1,48
 135 4 135 4 116 2.5 c 128,-1,49
 97 1 97 1 86 -0.5 c 128,-1,50
 75 -2 75 -2 73 -2 c 0,51,52
 40 1 40 1 40 15 c 0,53,54
 40 19 40 19 43.5 23 c 128,-1,55
 47 27 47 27 53.5 30.5 c 128,-1,56
 60 34 60 34 66 37 c 128,-1,57
 72 40 72 40 81 43.5 c 128,-1,58
 90 47 90 47 95 49 c 128,-1,59
 100 51 100 51 104 54 c 128,-1,60
 108 57 108 57 111 59.5 c 128,-1,61
 114 62 114 62 116.5 66 c 128,-1,62
 119 70 119 70 120.5 72.5 c 128,-1,63
 122 75 122 75 123 81 c 128,-1,64
 124 87 124 87 124.5 89 c 128,-1,65
 125 91 125 91 125.5 98.5 c 128,-1,66
 126 106 126 106 126 108 c 128,-1,67
 126 110 126 110 126 118.5 c 128,-1,68
 126 127 126 127 126 129 c 2,69,-1
 126 315 l 2,70,71
 126 365 126 365 111 379 c 0,72,73
 89 401 89 401 50 414 c 0,74,75
 34 419 34 419 34 435 c 0,76,77
 34 443 34 443 45 448 c 128,-1,78
 56 453 56 453 69 453 c 0,79,80
 89 453 89 453 116.5 450.5 c 128,-1,81
 144 448 144 448 160 448 c 0,82,83
 182 448 182 448 222 398 c 2,84,-1
 398 180 l 2,85,86
 400 178 400 178 404 173 c 0,87,88
 414 166 414 166 415 174 c 2,89,-1
 415 344 l 2,0,1
EndSplineSet
Validated: 1
Substitution2: "'smcp' Lowercase to Small Capitals lookup 48 subtable" n.sc
Substitution2: "'sups' Superscript lookup 25 subtable" n.sups
Substitution2: "'sinf' Scientific Inferiors lookup 24 subtable" n.sinf
Substitution2: "'ordn' Ordinals lookup 23 subtable" n.ordn
Substitution2: "'subs' Subscript lookup 22 subtable" n.subs
EndChar

StartChar: o
Encoding: 111 111 82
Width: 560
GlyphClass: 2
Flags: W
AnchorPoint: "Anchor-4" 285 -80 basechar 0
AnchorPoint: "Anchor-2" 311 15 basechar 0
AnchorPoint: "Anchor-1" 333 15 basechar 0
AnchorPoint: "Anchor-0" 286 630 basechar 0
LayerCount: 2
Fore
SplineSet
141 254 m 0,0,1
 141 168 141 168 179.5 101 c 128,-1,2
 218 34 218 34 289 34 c 0,3,4
 352 34 352 34 387 94 c 128,-1,5
 422 154 422 154 422 231 c 0,6,7
 422 306 422 306 378 365 c 128,-1,8
 334 424 334 424 266 424 c 0,9,10
 209 424 209 424 175 372 c 128,-1,11
 141 320 141 320 141 254 c 0,0,1
289 470 m 0,12,13
 385 470 385 470 455 409 c 128,-1,14
 525 348 525 348 525 256 c 0,15,16
 525 145 525 145 446 67.5 c 128,-1,17
 367 -10 367 -10 256 -10 c 0,18,19
 165 -10 165 -10 102 55.5 c 128,-1,20
 39 121 39 121 39 213 c 0,21,22
 39 319 39 319 112 394.5 c 128,-1,23
 185 470 185 470 289 470 c 0,12,13
EndSplineSet
Validated: 1
Substitution2: "'smcp' Lowercase to Small Capitals lookup 48 subtable" o.sc
Substitution2: "'sups' Superscript lookup 25 subtable" o.sups
Substitution2: "'sinf' Scientific Inferiors lookup 24 subtable" o.sinf
Substitution2: "'ordn' Ordinals lookup 23 subtable" o.ordn
Substitution2: "'subs' Subscript lookup 22 subtable" o.subs
EndChar

StartChar: p
Encoding: 112 112 83
Width: 460
GlyphClass: 2
Flags: W
AnchorPoint: "Anchor-4" 160 -80 basechar 0
AnchorPoint: "Anchor-2" 173 15 basechar 0
AnchorPoint: "Anchor-1" 195 15 basechar 0
AnchorPoint: "Anchor-0" 160 630 basechar 0
LayerCount: 2
Fore
SplineSet
202 344 m 2,0,-1
 202 129 l 2,1,2
 202 80 202 80 212 66 c 0,3,4
 219 55 219 55 234 49 c 0,5,6
 239 47 239 47 248 43.5 c 128,-1,7
 257 40 257 40 263 37 c 128,-1,8
 269 34 269 34 275.5 30.5 c 128,-1,9
 282 27 282 27 285.5 23 c 128,-1,10
 289 19 289 19 289 15 c 0,11,12
 289 1 289 1 257 -2 c 0,13,14
 255 -2 255 -2 239.5 -0.5 c 128,-1,15
 224 1 224 1 200.5 2.5 c 128,-1,16
 177 4 177 4 156 4 c 128,-1,17
 135 4 135 4 113.5 2.5 c 128,-1,18
 92 1 92 1 78.5 -0.5 c 128,-1,19
 65 -2 65 -2 63 -2 c 0,20,21
 30 1 30 1 30 15 c 0,22,23
 30 19 30 19 33.5 23 c 128,-1,24
 37 27 37 27 43.5 30.5 c 128,-1,25
 50 34 50 34 56 37 c 128,-1,26
 62 40 62 40 71 43.5 c 128,-1,27
 80 47 80 47 85 49 c 128,-1,28
 90 51 90 51 94 54 c 128,-1,29
 98 57 98 57 101 59.5 c 128,-1,30
 104 62 104 62 106.5 66 c 128,-1,31
 109 70 109 70 110.5 72.5 c 128,-1,32
 112 75 112 75 113 81 c 128,-1,33
 114 87 114 87 114.5 89 c 128,-1,34
 115 91 115 91 115.5 98.5 c 128,-1,35
 116 106 116 106 116 108 c 128,-1,36
 116 110 116 110 116 118.5 c 128,-1,37
 116 127 116 127 116 129 c 2,38,-1
 116 344 l 2,39,40
 116 353 116 353 115.5 359.5 c 128,-1,41
 115 366 115 366 115 371.5 c 128,-1,42
 115 377 115 377 112.5 381.5 c 128,-1,43
 110 386 110 386 109.5 389 c 128,-1,44
 109 392 109 392 104 394.5 c 128,-1,45
 99 397 99 397 98 398.5 c 128,-1,46
 97 400 97 400 89.5 402.5 c 128,-1,47
 82 405 82 405 79 406 c 128,-1,48
 76 407 76 407 65.5 410 c 128,-1,49
 55 413 55 413 50 414 c 0,50,51
 34 419 34 419 34 435 c 0,52,53
 34 443 34 443 45 448 c 128,-1,54
 56 453 56 453 69 453 c 0,55,56
 87 453 87 453 131 456.5 c 128,-1,57
 175 460 175 460 203 460 c 0,58,59
 258 460 258 460 306 447 c 128,-1,60
 354 434 354 434 389.5 401.5 c 128,-1,61
 425 369 425 369 425 322 c 0,62,63
 425 265 425 265 377 220 c 128,-1,64
 329 175 329 175 280 175 c 0,65,66
 252 175 252 175 252 191 c 0,67,68
 252 208 252 208 271 213 c 0,69,70
 293 219 293 219 309.5 246.5 c 128,-1,71
 326 274 326 274 326 315 c 0,72,73
 326 361 326 361 300.5 382.5 c 128,-1,74
 275 404 275 404 236 404 c 0,75,76
 221 404 221 404 215.5 401.5 c 128,-1,77
 210 399 210 399 206 386 c 128,-1,78
 202 373 202 373 202 344 c 2,0,-1
EndSplineSet
Validated: 1
Substitution2: "'smcp' Lowercase to Small Capitals lookup 48 subtable" p.sc
Substitution2: "'sups' Superscript lookup 25 subtable" p.sups
Substitution2: "'sinf' Scientific Inferiors lookup 24 subtable" p.sinf
Substitution2: "'ordn' Ordinals lookup 23 subtable" p.ordn
Substitution2: "'subs' Subscript lookup 22 subtable" p.subs
EndChar

StartChar: q
Encoding: 113 113 84
Width: 585
GlyphClass: 2
Flags: W
AnchorPoint: "Anchor-4" 160 -80 basechar 0
AnchorPoint: "Anchor-2" 173 15 basechar 0
AnchorPoint: "Anchor-1" 195 15 basechar 0
AnchorPoint: "Anchor-0" 160 630 basechar 0
LayerCount: 2
Fore
SplineSet
144 230 m 0,0,1
 144 138 144 138 187 69 c 128,-1,2
 230 0 230 0 308 0 c 0,3,4
 343 0 343 0 368.5 19.5 c 128,-1,5
 394 39 394 39 408 71.5 c 128,-1,6
 422 104 422 104 428 139.5 c 128,-1,7
 434 175 434 175 434 215 c 0,8,9
 434 298 434 298 393.5 361 c 128,-1,10
 353 424 353 424 281 424 c 0,11,12
 216 424 216 424 180 365.5 c 128,-1,13
 144 307 144 307 144 230 c 0,0,1
310 470 m 0,14,15
 404 470 404 470 470.5 404 c 128,-1,16
 537 338 537 338 537 244 c 0,17,18
 537 192 537 192 524 143.5 c 128,-1,19
 511 95 511 95 479 53 c 128,-1,20
 447 11 447 11 401 -6 c 0,21,22
 391 -10 391 -10 391 -15 c 0,23,24
 390 -16 390 -16 392 -17 c 0,25,26
 408 -25 408 -25 470.5 -57.5 c 128,-1,27
 533 -90 533 -90 565.5 -104.5 c 128,-1,28
 598 -119 598 -119 653 -141 c 128,-1,29
 708 -163 708 -163 757.5 -172.5 c 128,-1,30
 807 -182 807 -182 857 -182 c 0,31,32
 896 -182 896 -182 926.5 -171.5 c 128,-1,33
 957 -161 957 -161 961 -161 c 0,34,35
 978 -161 978 -161 978 -180 c 0,36,37
 978 -203 978 -203 918.5 -225 c 128,-1,38
 859 -247 859 -247 806 -247 c 0,39,40
 738 -247 738 -247 659.5 -220.5 c 128,-1,41
 581 -194 581 -194 468 -143 c 128,-1,42
 355 -92 355 -92 290 -68 c 0,43,44
 236 -48 236 -48 207 -28 c 0,45,46
 124 28 124 28 81.5 81.5 c 128,-1,47
 39 135 39 135 39 215 c 0,48,49
 39 322 39 322 120 396 c 128,-1,50
 201 470 201 470 310 470 c 0,14,15
EndSplineSet
Validated: 1
Substitution2: "'smcp' Lowercase to Small Capitals lookup 48 subtable" q.sc
Substitution2: "'sups' Superscript lookup 25 subtable" q.sups
Substitution2: "'sinf' Scientific Inferiors lookup 24 subtable" q.sinf
Substitution2: "'ordn' Ordinals lookup 23 subtable" q.ordn
Substitution2: "'subs' Subscript lookup 22 subtable" q.subs
EndChar

StartChar: r
Encoding: 114 114 85
Width: 540
GlyphClass: 2
Flags: W
AnchorPoint: "Anchor-4" 282 -80 basechar 0
AnchorPoint: "Anchor-2" 178 15 basechar 0
AnchorPoint: "Anchor-0" 229 630 basechar 0
LayerCount: 2
Fore
SplineSet
202 274 m 2,0,1
 202 238 202 238 235 238 c 0,2,3
 271 238 271 238 297 264.5 c 128,-1,4
 323 291 323 291 323 327 c 0,5,6
 323 360 323 360 297.5 381.5 c 128,-1,7
 272 403 272 403 237 403 c 0,8,9
 222 403 222 403 212 394 c 128,-1,10
 202 385 202 385 202 370 c 2,11,-1
 202 274 l 2,0,1
272 455 m 0,12,13
 331 455 331 455 374 420.5 c 128,-1,14
 417 386 417 386 417 332 c 0,15,16
 417 291 417 291 393.5 260.5 c 128,-1,17
 370 230 370 230 331 219 c 0,18,19
 318 216 318 216 329 208 c 0,20,21
 363 180 363 180 416.5 111 c 128,-1,22
 470 42 470 42 497 31 c 0,23,24
 506 27 506 27 517 23 c 128,-1,25
 528 19 528 19 534.5 17 c 128,-1,26
 541 15 541 15 546.5 12 c 128,-1,27
 552 9 552 9 554.5 6 c 128,-1,28
 557 3 557 3 557 -2 c 0,29,30
 557 -37 557 -37 487 -37 c 0,31,32
 468 -37 468 -37 441.5 -27.5 c 128,-1,33
 415 -18 415 -18 397 0 c 0,34,35
 372 25 372 25 333.5 75 c 128,-1,36
 295 125 295 125 272 149 c 0,37,38
 240 183 240 183 217 183 c 0,39,40
 208 183 208 183 207 183 c 128,-1,41
 206 183 206 183 204 177.5 c 128,-1,42
 202 172 202 172 202 158 c 2,43,-1
 202 129 l 2,44,45
 202 80 202 80 212 66 c 0,46,47
 219 55 219 55 234 49 c 0,48,49
 239 47 239 47 248 43.5 c 128,-1,50
 257 40 257 40 263 37 c 128,-1,51
 269 34 269 34 275.5 30.5 c 128,-1,52
 282 27 282 27 285.5 23 c 128,-1,53
 289 19 289 19 289 15 c 0,54,55
 289 1 289 1 257 -2 c 0,56,57
 255 -2 255 -2 239.5 -0.5 c 128,-1,58
 224 1 224 1 200.5 2.5 c 128,-1,59
 177 4 177 4 156 4 c 128,-1,60
 135 4 135 4 113.5 2.5 c 128,-1,61
 92 1 92 1 78.5 -0.5 c 128,-1,62
 65 -2 65 -2 63 -2 c 0,63,64
 30 1 30 1 30 15 c 0,65,66
 30 19 30 19 33.5 23 c 128,-1,67
 37 27 37 27 43.5 30.5 c 128,-1,68
 50 34 50 34 56 37 c 128,-1,69
 62 40 62 40 71 43.5 c 128,-1,70
 80 47 80 47 85 49 c 128,-1,71
 90 51 90 51 94 54 c 128,-1,72
 98 57 98 57 101 59.5 c 128,-1,73
 104 62 104 62 106.5 66 c 128,-1,74
 109 70 109 70 110.5 72.5 c 128,-1,75
 112 75 112 75 113 81 c 128,-1,76
 114 87 114 87 114.5 89 c 128,-1,77
 115 91 115 91 115.5 98.5 c 128,-1,78
 116 106 116 106 116 108 c 128,-1,79
 116 110 116 110 116 118.5 c 128,-1,80
 116 127 116 127 116 129 c 2,81,-1
 116 344 l 2,82,83
 116 353 116 353 115.5 359.5 c 128,-1,84
 115 366 115 366 115 371.5 c 128,-1,85
 115 377 115 377 112.5 381.5 c 128,-1,86
 110 386 110 386 109.5 389 c 128,-1,87
 109 392 109 392 104 394.5 c 128,-1,88
 99 397 99 397 98 398.5 c 128,-1,89
 97 400 97 400 89.5 402.5 c 128,-1,90
 82 405 82 405 79 406 c 128,-1,91
 76 407 76 407 65.5 410 c 128,-1,92
 55 413 55 413 50 414 c 0,93,94
 34 419 34 419 34 435 c 0,95,96
 34 443 34 443 45 448 c 128,-1,97
 56 453 56 453 69 453 c 0,98,99
 89 453 89 453 115.5 450.5 c 128,-1,100
 142 448 142 448 160 448 c 0,101,102
 177 448 177 448 215 451.5 c 128,-1,103
 253 455 253 455 272 455 c 0,12,13
EndSplineSet
Validated: 1048577
Substitution2: "'smcp' Lowercase to Small Capitals lookup 48 subtable" r.sc
Substitution2: "'sups' Superscript lookup 25 subtable" r.sups
Substitution2: "'sinf' Scientific Inferiors lookup 24 subtable" r.sinf
Substitution2: "'ordn' Ordinals lookup 23 subtable" r.ordn
Substitution2: "'subs' Subscript lookup 22 subtable" r.subs
EndChar

StartChar: s
Encoding: 115 115 86
Width: 360
GlyphClass: 2
Flags: WO
AnchorPoint: "Anchor-4" 176 -80 basechar 0
AnchorPoint: "Anchor-2" 220 15 basechar 0
AnchorPoint: "Anchor-0" 190 630 basechar 0
LayerCount: 2
Fore
SplineSet
213 470 m 0,0,1
 229 470 229 470 241.5 467 c 128,-1,2
 254 464 254 464 266.5 459 c 128,-1,3
 279 454 279 454 287 452 c 0,4,5
 310 445 310 445 310 431 c 0,6,7
 310 360 310 360 294 360 c 0,8,9
 276 360 276 360 266 378 c 0,10,11
 247 412 247 412 194 412 c 0,12,13
 171 412 171 412 154.5 397.5 c 128,-1,14
 138 383 138 383 138 361 c 0,15,16
 138 331 138 331 159 313 c 128,-1,17
 180 295 180 295 232 268 c 0,18,19
 294 236 294 236 316 205.5 c 128,-1,20
 338 175 338 175 338 121 c 0,21,22
 338 58 338 58 280.5 24 c 128,-1,23
 223 -10 223 -10 148 -10 c 0,24,25
 112 -10 112 -10 83.5 1.5 c 128,-1,26
 55 13 55 13 51 25 c 0,27,28
 37 60 37 60 37 100 c 0,29,30
 37 117 37 117 52 117 c 0,31,32
 61 117 61 117 77 97.5 c 128,-1,33
 93 78 93 78 119 58 c 128,-1,34
 145 38 145 38 177 38 c 0,35,36
 204 38 204 38 221.5 57.5 c 128,-1,37
 239 77 239 77 239 105 c 0,38,39
 239 124 239 124 230.5 140 c 128,-1,40
 222 156 222 156 203 170 c 128,-1,41
 184 184 184 184 171.5 191.5 c 128,-1,42
 159 199 159 199 133 212 c 0,43,44
 43 256 43 256 43 341 c 0,45,46
 43 400 43 400 94.5 435 c 128,-1,47
 146 470 146 470 213 470 c 0,0,1
EndSplineSet
Substitution2: "'smcp' Lowercase to Small Capitals lookup 48 subtable" s.sc
Substitution2: "Single Substitution lookup 40 subtable" longs
Substitution2: "'sups' Superscript lookup 25 subtable" s.sups
Substitution2: "'sinf' Scientific Inferiors lookup 24 subtable" s.sinf
Substitution2: "'ordn' Ordinals lookup 23 subtable" s.ordn
Substitution2: "'subs' Subscript lookup 22 subtable" s.subs
EndChar

StartChar: t
Encoding: 116 116 87
Width: 532
GlyphClass: 2
Flags: W
AnchorPoint: "Anchor-4" 265 -80 basechar 0
AnchorPoint: "Anchor-2" 278 15 basechar 0
AnchorPoint: "Anchor-0" 265 630 basechar 0
LayerCount: 2
Fore
SplineSet
221 343 m 2,0,1
 221 373 221 373 216.5 380.5 c 128,-1,2
 212 388 212 388 200 388 c 2,3,-1
 120 388 l 2,4,5
 109 388 109 388 89 360.5 c 128,-1,6
 69 333 69 333 63 333 c 0,7,8
 39 333 39 333 39 359 c 0,9,10
 39 400 39 400 49.5 432 c 128,-1,11
 60 464 60 464 75 464 c 0,12,13
 81 464 81 464 107 451 c 128,-1,14
 133 438 133 438 161 438 c 2,15,-1
 376 438 l 2,16,17
 407 438 407 438 442 452 c 128,-1,18
 477 466 477 466 480 466 c 0,19,20
 501 466 501 466 501 437 c 0,21,22
 501 423 501 423 488.5 385 c 128,-1,23
 476 347 476 347 466 347 c 0,24,25
 458 347 458 347 444 367.5 c 128,-1,26
 430 388 430 388 412 388 c 2,27,-1
 336 388 l 2,28,29
 322 388 322 388 318 387 c 128,-1,30
 314 386 314 386 310.5 377 c 128,-1,31
 307 368 307 368 307 345 c 2,32,-1
 307 129 l 2,33,34
 307 80 307 80 317 66 c 0,35,36
 324 55 324 55 339 49 c 0,37,38
 344 47 344 47 353 43.5 c 128,-1,39
 362 40 362 40 368 37 c 128,-1,40
 374 34 374 34 380.5 30.5 c 128,-1,41
 387 27 387 27 390.5 23 c 128,-1,42
 394 19 394 19 394 15 c 0,43,44
 394 1 394 1 362 -2 c 0,45,46
 360 -2 360 -2 344.5 -0.5 c 128,-1,47
 329 1 329 1 305.5 2.5 c 128,-1,48
 282 4 282 4 261 4 c 128,-1,49
 240 4 240 4 218.5 2.5 c 128,-1,50
 197 1 197 1 183.5 -0.5 c 128,-1,51
 170 -2 170 -2 168 -2 c 0,52,53
 135 1 135 1 135 15 c 0,54,55
 135 19 135 19 138.5 23 c 128,-1,56
 142 27 142 27 148.5 30.5 c 128,-1,57
 155 34 155 34 161 37 c 128,-1,58
 167 40 167 40 176 43.5 c 128,-1,59
 185 47 185 47 190 49 c 128,-1,60
 195 51 195 51 199 54 c 128,-1,61
 203 57 203 57 206 59.5 c 128,-1,62
 209 62 209 62 211.5 66 c 128,-1,63
 214 70 214 70 215.5 72.5 c 128,-1,64
 217 75 217 75 218 81 c 128,-1,65
 219 87 219 87 219.5 89 c 128,-1,66
 220 91 220 91 220.5 98.5 c 128,-1,67
 221 106 221 106 221 108 c 128,-1,68
 221 110 221 110 221 118.5 c 128,-1,69
 221 127 221 127 221 129 c 2,70,-1
 221 343 l 2,0,1
EndSplineSet
Validated: 1048577
Substitution2: "'smcp' Lowercase to Small Capitals lookup 48 subtable" t.sc
Substitution2: "'sups' Superscript lookup 25 subtable" t.sups
Substitution2: "'sinf' Scientific Inferiors lookup 24 subtable" t.sinf
Substitution2: "'ordn' Ordinals lookup 23 subtable" t.ordn
Substitution2: "'subs' Subscript lookup 22 subtable" t.subs
EndChar

StartChar: u
Encoding: 117 117 88
Width: 570
GlyphClass: 2
Flags: W
AnchorPoint: "Anchor-4" 303 -80 basechar 0
AnchorPoint: "Anchor-2" 338 15 basechar 0
AnchorPoint: "Anchor-1" 360 15 basechar 0
AnchorPoint: "Anchor-0" 299 630 basechar 0
LayerCount: 2
Fore
SplineSet
94 344 m 2,0,1
 94 353 94 353 93.5 359.5 c 128,-1,2
 93 366 93 366 93 371.5 c 128,-1,3
 93 377 93 377 90.5 381.5 c 128,-1,4
 88 386 88 386 87.5 389 c 128,-1,5
 87 392 87 392 82 394.5 c 128,-1,6
 77 397 77 397 76 398.5 c 128,-1,7
 75 400 75 400 67.5 402.5 c 128,-1,8
 60 405 60 405 57 406 c 128,-1,9
 54 407 54 407 43.5 410 c 128,-1,10
 33 413 33 413 28 414 c 0,11,12
 12 419 12 419 12 435 c 0,13,14
 12 443 12 443 23 448 c 128,-1,15
 34 453 34 453 47 453 c 0,16,17
 67 453 67 453 93.5 450.5 c 128,-1,18
 120 448 120 448 138 448 c 128,-1,19
 156 448 156 448 183.5 450.5 c 128,-1,20
 211 453 211 453 228 453 c 0,21,22
 241 453 241 453 252 448 c 128,-1,23
 263 443 263 443 263 435 c 0,24,25
 263 419 263 419 248 414 c 0,26,27
 200 400 200 400 193 394 c 0,28,29
 180 384 180 384 180 344 c 2,30,-1
 180 179 l 2,31,32
 180 124 180 124 217.5 83.5 c 128,-1,33
 255 43 255 43 308 43 c 0,34,35
 370 43 370 43 403 78.5 c 128,-1,36
 436 114 436 114 436 175 c 2,37,-1
 436 338 l 2,38,39
 436 363 436 363 419.5 384.5 c 128,-1,40
 403 406 403 406 385 411 c 0,41,42
 364 417 364 417 364 435 c 0,43,44
 364 443 364 443 375 448 c 128,-1,45
 386 453 386 453 399 453 c 0,46,47
 408 453 408 453 427 450.5 c 128,-1,48
 446 448 446 448 457 448 c 0,49,50
 467 448 467 448 491 450.5 c 128,-1,51
 515 453 515 453 525 453 c 0,52,53
 538 453 538 453 549 448 c 128,-1,54
 560 443 560 443 560 435 c 0,55,56
 560 418 560 418 543 414 c 0,57,58
 509 405 509 405 497.5 388.5 c 128,-1,59
 486 372 486 372 486 342 c 2,60,-1
 486 204 l 2,61,62
 486 113 486 113 429.5 50.5 c 128,-1,63
 373 -12 373 -12 286 -12 c 0,64,65
 196 -12 196 -12 145 52 c 128,-1,66
 94 116 94 116 94 207 c 2,67,-1
 94 344 l 2,0,1
EndSplineSet
Validated: 1
Substitution2: "'smcp' Lowercase to Small Capitals lookup 48 subtable" u.sc
Substitution2: "Single Substitution lookup 36 subtable" u.LAT
Substitution2: "'sups' Superscript lookup 25 subtable" u.sups
Substitution2: "'sinf' Scientific Inferiors lookup 24 subtable" u.sinf
Substitution2: "'ordn' Ordinals lookup 23 subtable" u.ordn
Substitution2: "'subs' Subscript lookup 22 subtable" u.subs
Substitution2: "'locl' Localized Forms in Latin lookup 4 subtable" u.LAT
EndChar

StartChar: v
Encoding: 118 118 89
Width: 549
GlyphClass: 2
Flags: W
AnchorPoint: "Anchor-4" 185 -82 basechar 0
AnchorPoint: "Anchor-0" 185 628 basechar 0
LayerCount: 2
Fore
SplineSet
416 289 m 2,0,-1
 335 113 l 2,1,2
 326 94 326 94 314.5 57 c 128,-1,3
 303 20 303 20 293.5 5 c 128,-1,4
 284 -10 284 -10 267 -10 c 0,5,6
 262 -10 262 -10 257 -6.5 c 128,-1,7
 252 -3 252 -3 246.5 4.5 c 128,-1,8
 241 12 241 12 237 19.5 c 128,-1,9
 233 27 233 27 227 40.5 c 128,-1,10
 221 54 221 54 217.5 63 c 128,-1,11
 214 72 214 72 207.5 89.5 c 128,-1,12
 201 107 201 107 197 116 c 2,13,-1
 117 314 l 2,14,15
 83 397 83 397 21 414 c 0,16,17
 5 419 5 419 5 435 c 0,18,19
 5 443 5 443 16 448 c 128,-1,20
 27 453 27 453 40 453 c 128,-1,21
 53 453 53 453 85 450.5 c 128,-1,22
 117 448 117 448 131 448 c 128,-1,23
 145 448 145 448 178.5 450.5 c 128,-1,24
 212 453 212 453 221 453 c 0,25,26
 234 453 234 453 245 448 c 128,-1,27
 256 443 256 443 256 435 c 0,28,29
 256 418 256 418 233 411 c 0,30,31
 204 403 204 403 199 394.5 c 128,-1,32
 194 386 194 386 204 360 c 2,33,-1
 275 184 l 2,34,35
 289 151 289 151 305 186 c 2,36,-1
 385 360 l 2,37,38
 404 400 404 400 364 411 c 0,39,40
 343 417 343 417 343 435 c 0,41,42
 343 443 343 443 354 448 c 128,-1,43
 365 453 365 453 378 453 c 0,44,45
 387 453 387 453 406 450.5 c 128,-1,46
 425 448 425 448 436 448 c 0,47,48
 446 448 446 448 472.5 450.5 c 128,-1,49
 499 453 499 453 509 453 c 0,50,51
 522 453 522 453 533 448 c 128,-1,52
 544 443 544 443 544 435 c 0,53,54
 544 418 544 418 527 414 c 0,55,56
 491 404 491 404 468 377.5 c 128,-1,57
 445 351 445 351 416 289 c 2,0,-1
EndSplineSet
Validated: 33
Substitution2: "'smcp' Lowercase to Small Capitals lookup 48 subtable" v.sc
Substitution2: "'sups' Superscript lookup 25 subtable" v.sups
Substitution2: "'sinf' Scientific Inferiors lookup 24 subtable" v.sinf
Substitution2: "'ordn' Ordinals lookup 23 subtable" v.ordn
Substitution2: "'subs' Subscript lookup 22 subtable" v.subs
EndChar

StartChar: w
Encoding: 119 119 90
Width: 765
GlyphClass: 2
Flags: W
AnchorPoint: "Anchor-4" 371 -80 basechar 0
AnchorPoint: "Anchor-0" 399 630 basechar 0
LayerCount: 2
Fore
SplineSet
335 394 m 0,0,1
 317 408 317 408 295 414 c 0,2,3
 279 419 279 419 279 435 c 0,4,5
 279 443 279 443 290 448 c 128,-1,6
 301 453 301 453 314 453 c 128,-1,7
 327 453 327 453 359 450.5 c 128,-1,8
 391 448 391 448 405 448 c 128,-1,9
 419 448 419 448 452.5 450.5 c 128,-1,10
 486 453 486 453 495 453 c 0,11,12
 508 453 508 453 519 448 c 128,-1,13
 530 443 530 443 530 435 c 0,14,15
 530 418 530 418 507 411 c 0,16,17
 457 398 457 398 448 388 c 0,18,19
 438 378 438 378 444 360 c 2,20,-1
 503 184 l 2,21,22
 518 149 518 149 533 186 c 2,23,-1
 601 360 l 2,24,25
 611 381 611 381 604.5 393.5 c 128,-1,26
 598 406 598 406 580 411 c 0,27,28
 559 417 559 417 559 435 c 0,29,30
 559 443 559 443 570 448 c 128,-1,31
 581 453 581 453 594 453 c 0,32,33
 603 453 603 453 622 450.5 c 128,-1,34
 641 448 641 448 652 448 c 0,35,36
 662 448 662 448 688.5 450.5 c 128,-1,37
 715 453 715 453 725 453 c 0,38,39
 738 453 738 453 749 448 c 128,-1,40
 760 443 760 443 760 435 c 0,41,42
 760 418 760 418 743 414 c 0,43,44
 709 405 709 405 687.5 379.5 c 128,-1,45
 666 354 666 354 632 289 c 1,46,-1
 563 113 l 2,47,48
 557 98 557 98 550 76.5 c 128,-1,49
 543 55 543 55 538.5 42 c 128,-1,50
 534 29 534 29 528 15.5 c 128,-1,51
 522 2 522 2 514 -4 c 128,-1,52
 506 -10 506 -10 495 -10 c 0,53,54
 478 -10 478 -10 463 21 c 128,-1,55
 448 52 448 52 425 116 c 2,56,-1
 381 248 l 2,57,58
 379 254 379 254 376.5 257 c 128,-1,59
 374 260 374 260 371.5 258 c 128,-1,60
 369 256 369 256 367 250 c 2,61,-1
 323 113 l 2,62,63
 320 103 320 103 315 87 c 128,-1,64
 310 71 310 71 307 61.5 c 128,-1,65
 304 52 304 52 299.5 39 c 128,-1,66
 295 26 295 26 291 18.5 c 128,-1,67
 287 11 287 11 281.5 4 c 128,-1,68
 276 -3 276 -3 269.5 -6.5 c 128,-1,69
 263 -10 263 -10 255 -10 c 0,70,71
 250 -10 250 -10 245 -6.5 c 128,-1,72
 240 -3 240 -3 234.5 4.5 c 128,-1,73
 229 12 229 12 225 19.5 c 128,-1,74
 221 27 221 27 215 40.5 c 128,-1,75
 209 54 209 54 205.5 63 c 128,-1,76
 202 72 202 72 195.5 89.5 c 128,-1,77
 189 107 189 107 185 116 c 2,78,-1
 117 314 l 2,79,80
 107 344 107 344 83 373.5 c 128,-1,81
 59 403 59 403 21 414 c 0,82,83
 5 419 5 419 5 435 c 0,84,85
 5 443 5 443 16 448 c 128,-1,86
 27 453 27 453 40 453 c 128,-1,87
 53 453 53 453 85 450.5 c 128,-1,88
 117 448 117 448 131 448 c 128,-1,89
 145 448 145 448 178.5 450.5 c 128,-1,90
 212 453 212 453 221 453 c 0,91,92
 234 453 234 453 245 448 c 128,-1,93
 256 443 256 443 256 435 c 0,94,95
 256 418 256 418 233 411 c 0,96,97
 204 404 204 404 199.5 395 c 128,-1,98
 195 386 195 386 204 360 c 2,99,-1
 263 184 l 2,100,101
 267 175 267 175 271.5 170.5 c 128,-1,102
 276 166 276 166 282 169 c 128,-1,103
 288 172 288 172 293 186 c 2,104,-1
 349 360 l 2,105,106
 356 379 356 379 335 394 c 0,0,1
EndSplineSet
Validated: 33
Substitution2: "'smcp' Lowercase to Small Capitals lookup 48 subtable" w.sc
Substitution2: "'sups' Superscript lookup 25 subtable" w.sups
Substitution2: "'sinf' Scientific Inferiors lookup 24 subtable" w.sinf
Substitution2: "'ordn' Ordinals lookup 23 subtable" w.ordn
Substitution2: "'subs' Subscript lookup 22 subtable" w.subs
EndChar

StartChar: x
Encoding: 120 120 91
Width: 532
GlyphClass: 2
Flags: W
AnchorPoint: "Anchor-4" 272 -80 basechar 0
AnchorPoint: "Anchor-0" 289 630 basechar 0
LayerCount: 2
Fore
SplineSet
147 321 m 2,0,1
 145 324 145 324 137 334.5 c 128,-1,2
 129 345 129 345 127.5 347 c 128,-1,3
 126 349 126 349 119 357.5 c 128,-1,4
 112 366 112 366 110 368 c 128,-1,5
 108 370 108 370 101.5 376.5 c 128,-1,6
 95 383 95 383 90.5 385.5 c 128,-1,7
 86 388 86 388 79 393 c 128,-1,8
 72 398 72 398 65 400.5 c 128,-1,9
 58 403 58 403 49 407 c 128,-1,10
 40 411 40 411 30 414 c 0,11,12
 14 419 14 419 14 435 c 0,13,14
 14 443 14 443 25 448 c 128,-1,15
 36 453 36 453 49 453 c 128,-1,16
 62 453 62 453 94 450.5 c 128,-1,17
 126 448 126 448 140 448 c 128,-1,18
 154 448 154 448 187.5 450.5 c 128,-1,19
 221 453 221 453 230 453 c 0,20,21
 243 453 243 453 254 448 c 128,-1,22
 265 443 265 443 265 435 c 0,23,24
 265 418 265 418 242 411 c 0,25,26
 221 405 221 405 219.5 393.5 c 128,-1,27
 218 382 218 382 235 360 c 2,28,-1
 294 278 l 1,29,-1
 361 360 l 2,30,31
 374 376 374 376 369.5 391 c 128,-1,32
 365 406 365 406 348 411 c 0,33,34
 327 417 327 417 327 435 c 0,35,36
 327 443 327 443 338 448 c 128,-1,37
 349 453 349 453 362 453 c 0,38,39
 371 453 371 453 390 450.5 c 128,-1,40
 409 448 409 448 420 448 c 0,41,42
 430 448 430 448 456.5 450.5 c 128,-1,43
 483 453 483 453 493 453 c 0,44,45
 506 453 506 453 517 448 c 128,-1,46
 528 443 528 443 528 435 c 0,47,48
 528 418 528 418 511 414 c 0,49,50
 482 406 482 406 471 401.5 c 128,-1,51
 460 397 460 397 442 381 c 128,-1,52
 424 365 424 365 397 331 c 2,53,-1
 323 238 l 1,54,-1
 423 100 l 2,55,56
 445 69 445 69 501 45 c 0,57,58
 518 38 518 38 524.5 32 c 128,-1,59
 531 26 531 26 531 15 c 0,60,61
 531 1 531 1 499 -2 c 0,62,63
 497 -2 497 -2 487 -0.5 c 128,-1,64
 477 1 477 1 458.5 2.5 c 128,-1,65
 440 4 440 4 419 4 c 0,66,67
 404 4 404 4 374 1 c 128,-1,68
 344 -2 344 -2 340 -2 c 0,69,70
 329 -2 329 -2 318 3 c 128,-1,71
 307 8 307 8 307 15 c 0,72,73
 307 26 307 26 315 32.5 c 128,-1,74
 323 39 323 39 343 46 c 0,75,76
 354 50 354 50 331 80 c 2,77,-1
 266 165 l 1,78,-1
 207 90 l 2,79,80
 179 54 179 54 202 47 c 0,81,82
 245 33 245 33 245 15 c 0,83,84
 245 1 245 1 213 -2 c 0,85,86
 211 -2 211 -2 200.5 -0.5 c 128,-1,87
 190 1 190 1 171 2.5 c 128,-1,88
 152 4 152 4 131 4 c 128,-1,89
 110 4 110 4 90 2.5 c 128,-1,90
 70 1 70 1 57.5 -0.5 c 128,-1,91
 45 -2 45 -2 43 -2 c 0,92,93
 10 1 10 1 10 15 c 0,94,95
 10 31 10 31 67 48 c 0,96,97
 119 65 119 65 142 92 c 2,98,-1
 235 206 l 1,99,-1
 147 321 l 2,0,1
EndSplineSet
Validated: 33
Substitution2: "'smcp' Lowercase to Small Capitals lookup 48 subtable" x.sc
Substitution2: "'sups' Superscript lookup 25 subtable" x.sups
Substitution2: "'sinf' Scientific Inferiors lookup 24 subtable" x.sinf
Substitution2: "'ordn' Ordinals lookup 23 subtable" x.ordn
Substitution2: "'subs' Subscript lookup 22 subtable" x.subs
EndChar

StartChar: y
Encoding: 121 121 92
Width: 549
GlyphClass: 2
Flags: W
AnchorPoint: "Anchor-4" 250 -80 basechar 0
AnchorPoint: "Anchor-2" 263 15 basechar 0
AnchorPoint: "Anchor-1" 285 15 basechar 0
AnchorPoint: "Anchor-0" 257 630 basechar 0
LayerCount: 2
Fore
SplineSet
375 331 m 2,0,-1
 314 248 l 2,1,2
 297 225 297 225 293.5 213 c 128,-1,3
 290 201 290 201 290 178 c 2,4,-1
 290 113 l 2,5,6
 290 89 290 89 291 81.5 c 128,-1,7
 292 74 292 74 298.5 65 c 128,-1,8
 305 56 305 56 322 49 c 0,9,10
 327 47 327 47 336 43.5 c 128,-1,11
 345 40 345 40 351 37 c 128,-1,12
 357 34 357 34 363.5 30.5 c 128,-1,13
 370 27 370 27 373.5 23 c 128,-1,14
 377 19 377 19 377 15 c 0,15,16
 377 1 377 1 345 -2 c 0,17,18
 343 -2 343 -2 327.5 -0.5 c 128,-1,19
 312 1 312 1 288.5 2.5 c 128,-1,20
 265 4 265 4 244 4 c 128,-1,21
 223 4 223 4 201.5 2.5 c 128,-1,22
 180 1 180 1 166.5 -0.5 c 128,-1,23
 153 -2 153 -2 151 -2 c 0,24,25
 118 1 118 1 118 15 c 0,26,27
 118 19 118 19 121.5 23 c 128,-1,28
 125 27 125 27 131.5 30.5 c 128,-1,29
 138 34 138 34 144 37 c 128,-1,30
 150 40 150 40 159 43.5 c 128,-1,31
 168 47 168 47 173 49 c 0,32,33
 195 59 195 59 199.5 68 c 128,-1,34
 204 77 204 77 204 102 c 0,35,36
 204 105 204 105 204 107 c 128,-1,37
 204 109 204 109 204 111 c 2,38,-1
 204 161 l 2,39,40
 204 197 204 197 182 229 c 2,41,-1
 122 321 l 2,42,43
 121 323 121 323 115 333 c 128,-1,44
 109 343 109 343 105.5 347.5 c 128,-1,45
 102 352 102 352 95.5 361.5 c 128,-1,46
 89 371 89 371 82 376.5 c 128,-1,47
 75 382 75 382 65.5 389.5 c 128,-1,48
 56 397 56 397 43.5 403 c 128,-1,49
 31 409 31 409 17 414 c 0,50,51
 1 419 1 419 1 435 c 0,52,53
 1 443 1 443 12 448 c 128,-1,54
 23 453 23 453 36 453 c 128,-1,55
 49 453 49 453 81 450.5 c 128,-1,56
 113 448 113 448 127 448 c 128,-1,57
 141 448 141 448 174.5 450.5 c 128,-1,58
 208 453 208 453 217 453 c 0,59,60
 230 453 230 453 241 448 c 128,-1,61
 252 443 252 443 252 435 c 0,62,63
 252 418 252 418 229 411 c 0,64,65
 199 403 199 403 193 393.5 c 128,-1,66
 187 384 187 384 200 360 c 2,67,-1
 244 288 l 2,68,69
 258 266 258 266 266.5 269.5 c 128,-1,70
 275 273 275 273 299 305 c 2,71,-1
 339 360 l 2,72,73
 350 376 350 376 346.5 391.5 c 128,-1,74
 343 407 343 407 326 411 c 0,75,76
 305 417 305 417 305 435 c 0,77,78
 305 443 305 443 316 448 c 128,-1,79
 327 453 327 453 340 453 c 0,80,81
 349 453 349 453 368 450.5 c 128,-1,82
 387 448 387 448 398 448 c 0,83,84
 408 448 408 448 434.5 450.5 c 128,-1,85
 461 453 461 453 471 453 c 0,86,87
 484 453 484 453 495 448 c 128,-1,88
 506 443 506 443 506 435 c 0,89,90
 506 418 506 418 489 414 c 0,91,92
 465 407 465 407 458 405 c 128,-1,93
 451 403 451 403 436 394 c 128,-1,94
 421 385 421 385 408.5 371.5 c 128,-1,95
 396 358 396 358 375 331 c 2,0,-1
EndSplineSet
Validated: 33
Substitution2: "'smcp' Lowercase to Small Capitals lookup 48 subtable" y.sc
Substitution2: "'sups' Superscript lookup 25 subtable" y.sups
Substitution2: "'sinf' Scientific Inferiors lookup 24 subtable" y.sinf
Substitution2: "'ordn' Ordinals lookup 23 subtable" y.ordn
Substitution2: "'subs' Subscript lookup 22 subtable" y.subs
EndChar

StartChar: z
Encoding: 122 122 93
Width: 488
GlyphClass: 2
Flags: W
AnchorPoint: "Anchor-4" 256 -80 basechar 0
AnchorPoint: "Anchor-2" 269 15 basechar 0
AnchorPoint: "Anchor-1" 291 15 basechar 0
AnchorPoint: "Anchor-0" 256 630 basechar 0
LayerCount: 2
Fore
SplineSet
342 65 m 2,0,1
 360 65 360 65 377.5 86 c 128,-1,2
 395 107 395 107 405 130 c 0,3,4
 413 152 413 152 430 152 c 0,5,6
 452 152 452 152 452 115 c 0,7,8
 452 102 452 102 435 49 c 128,-1,9
 418 -4 418 -4 408 -4 c 0,10,11
 381 -4 381 -4 277.5 -0.5 c 128,-1,12
 174 3 174 3 149 3 c 0,13,14
 132 3 132 3 102.5 -0.5 c 128,-1,15
 73 -4 73 -4 66 -4 c 0,16,17
 55 -4 55 -4 43.5 9 c 128,-1,18
 32 22 32 22 32 32 c 0,19,20
 32 38 32 38 38.5 47.5 c 128,-1,21
 45 57 45 57 59 73.5 c 128,-1,22
 73 90 73 90 82 103 c 2,23,-1
 284 366 l 2,24,25
 297 382 297 382 294 389.5 c 128,-1,26
 291 397 291 397 271 397 c 2,27,-1
 154 397 l 2,28,29
 140 397 140 397 129 390.5 c 128,-1,30
 118 384 118 384 113.5 378 c 128,-1,31
 109 372 109 372 99.5 356 c 128,-1,32
 90 340 90 340 87 335 c 0,33,34
 75 316 75 316 62 316 c 0,35,36
 39 316 39 316 39 346 c 0,37,38
 39 354 39 354 48 390 c 128,-1,39
 57 426 57 426 64 443 c 0,40,41
 75 468 75 468 90 468 c 0,42,43
 93 468 93 468 119 458.5 c 128,-1,44
 145 449 145 449 173 449 c 2,45,-1
 336 449 l 2,46,47
 349 449 349 449 380.5 453 c 128,-1,48
 412 457 412 457 419 457 c 0,49,50
 444 457 444 457 444 440 c 0,51,52
 444 426 444 426 433 412 c 2,53,-1
 196 109 l 2,54,55
 182 90 182 90 178.5 79 c 128,-1,56
 175 68 175 68 187 65 c 2,57,-1
 342 65 l 2,0,1
EndSplineSet
Validated: 1
Substitution2: "'smcp' Lowercase to Small Capitals lookup 48 subtable" z.sc
Substitution2: "'sups' Superscript lookup 25 subtable" z.sups
Substitution2: "'sinf' Scientific Inferiors lookup 24 subtable" z.sinf
Substitution2: "'ordn' Ordinals lookup 23 subtable" z.ordn
Substitution2: "'subs' Subscript lookup 22 subtable" z.subs
EndChar

StartChar: braceleft
Encoding: 123 123 94
Width: 373
GlyphClass: 2
Flags: W
LayerCount: 2
Fore
SplineSet
102 279 m 0,0,1
 133 271 133 271 170.5 231 c 128,-1,2
 208 191 208 191 208 147 c 0,3,4
 208 119 208 119 201.5 64 c 128,-1,5
 195 9 195 9 195 -26 c 0,6,7
 195 -78 195 -78 227.5 -102.5 c 128,-1,8
 260 -127 260 -127 312 -127 c 0,9,10
 338 -127 338 -127 338 -139 c 0,11,12
 338 -154 338 -154 320 -154 c 0,13,14
 240 -154 240 -154 179 -120 c 128,-1,15
 118 -86 118 -86 118 -21 c 0,16,17
 118 15 118 15 124.5 71 c 128,-1,18
 131 127 131 127 131 157 c 0,19,20
 131 238 131 238 36 273 c 0,21,22
 25 277 25 277 25 282 c 0,23,24
 25 285 25 285 26.5 286 c 128,-1,25
 28 287 28 287 31 287 c 128,-1,26
 34 287 34 287 36 288 c 0,27,28
 131 323 131 323 131 404 c 0,29,30
 131 434 131 434 124.5 490 c 128,-1,31
 118 546 118 546 118 582 c 0,32,33
 118 647 118 647 179 681 c 128,-1,34
 240 715 240 715 320 715 c 0,35,36
 338 715 338 715 338 700 c 0,37,38
 338 688 338 688 312 688 c 0,39,40
 260 688 260 688 227.5 663.5 c 128,-1,41
 195 639 195 639 195 587 c 0,42,43
 195 552 195 552 201.5 497 c 128,-1,44
 208 442 208 442 208 414 c 0,45,46
 208 369 208 369 173.5 334 c 128,-1,47
 139 299 139 299 100 283 c 0,48,49
 96 281 96 281 102 279 c 0,0,1
EndSplineSet
Validated: 1
Substitution2: "'sups' Superscript lookup 25 subtable" braceleft.sups
Substitution2: "'sinf' Scientific Inferiors lookup 24 subtable" braceleft.sinf
Substitution2: "'ordn' Ordinals lookup 23 subtable" braceleft.ordn
Substitution2: "'subs' Subscript lookup 22 subtable" braceleft.subs
EndChar

StartChar: bar
Encoding: 124 124 95
Width: 157
GlyphClass: 2
Flags: W
LayerCount: 2
Fore
SplineSet
55 574 m 2,0,1
 55 588 55 588 67 599 c 128,-1,2
 79 610 79 610 92 610 c 0,3,4
 99 610 99 610 100.5 603.5 c 128,-1,5
 102 597 102 597 102 574 c 2,6,-1
 102 -188 l 2,7,8
 102 -200 102 -200 91 -209 c 128,-1,9
 80 -218 80 -218 67 -218 c 0,10,11
 55 -218 55 -218 55 -190 c 2,12,-1
 55 574 l 2,0,1
EndSplineSet
Validated: 1
Substitution2: "'sups' Superscript lookup 25 subtable" bar.sups
Substitution2: "'sinf' Scientific Inferiors lookup 24 subtable" bar.sinf
Substitution2: "'ordn' Ordinals lookup 23 subtable" bar.ordn
Substitution2: "'subs' Subscript lookup 22 subtable" bar.subs
EndChar

StartChar: braceright
Encoding: 125 125 96
Width: 373
GlyphClass: 2
Flags: W
LayerCount: 2
Fore
SplineSet
272 279 m 0,0,1
 277 281 277 281 274 283 c 0,2,3
 235 299 235 299 200.5 334 c 128,-1,4
 166 369 166 369 166 414 c 0,5,6
 166 442 166 442 172.5 497 c 128,-1,7
 179 552 179 552 179 587 c 0,8,9
 179 639 179 639 146 663.5 c 128,-1,10
 113 688 113 688 61 688 c 0,11,12
 35 688 35 688 35 700 c 0,13,14
 35 715 35 715 53 715 c 0,15,16
 133 715 133 715 194 681 c 128,-1,17
 255 647 255 647 255 582 c 0,18,19
 255 546 255 546 248.5 490 c 128,-1,20
 242 434 242 434 242 404 c 0,21,22
 242 323 242 323 337 288 c 0,23,24
 339 287 339 287 342 287 c 128,-1,25
 345 287 345 287 346.5 286 c 128,-1,26
 348 285 348 285 348 282 c 0,27,28
 348 277 348 277 337 273 c 0,29,30
 242 238 242 238 242 157 c 0,31,32
 242 127 242 127 248.5 71 c 128,-1,33
 255 15 255 15 255 -21 c 0,34,35
 255 -86 255 -86 194 -120 c 128,-1,36
 133 -154 133 -154 53 -154 c 0,37,38
 35 -154 35 -154 35 -139 c 0,39,40
 35 -127 35 -127 61 -127 c 0,41,42
 113 -127 113 -127 146 -102.5 c 128,-1,43
 179 -78 179 -78 179 -26 c 0,44,45
 179 9 179 9 172.5 64 c 128,-1,46
 166 119 166 119 166 147 c 0,47,48
 166 191 166 191 203.5 231 c 128,-1,49
 241 271 241 271 272 279 c 0,0,1
EndSplineSet
Validated: 1
Substitution2: "'sups' Superscript lookup 25 subtable" braceright.sups
Substitution2: "'sinf' Scientific Inferiors lookup 24 subtable" braceright.sinf
Substitution2: "'ordn' Ordinals lookup 23 subtable" braceright.ordn
Substitution2: "'subs' Subscript lookup 22 subtable" braceright.subs
EndChar

StartChar: asciitilde
Encoding: 126 126 97
Width: 386
GlyphClass: 2
Flags: W
LayerCount: 2
Fore
SplineSet
241 177 m 0,0,1
 216 177 216 177 185.5 193.5 c 128,-1,2
 155 210 155 210 130 210 c 0,3,4
 112 210 112 210 87.5 188 c 128,-1,5
 63 166 63 166 61 166 c 0,6,7
 54 166 54 166 47 171 c 128,-1,8
 40 176 40 176 40 183 c 0,9,10
 40 204 40 204 73.5 239.5 c 128,-1,11
 107 275 107 275 140 275 c 0,12,13
 164 275 164 275 196.5 259 c 128,-1,14
 229 243 229 243 253 243 c 0,15,16
 272 243 272 243 296.5 264.5 c 128,-1,17
 321 286 321 286 324 286 c 0,18,19
 332 286 332 286 339 281 c 128,-1,20
 346 276 346 276 346 269 c 0,21,22
 346 250 346 250 310 213.5 c 128,-1,23
 274 177 274 177 241 177 c 0,0,1
EndSplineSet
Validated: 1
Substitution2: "'sups' Superscript lookup 25 subtable" asciitilde.sups
Substitution2: "'sinf' Scientific Inferiors lookup 24 subtable" asciitilde.sinf
Substitution2: "'ordn' Ordinals lookup 23 subtable" asciitilde.ordn
Substitution2: "'subs' Subscript lookup 22 subtable" asciitilde.subs
EndChar

StartChar: exclamdown
Encoding: 161 161 99
Width: 207
GlyphClass: 2
Flags: W
LayerCount: 2
Fore
SplineSet
101 288 m 0,0,1
 78 288 78 288 60.5 302.5 c 128,-1,2
 43 317 43 317 43 338 c 0,3,4
 43 364 43 364 60 384.5 c 128,-1,5
 77 405 77 405 102 405 c 0,6,7
 124 405 124 405 140 390 c 128,-1,8
 156 375 156 375 156 353 c 0,9,10
 156 327 156 327 140.5 307.5 c 128,-1,11
 125 288 125 288 101 288 c 0,0,1
87 -200 m 0,12,13
 42 -200 42 -200 42 -155 c 0,14,15
 42 -16 42 -16 58 62 c 0,16,17
 77 163 77 163 95 163 c 128,-1,18
 113 163 113 163 119 125 c 0,19,20
 142 -41 142 -41 142 -145 c 0,21,22
 142 -167 142 -167 125.5 -183.5 c 128,-1,23
 109 -200 109 -200 87 -200 c 0,12,13
EndSplineSet
Validated: 1
EndChar

StartChar: sterling
Encoding: 163 163 100
Width: 600
GlyphClass: 2
Flags: W
LayerCount: 2
Fore
SplineSet
404 379 m 2,0,1
 437 379 437 379 437 367 c 128,-1,2
 437 355 437 355 427.5 345 c 128,-1,3
 418 335 418 335 406 335 c 2,4,-1
 279 335 l 1,5,6
 272 291 272 291 260 257 c 0,7,8
 241 204 241 204 210 166 c 0,9,10
 200 151 200 151 208.5 143.5 c 128,-1,11
 217 136 217 136 248 128 c 0,12,13
 278 120 278 120 335.5 87.5 c 128,-1,14
 393 55 393 55 431 55 c 0,15,16
 464 55 464 55 477 63 c 128,-1,17
 490 71 490 71 490 92 c 0,18,19
 490 93 490 93 487 108.5 c 128,-1,20
 484 124 484 124 484 138 c 0,21,22
 484 192 484 192 523 192 c 128,-1,23
 562 192 562 192 562 128 c 0,24,25
 562 75 562 75 506.5 31.5 c 128,-1,26
 451 -12 451 -12 394 -12 c 0,27,28
 376 -12 376 -12 360.5 -9.5 c 128,-1,29
 345 -7 345 -7 334 -5.5 c 128,-1,30
 323 -4 323 -4 309 4 c 128,-1,31
 295 12 295 12 289.5 14 c 128,-1,32
 284 16 284 16 269.5 28.5 c 128,-1,33
 255 41 255 41 252.5 43 c 128,-1,34
 250 45 250 45 233.5 62 c 128,-1,35
 217 79 217 79 215 81 c 0,36,37
 201 98 201 98 187 94 c 128,-1,38
 173 90 173 90 147 56 c 0,39,40
 123 24 123 24 111 15.5 c 128,-1,41
 99 7 99 7 74 7 c 0,42,43
 60 7 60 7 50 18.5 c 128,-1,44
 40 30 40 30 40 48 c 0,45,46
 40 85 40 85 119 138 c 0,47,48
 151 160 151 160 159 181 c 0,49,50
 184 250 184 250 200 335 c 1,51,-1
 140 335 l 2,52,53
 125 335 125 335 99.5 329.5 c 128,-1,54
 74 324 74 324 66 324 c 0,55,56
 48 324 48 324 48 335 c 0,57,58
 48 351 48 351 53.5 365 c 128,-1,59
 59 379 59 379 67 379 c 2,60,-1
 207 379 l 1,61,62
 220 463 220 463 224 488 c 0,63,64
 242 590 242 590 300.5 640.5 c 128,-1,65
 359 691 359 691 449 691 c 0,66,67
 478 691 478 691 498 660.5 c 128,-1,68
 518 630 518 630 518 589 c 0,69,70
 518 566 518 566 506 556.5 c 128,-1,71
 494 547 494 547 468 547 c 0,72,73
 448 547 448 547 448 571 c 0,74,75
 448 576 448 576 451 593.5 c 128,-1,76
 454 611 454 611 454 612 c 0,77,78
 454 627 454 627 438 638 c 128,-1,79
 422 649 422 649 402 649 c 0,80,81
 368 649 368 649 343 619.5 c 128,-1,82
 318 590 318 590 308 547 c 0,83,84
 307 543 307 543 285 379 c 1,85,-1
 404 379 l 2,0,1
EndSplineSet
Validated: 1
EndChar

StartChar: currency
Encoding: 164 164 101
Width: 483
GlyphClass: 2
Flags: W
LayerCount: 2
Fore
SplineSet
241 405 m 128,-1,1
 182 405 182 405 145.5 367.5 c 128,-1,2
 109 330 109 330 109 270 c 128,-1,3
 109 210 109 210 145.5 172.5 c 128,-1,4
 182 135 182 135 241 135 c 128,-1,5
 300 135 300 135 336.5 172.5 c 128,-1,6
 373 210 373 210 373 270 c 128,-1,7
 373 330 373 330 336.5 367.5 c 128,-1,0
 300 405 300 405 241 405 c 128,-1,1
41 434 m 2,8,9
 38 437 38 437 38 441 c 0,10,11
 38 451 38 451 48.5 461.5 c 128,-1,12
 59 472 59 472 69 472 c 0,13,14
 74 472 74 472 77 469 c 2,15,-1
 122 428 l 1,16,17
 171 465 171 465 241 465 c 0,18,19
 313 465 313 465 359 428 c 1,20,-1
 405 470 l 2,21,22
 408 473 408 473 413 473 c 0,23,24
 422 473 422 473 432.5 463 c 128,-1,25
 443 453 443 453 443 443 c 0,26,27
 443 437 443 437 439 433 c 2,28,-1
 398 388 l 1,29,30
 433 342 433 342 433 270 c 128,-1,31
 433 198 433 198 398 152 c 1,32,-1
 441 105 l 2,33,34
 444 102 444 102 444 98 c 0,35,36
 444 88 444 88 433.5 77.5 c 128,-1,37
 423 67 423 67 413 67 c 0,38,39
 408 67 408 67 405 70 c 2,40,-1
 359 112 l 1,41,42
 313 75 313 75 241 75 c 128,-1,43
 169 75 169 75 123 112 c 1,44,-1
 76 70 l 2,45,46
 73 67 73 67 68 67 c 0,47,48
 58 67 58 67 48 77 c 128,-1,49
 38 87 38 87 38 97 c 0,50,51
 38 102 38 102 41 105 c 2,52,-1
 84 152 l 1,53,54
 49 198 49 198 49 270 c 128,-1,55
 49 342 49 342 84 387 c 1,56,-1
 41 434 l 2,8,9
EndSplineSet
Validated: 1
EndChar

StartChar: brokenbar
Encoding: 166 166 102
Width: 157
GlyphClass: 2
Flags: W
LayerCount: 2
Fore
SplineSet
55 574 m 2,0,1
 55 588 55 588 67 599 c 128,-1,2
 79 610 79 610 92 610 c 0,3,4
 99 610 99 610 100.5 603.5 c 128,-1,5
 102 597 102 597 102 574 c 2,6,-1
 102 271 l 2,7,8
 102 259 102 259 91 250 c 128,-1,9
 80 241 80 241 67 241 c 0,10,11
 55 241 55 241 55 269 c 2,12,-1
 55 574 l 2,0,1
55 115 m 2,13,14
 55 129 55 129 67 140 c 128,-1,15
 79 151 79 151 92 151 c 0,16,17
 99 151 99 151 100.5 144.5 c 128,-1,18
 102 138 102 138 102 115 c 2,19,-1
 102 -188 l 2,20,21
 102 -200 102 -200 91 -209 c 128,-1,22
 80 -218 80 -218 67 -218 c 0,23,24
 55 -218 55 -218 55 -190 c 2,25,-1
 55 115 l 2,13,14
EndSplineSet
Validated: 1
Substitution2: "'sups' Superscript lookup 25 subtable" brokenbar.sups
Substitution2: "'sinf' Scientific Inferiors lookup 24 subtable" brokenbar.sinf
Substitution2: "'ordn' Ordinals lookup 23 subtable" brokenbar.ordn
Substitution2: "'subs' Subscript lookup 22 subtable" brokenbar.subs
EndChar

StartChar: section
Encoding: 167 167 103
Width: 333
GlyphClass: 2
Flags: W
LayerCount: 2
Fore
SplineSet
79 317 m 0,0,1
 79 281 79 281 121 209 c 128,-1,2
 163 137 163 137 204 82.5 c 128,-1,3
 245 28 245 28 249 28 c 0,4,5
 254 28 254 28 258.5 50.5 c 128,-1,6
 263 73 263 73 263 89 c 0,7,8
 263 118 263 118 221.5 188 c 128,-1,9
 180 258 180 258 138.5 314 c 128,-1,10
 97 370 97 370 93 370 c 0,11,12
 79 370 79 370 79 317 c 0,0,1
266 570 m 0,13,14
 289 570 289 570 306 555.5 c 128,-1,15
 323 541 323 541 323 517 c 0,16,17
 323 505 323 505 312 495 c 128,-1,18
 301 485 301 485 280 485 c 0,19,20
 264 485 264 485 235 511 c 0,21,22
 225 520 225 520 201 520 c 0,23,24
 179 520 179 520 163.5 500.5 c 128,-1,25
 148 481 148 481 148 457 c 0,26,27
 148 439 148 439 173.5 403.5 c 128,-1,28
 199 368 199 368 229.5 332 c 128,-1,29
 260 296 260 296 285.5 246.5 c 128,-1,30
 311 197 311 197 311 155 c 0,31,32
 311 91 311 91 282.5 21.5 c 128,-1,33
 254 -48 254 -48 201 -98 c 128,-1,34
 148 -148 148 -148 88 -148 c 0,35,36
 61 -148 61 -148 41.5 -133 c 128,-1,37
 22 -118 22 -118 22 -93 c 128,-1,38
 22 -68 22 -68 60 -68 c 0,39,40
 71 -68 71 -68 93.5 -85 c 128,-1,41
 116 -102 116 -102 132 -102 c 0,42,43
 154 -102 154 -102 167.5 -82 c 128,-1,44
 181 -62 181 -62 181 -35 c 0,45,46
 181 -20 181 -20 141.5 29.5 c 128,-1,47
 102 79 102 79 62 144 c 128,-1,48
 22 209 22 209 22 260 c 0,49,50
 22 326 22 326 49 395.5 c 128,-1,51
 76 465 76 465 134 517.5 c 128,-1,52
 192 570 192 570 266 570 c 0,13,14
EndSplineSet
Validated: 1
Substitution2: "'sups' Superscript lookup 25 subtable" section.sups
Substitution2: "'sinf' Scientific Inferiors lookup 24 subtable" section.sinf
Substitution2: "'ordn' Ordinals lookup 23 subtable" section.ordn
Substitution2: "'subs' Subscript lookup 22 subtable" section.subs
EndChar

StartChar: dieresis
Encoding: 168 168 104
Width: 326
GlyphClass: 2
Flags: W
LayerCount: 2
Fore
SplineSet
77 654 m 128,-1,1
 99 654 99 654 115 638.5 c 128,-1,2
 131 623 131 623 131 601 c 128,-1,3
 131 579 131 579 115 563.5 c 128,-1,4
 99 548 99 548 77 548 c 128,-1,5
 55 548 55 548 40 563.5 c 128,-1,6
 25 579 25 579 25 601 c 128,-1,7
 25 623 25 623 40 638.5 c 128,-1,0
 55 654 55 654 77 654 c 128,-1,1
249 654 m 128,-1,9
 271 654 271 654 286 638.5 c 128,-1,10
 301 623 301 623 301 601 c 128,-1,11
 301 579 301 579 286 563.5 c 128,-1,12
 271 548 271 548 249 548 c 128,-1,13
 227 548 227 548 211 563.5 c 128,-1,14
 195 579 195 579 195 601 c 128,-1,15
 195 623 195 623 211 638.5 c 128,-1,8
 227 654 227 654 249 654 c 128,-1,9
EndSplineSet
Validated: 1
EndChar

StartChar: copyright
Encoding: 169 169 105
Width: 677
GlyphClass: 2
Flags: W
LayerCount: 2
Fore
SplineSet
383 499 m 0,0,1
 433 499 433 499 495 469 c 0,2,3
 525 455 525 455 525 391 c 0,4,5
 525 363 525 363 507 363 c 0,6,7
 496 363 496 363 486 376.5 c 128,-1,8
 476 390 476 390 471 406 c 0,9,10
 466 424 466 424 434.5 440.5 c 128,-1,11
 403 457 403 457 371 457 c 0,12,13
 316 457 316 457 277.5 417.5 c 128,-1,14
 239 378 239 378 239 322 c 0,15,16
 239 252 239 252 278 199 c 128,-1,17
 317 146 317 146 380 146 c 128,-1,18
 443 146 443 146 492 219 c 0,19,20
 515 254 515 254 520 254 c 0,21,22
 531 254 531 254 531 226 c 0,23,24
 531 201 531 201 515 167 c 0,25,26
 506 148 506 148 469 129 c 0,27,28
 416 104 416 104 364 104 c 0,29,30
 277 104 277 104 213 160 c 128,-1,31
 149 216 149 216 149 299 c 0,32,33
 149 386 149 386 219 442.5 c 128,-1,34
 289 499 289 499 383 499 c 0,0,1
380 604 m 0,35,36
 498 604 498 604 578.5 513.5 c 128,-1,37
 659 423 659 423 659 300 c 128,-1,38
 659 177 659 177 578.5 86 c 128,-1,39
 498 -5 498 -5 380 -5 c 0,40,41
 243 -5 243 -5 141.5 82.5 c 128,-1,42
 40 170 40 170 40 300 c 128,-1,43
 40 430 40 430 141.5 517 c 128,-1,44
 243 604 243 604 380 604 c 0,35,36
380 569 m 0,45,46
 257 569 257 569 166 492.5 c 128,-1,47
 75 416 75 416 75 300 c 128,-1,48
 75 184 75 184 166 107 c 128,-1,49
 257 30 257 30 380 30 c 0,50,51
 484 30 484 30 554 110.5 c 128,-1,52
 624 191 624 191 624 300 c 128,-1,53
 624 409 624 409 554 489 c 128,-1,54
 484 569 484 569 380 569 c 0,45,46
EndSplineSet
Validated: 1
EndChar

StartChar: degree
Encoding: 176 176 109
Width: 357
GlyphClass: 2
Flags: W
LayerCount: 2
Fore
SplineSet
98 483 m 0,0,1
 98 448 98 448 123 423.5 c 128,-1,2
 148 399 148 399 183 399 c 0,3,4
 219 399 219 399 243.5 426.5 c 128,-1,5
 268 454 268 454 268 492 c 0,6,7
 268 525 268 525 241 546 c 128,-1,8
 214 567 214 567 178 567 c 0,9,10
 145 567 145 567 121.5 542 c 128,-1,11
 98 517 98 517 98 483 c 0,0,1
178 620 m 0,12,13
 236 620 236 620 279.5 587 c 128,-1,14
 323 554 323 554 323 502 c 0,15,16
 323 439 323 439 281 393 c 128,-1,17
 239 347 239 347 178 347 c 0,18,19
 120 347 120 347 80.5 389.5 c 128,-1,20
 41 432 41 432 41 491 c 0,21,22
 41 545 41 545 81.5 582.5 c 128,-1,23
 122 620 122 620 178 620 c 0,12,13
EndSplineSet
Validated: 1
EndChar

StartChar: plusminus
Encoding: 177 177 110
Width: 424
GlyphClass: 2
Flags: W
LayerCount: 2
Fore
SplineSet
200 277 m 1,0,-1
 95 277 l 2,1,2
 42 277 42 277 42 307 c 0,3,4
 42 321 42 321 57 332 c 128,-1,5
 72 343 72 343 95 343 c 2,6,-1
 200 343 l 1,7,-1
 200 448 l 2,8,9
 200 473 200 473 209.5 487 c 128,-1,10
 219 501 219 501 232 501 c 128,-1,11
 245 501 245 501 255 491 c 128,-1,12
 265 481 265 481 265 459 c 2,13,-1
 265 343 l 1,14,-1
 380 343 l 2,15,16
 398 343 398 343 410 335 c 128,-1,17
 422 327 422 327 422 315 c 0,18,19
 422 302 422 302 411 290 c 128,-1,20
 400 278 400 278 379 278 c 2,21,-1
 265 278 l 1,22,-1
 265 161 l 2,23,24
 265 121 265 121 233 121 c 0,25,26
 200 121 200 121 200 159 c 2,27,-1
 200 277 l 1,0,-1
95 0 m 2,28,29
 42 0 42 0 42 30 c 0,30,31
 42 44 42 44 57 55 c 128,-1,32
 72 66 72 66 95 66 c 2,33,-1
 380 66 l 2,34,35
 398 66 398 66 410 58 c 128,-1,36
 422 50 422 50 422 38 c 0,37,38
 422 25 422 25 411 13 c 128,-1,39
 400 1 400 1 379 1 c 2,40,-1
 95 0 l 2,28,29
EndSplineSet
Validated: 1
EndChar

